<?xml version="1.0" encoding="UTF-8" standalone="no"?>
<svg
   xmlns:dc="http://purl.org/dc/elements/1.1/"
   xmlns:cc="http://creativecommons.org/ns#"
   xmlns:rdf="http://www.w3.org/1999/02/22-rdf-syntax-ns#"
   xmlns:svg="http://www.w3.org/2000/svg"
   xmlns="http://www.w3.org/2000/svg"
   xmlns:sodipodi="http://sodipodi.sourceforge.net/DTD/sodipodi-0.dtd"
   xmlns:inkscape="http://www.inkscape.org/namespaces/inkscape"
   viewBox="0 0 1440 600"
   id="svg4165"
   version="1.1"
   inkscape:version="0.91 r13725"
   sodipodi:docname="footer_wave.svg"
   width="1440"
   height="600">
  <metadata
     id="metadata4173">
    <rdf:RDF>
      <cc:Work
         rdf:about="">
        <dc:format>image/svg+xml</dc:format>
        <dc:type
           rdf:resource="http://purl.org/dc/dcmitype/StillImage" />
        <dc:title></dc:title>
      </cc:Work>
    </rdf:RDF>
  </metadata>
  <defs
     id="defs4171" />
  <sodipodi:namedview
     pagecolor="#ffffff"
     bordercolor="#666666"
     borderopacity="1"
     objecttolerance="10"
     gridtolerance="10"
     guidetolerance="10"
     inkscape:pageopacity="0"
     inkscape:pageshadow="2"
     inkscape:window-width="1855"
     inkscape:window-height="1056"
     id="namedview4169"
     showgrid="false"
     inkscape:zoom="0.5"
     inkscape:cx="638.45632"
     inkscape:cy="589.21815"
     inkscape:window-x="65"
     inkscape:window-y="24"
     inkscape:window-maximized="1"
     inkscape:current-layer="svg4165" />
  <rect
     style="fill:#000000;fill-opacity:0"
     id="rect4175"
     width="1468"
     height="424"
     x="-4"
     y="226" />
  <rect
     style="fill:#2a4365;fill-opacity:1"
     id="rect4177"
     width="1478"
     height="408"
     x="-8"
     y="266" />
  <path
     id="path4219"
     d="m -12.000006,178.00053 61.666667,0 c 61.666669,0 185.000009,0 308.333339,21.3 123.33333,21.7 246.66667,63.7 370,53.4 123.33333,-10.7 246.66667,-74.7 370,-101.4 123.3333,-26.3 246.6667,-16.3 308.3333,-10.6 l 61.6667,5.3 0,288 -61.6667,0 c -61.6666,0 -185,0 -308.3333,0 -123.33333,0 -246.66667,0 -370,0 -123.33333,0 -246.66667,0 -370,0 -123.33333,0 -246.66667,0 -308.333339,0 l -61.666667,0 z"
     inkscape:connector-curvature="0"
     style="fill:#2a4365;fill-opacity:1" />
</svg>
