<?xml version="1.0" encoding="UTF-8" standalone="no"?>
<svg
   xmlns:dc="http://purl.org/dc/elements/1.1/"
   xmlns:cc="http://creativecommons.org/ns#"
   xmlns:rdf="http://www.w3.org/1999/02/22-rdf-syntax-ns#"
   xmlns:svg="http://www.w3.org/2000/svg"
   xmlns="http://www.w3.org/2000/svg"
   xmlns:sodipodi="http://sodipodi.sourceforge.net/DTD/sodipodi-0.dtd"
   xmlns:inkscape="http://www.inkscape.org/namespaces/inkscape"
   viewBox="0 0 1440 320"
   id="svg4533"
   version="1.1"
   inkscape:version="0.91 r13725"
   sodipodi:docname="wave_3_reversed.svg">
  <metadata
     id="metadata4541">
    <rdf:RDF>
      <cc:Work
         rdf:about="">
        <dc:format>image/svg+xml</dc:format>
        <dc:type
           rdf:resource="http://purl.org/dc/dcmitype/StillImage" />
        <dc:title></dc:title>
      </cc:Work>
    </rdf:RDF>
  </metadata>
  <defs
     id="defs4539" />
  <sodipodi:namedview
     pagecolor="#ffffff"
     bordercolor="#666666"
     borderopacity="1"
     objecttolerance="10"
     gridtolerance="10"
     guidetolerance="10"
     inkscape:pageopacity="0"
     inkscape:pageshadow="2"
     inkscape:window-width="1855"
     inkscape:window-height="1056"
     id="namedview4537"
     showgrid="false"
     inkscape:zoom="0.46875"
     inkscape:cx="743.28852"
     inkscape:cy="242.1128"
     inkscape:window-x="65"
     inkscape:window-y="24"
     inkscape:window-maximized="1"
     inkscape:current-layer="svg4533" />
  <path
     d="m 1440.0471,191.94355 -48,5.3 c -48,5.7 -144,15.7 -240,32 -96,15.7 -191.99996,37.7 -287.99996,32 -96,-5.3 -192,-37.3 -288,-85.3 -96,-48 -192,-112.000002 -288,-106.700002 -96,5.7 -191.999999,79.700002 -239.999999,117.400002 l -48.00000055,37.3 0,-224.00000526 48.00000055,0 c 48,0 143.999999,0 239.999999,0 96,0 192,0 288,0 96,0 192,0 288,0 96,0 191.99996,0 287.99996,0 96,0 192,0 240,0 l 48,0 z"
     id="path4535"
     inkscape:connector-curvature="0"
     style="fill:#edf2f7;fill-opacity:1" />
</svg>
