<?xml version="1.0" encoding="UTF-8" standalone="no"?>
<!-- Created with Inkscape (http://www.inkscape.org/) -->

<svg
   xmlns:dc="http://purl.org/dc/elements/1.1/"
   xmlns:cc="http://creativecommons.org/ns#"
   xmlns:rdf="http://www.w3.org/1999/02/22-rdf-syntax-ns#"
   xmlns:svg="http://www.w3.org/2000/svg"
   xmlns="http://www.w3.org/2000/svg"
   xmlns:xlink="http://www.w3.org/1999/xlink"
   xmlns:sodipodi="http://sodipodi.sourceforge.net/DTD/sodipodi-0.dtd"
   xmlns:inkscape="http://www.inkscape.org/namespaces/inkscape"
   width="1920mm"
   height="1080mm"
   viewBox="0 0 1920 1080"
   version="1.1"
   id="svg8"
   inkscape:version="0.92.3 (2405546, 2018-03-11)"
   sodipodi:docname="background_waves.svg">
  <defs
     id="defs2">
    <linearGradient
       inkscape:collect="always"
       id="linearGradient4587">
      <stop
         style="stop-color:#2d5af5;stop-opacity:1;"
         offset="0"
         id="stop4583" />
      <stop
         style="stop-color:#2d5af5;stop-opacity:0;"
         offset="1"
         id="stop4585" />
    </linearGradient>
    <linearGradient
       inkscape:collect="always"
       id="linearGradient4573">
      <stop
         style="stop-color:#2d5af5;stop-opacity:1;"
         offset="0"
         id="stop4569" />
      <stop
         style="stop-color:#2d5af5;stop-opacity:0;"
         offset="1"
         id="stop4571" />
    </linearGradient>
    <linearGradient
       inkscape:collect="always"
       id="linearGradient4563">
      <stop
         style="stop-color:#2d5af5;stop-opacity:0.988"
         offset="0"
         id="stop4559" />
      <stop
         style="stop-color:#2d5af5;stop-opacity:0;"
         offset="1"
         id="stop4561" />
    </linearGradient>
    <linearGradient
       inkscape:collect="always"
       xlink:href="#linearGradient4563"
       id="linearGradient4567"
       gradientUnits="userSpaceOnUse"
       x1="3616.9126"
       y1="-744.47534"
       x2="3579.9458"
       y2="2866.9534" />
    <linearGradient
       inkscape:collect="always"
       xlink:href="#linearGradient4573"
       id="linearGradient4579"
       gradientUnits="userSpaceOnUse"
       x1="953.87964"
       y1="-221.93584"
       x2="949.61176"
       y2="902.92133" />
    <linearGradient
       inkscape:collect="always"
       xlink:href="#linearGradient4587"
       id="linearGradient4595"
       gradientUnits="userSpaceOnUse"
       x1="926.65784"
       y1="-202.55214"
       x2="910.31122"
       y2="801.3526"
       gradientTransform="translate(3.7e-5,-2.8000001e-6)" />
    <linearGradient
       inkscape:collect="always"
       xlink:href="#linearGradient4563"
       id="linearGradient4597"
       gradientUnits="userSpaceOnUse"
       x1="3616.9126"
       y1="-744.47534"
       x2="3579.9458"
       y2="2866.9534"
       gradientTransform="matrix(0.26458333,0,0,0.26458333,-80.180858,-789.41447)" />
  </defs>
  <sodipodi:namedview
     id="base"
     pagecolor="#ffffff"
     bordercolor="#666666"
     borderopacity="1.0"
     inkscape:pageopacity="0.0"
     inkscape:pageshadow="2"
     inkscape:zoom="0.12374369"
     inkscape:cx="5347.0655"
     inkscape:cy="1675.196"
     inkscape:document-units="mm"
     inkscape:current-layer="layer2"
     showgrid="false"
     inkscape:window-width="2560"
     inkscape:window-height="1377"
     inkscape:window-x="-8"
     inkscape:window-y="-8"
     inkscape:window-maximized="1" />
  <metadata
     id="metadata5">
    <rdf:RDF>
      <cc:Work
         rdf:about="">
        <dc:format>image/svg+xml</dc:format>
        <dc:type
           rdf:resource="http://purl.org/dc/dcmitype/StillImage" />
        <dc:title></dc:title>
      </cc:Work>
    </rdf:RDF>
  </metadata>
  <g
     inkscape:label="Layer 1"
     inkscape:groupmode="layer"
     id="layer1"
     transform="translate(0,783)">
    <path
       style="fill:none;fill-opacity:1;stroke:#2d5af5;stroke-width:5.72328424;stroke-miterlimit:4;stroke-dasharray:none;stroke-opacity:0;opacity:0.764"
       d="m 5637.9555,2109.5972 c -149.6518,-15.3004 -377.9742,-148.8554 -521.4565,-305.0209 -63.9852,-69.6413 -115.3547,-142.0781 -192.2007,-271.025 -119.201,-200.0179 -188.5372,-263.28 -316.6809,-288.9385 -65.6892,-13.1532 -212.1695,-8.9672 -275.2715,7.8665 -152.6908,40.7331 -241.2948,117.6367 -373.4069,324.0976 -28.0959,43.9073 -68.9863,103.8965 -90.8675,133.3093 -91.7036,123.268 -248.8677,208.4972 -422.758,229.2594 -94.7316,11.3108 -199.6232,-8.5486 -278.1482,-52.6624 -17.2858,-9.7108 -54.5715,-41.028 -82.8572,-69.5939 -41.3833,-41.7931 -58.5639,-64.7707 -87.9591,-117.6379 -76.3186,-137.2586 -127.6591,-182.8429 -205.9315,-182.8429 -44.871,0 -75.4418,12.5516 -161.0448,66.1208 -92.2994,57.7599 -113.8009,66.8339 -158.2364,66.7792 -48.767,-0.06 -101.0173,-26.4976 -172.5425,-87.3025 -66.2543,-56.324 -107.1414,-84.0514 -148.5236,-100.7202 -100.1337,-40.3342 -235.4487,-29.0342 -318.795,26.6223 -58.3216,38.9456 -90.6389,90.5123 -149.5893,238.6906 -57.5118,144.562 -104.3812,193.1405 -205.5485,213.044 -19.0376,3.7454 -54.5587,5.6178 -78.9358,4.161 -56.4523,-3.3739 -83.5183,-16.1425 -184.3221,-86.9559 -127.1205,-89.3005 -225.04778,-134.9411 -369.08698,-172.0189 -173.09863,-44.5582 -336.7516,-36.6481 -521.79598,25.2208 -108.42584,36.2517 -239.123727,102.4143 -300.545567,152.1438 -12.5714283,10.1783 -43.428571,45.8578 -68.571428,79.2878 -45.647374,60.6928 -45.719739,60.7555 -49.439485,42.7806 -7.51897,-36.3337 -11.95022,-864.5911 -7.76537,-1451.44891 l 4.3042,-603.595457 543.59318,-3.667678 C 1068.658,-78.667662 7626.5201,-105.678 7628.4338,-104.04295 c 0.6977,0.59613 -3.3063,411.60709 -8.8971,913.35771 l -10.1663,912.27384 -14.1829,19.9335 c -39.164,55.0439 -93.4188,78.3524 -191.1274,82.1113 -86.2171,3.3168 -166.7411,-10.8366 -274.0377,-48.1664 -218.6697,-76.078 -255.612,-87.8052 -302.1771,-95.9243 -102.732,-17.9124 -144.2909,-9.7376 -251.1789,49.4085 -83.3017,46.0948 -140.3023,67.3118 -226.644,84.3625 -104.7429,20.6847 -167.0743,47.2963 -259.2903,110.7008 -28.676,19.7166 -80.424,55.3316 -114.9954,79.1444 -132.6337,91.3585 -219.0217,118.5803 -337.7812,106.4383 z"
       id="path4520"
       inkscape:connector-curvature="0"
       transform="matrix(0.26458333,0,0,0.26458333,0,-783)" />
    <path
       style="opacity:0.608;fill:none;fill-opacity:1;stroke:#2d5af5;stroke-width:5.72328424;stroke-miterlimit:4;stroke-dasharray:none;stroke-opacity:0"
       d="m 5637.9555,2109.5972 c -149.6518,-15.3004 -377.9742,-148.8554 -521.4565,-305.0209 -63.9852,-69.6413 -115.3547,-142.0781 -192.2007,-271.025 -119.201,-200.0179 -188.5372,-263.28 -316.6809,-288.9385 -65.6892,-13.1532 -212.1695,-8.9672 -275.2715,7.8665 -152.6908,40.7331 -241.2948,117.6367 -373.4069,324.0976 -28.0959,43.9073 -68.9863,103.8965 -90.8675,133.3093 -91.7036,123.268 -248.8677,208.4972 -422.758,229.2594 -94.7316,11.3108 -199.6232,-8.5486 -278.1482,-52.6624 -17.2858,-9.7108 -54.5715,-41.028 -82.8572,-69.5939 -41.3833,-41.7931 -58.5639,-64.7707 -87.9591,-117.6379 -76.3186,-137.2586 -127.6591,-182.8429 -205.9315,-182.8429 -44.871,0 -75.4418,12.5516 -161.0448,66.1208 -92.2994,57.7599 -113.8009,66.8339 -158.2364,66.7792 -48.767,-0.06 -101.0173,-26.4976 -172.5425,-87.3025 -66.2543,-56.324 -107.1414,-84.0514 -148.5236,-100.7202 -100.1337,-40.3342 -235.4487,-29.0342 -318.795,26.6223 -58.3216,38.9456 -90.6389,90.5123 -149.5893,238.6906 -57.5118,144.562 -104.3812,193.1405 -205.5485,213.044 -19.0376,3.7454 -54.5587,5.6178 -78.9358,4.161 -56.4523,-3.3739 -83.5183,-16.1425 -184.3221,-86.9559 -127.1205,-89.3005 -225.04778,-134.9411 -369.08698,-172.0189 -173.09863,-44.5582 -336.7516,-36.6481 -521.79598,25.2208 -108.42584,36.2517 -239.123727,102.4143 -300.545567,152.1438 -12.5714283,10.1783 -43.428571,45.8578 -68.571428,79.2878 -45.647374,60.6928 -45.719739,60.7555 -49.439485,42.7806 -7.51897,-36.3337 -11.95022,-864.5911 -7.76537,-1451.44891 l 4.3042,-603.595457 543.59318,-3.667678 C 1068.658,-78.667662 7626.5201,-105.678 7628.4338,-104.04295 c 0.6977,0.59613 -3.3063,411.60709 -8.8971,913.35771 l -10.1663,912.27384 -14.1829,19.9335 c -39.164,55.0439 -93.4188,78.3524 -191.1274,82.1113 -86.2171,3.3168 -166.7411,-10.8366 -274.0377,-48.1664 -218.6697,-76.078 -255.612,-87.8052 -302.1771,-95.9243 -102.732,-17.9124 -144.2909,-9.7376 -251.1789,49.4085 -83.3017,46.0948 -140.3023,67.3118 -226.644,84.3625 -104.7429,20.6847 -167.0743,47.2963 -259.2903,110.7008 -28.676,19.7166 -80.424,55.3316 -114.9954,79.1444 -132.6337,91.3585 -219.0217,118.5803 -337.7812,106.4383 z"
       id="path4522"
       inkscape:connector-curvature="0"
       transform="matrix(0.26458333,0,0,0.26458333,0,-783)" />
    <path
       style="opacity:0.60799997;fill:none;fill-opacity:1;stroke:#2d5af5;stroke-width:5.72328424;stroke-miterlimit:4;stroke-dasharray:none;stroke-opacity:0"
       d="m 5637.9555,2109.5972 c -149.6518,-15.3004 -377.9742,-148.8554 -521.4565,-305.0209 -63.9852,-69.6413 -115.3547,-142.0781 -192.2007,-271.025 -119.201,-200.0179 -188.5372,-263.28 -316.6809,-288.9385 -65.6892,-13.1532 -212.1695,-8.9672 -275.2715,7.8665 -152.6908,40.7331 -241.2948,117.6367 -373.4069,324.0976 -28.0959,43.9073 -68.9863,103.8965 -90.8675,133.3093 -91.7036,123.268 -248.8677,208.4972 -422.758,229.2594 -94.7316,11.3108 -199.6232,-8.5486 -278.1482,-52.6624 -17.2858,-9.7108 -54.5715,-41.028 -82.8572,-69.5939 -41.3833,-41.7931 -58.5639,-64.7707 -87.9591,-117.6379 -76.3186,-137.2586 -127.6591,-182.8429 -205.9315,-182.8429 -44.871,0 -75.4418,12.5516 -161.0448,66.1208 -92.2994,57.7599 -113.8009,66.8339 -158.2364,66.7792 -48.767,-0.06 -101.0173,-26.4976 -172.5425,-87.3025 -66.2543,-56.324 -107.1414,-84.0514 -148.5236,-100.7202 -100.1337,-40.3342 -235.4487,-29.0342 -318.795,26.6223 -58.3216,38.9456 -90.6389,90.5123 -149.5893,238.6906 -57.5118,144.562 -104.3812,193.1405 -205.5485,213.044 -19.0376,3.7454 -54.5587,5.6178 -78.9358,4.161 -56.4523,-3.3739 -83.5183,-16.1425 -184.3221,-86.9559 -127.1205,-89.3005 -225.04778,-134.9411 -369.08698,-172.0189 -173.09863,-44.5582 -336.7516,-36.6481 -521.79598,25.2208 -108.42584,36.2517 -239.123727,102.4143 -300.545567,152.1438 -12.5714283,10.1783 -43.428571,45.8578 -68.571428,79.2878 -45.647374,60.6928 -45.719739,60.7555 -49.439485,42.7806 -7.51897,-36.3337 -11.95022,-864.5911 -7.76537,-1451.44891 l 4.3042,-603.595457 543.59318,-3.667678 C 1068.658,-78.667662 7626.5201,-105.678 7628.4338,-104.04295 c 0.6977,0.59613 -3.3063,411.60709 -8.8971,913.35771 l -10.1663,912.27384 -14.1829,19.9335 c -39.164,55.0439 -93.4188,78.3524 -191.1274,82.1113 -86.2171,3.3168 -166.7411,-10.8366 -274.0377,-48.1664 -218.6697,-76.078 -255.612,-87.8052 -302.1771,-95.9243 -102.732,-17.9124 -144.2909,-9.7376 -251.1789,49.4085 -83.3017,46.0948 -140.3023,67.3118 -226.644,84.3625 -104.7429,20.6847 -167.0743,47.2963 -259.2903,110.7008 -28.676,19.7166 -80.424,55.3316 -114.9954,79.1444 -132.6337,91.3585 -219.0217,118.5803 -337.7812,106.4383 z"
       id="path4524"
       inkscape:connector-curvature="0"
       transform="matrix(0.26458333,0,0,0.26458333,0,-783)" />
    <path
       style="opacity:0.60799997;fill:none;fill-opacity:1;stroke:#2d5af5;stroke-width:5.72328424;stroke-miterlimit:4;stroke-dasharray:none;stroke-opacity:0"
       d="m 5637.9555,2109.5972 c -149.6518,-15.3004 -377.9742,-148.8554 -521.4565,-305.0209 -63.9852,-69.6413 -115.3547,-142.0781 -192.2007,-271.025 -119.201,-200.0179 -188.5372,-263.28 -316.6809,-288.9385 -65.6892,-13.1532 -212.1695,-8.9672 -275.2715,7.8665 -152.6908,40.7331 -241.2948,117.6367 -373.4069,324.0976 -28.0959,43.9073 -68.9863,103.8965 -90.8675,133.3093 -91.7036,123.268 -248.8677,208.4972 -422.758,229.2594 -94.7316,11.3108 -199.6232,-8.5486 -278.1482,-52.6624 -17.2858,-9.7108 -54.5715,-41.028 -82.8572,-69.5939 -41.3833,-41.7931 -58.5639,-64.7707 -87.9591,-117.6379 -76.3186,-137.2586 -127.6591,-182.8429 -205.9315,-182.8429 -44.871,0 -75.4418,12.5516 -161.0448,66.1208 -92.2994,57.7599 -113.8009,66.8339 -158.2364,66.7792 -48.767,-0.06 -101.0173,-26.4976 -172.5425,-87.3025 -66.2543,-56.324 -107.1414,-84.0514 -148.5236,-100.7202 -100.1337,-40.3342 -235.4487,-29.0342 -318.795,26.6223 -58.3216,38.9456 -90.6389,90.5123 -149.5893,238.6906 -57.5118,144.562 -104.3812,193.1405 -205.5485,213.044 -19.0376,3.7454 -54.5587,5.6178 -78.9358,4.161 -56.4523,-3.3739 -83.5183,-16.1425 -184.3221,-86.9559 -127.1205,-89.3005 -225.04778,-134.9411 -369.08698,-172.0189 -173.09863,-44.5582 -336.7516,-36.6481 -521.79598,25.2208 -108.42584,36.2517 -239.123727,102.4143 -300.545567,152.1438 -12.5714283,10.1783 -43.428571,45.8578 -68.571428,79.2878 -45.647374,60.6928 -45.719739,60.7555 -49.439485,42.7806 -7.51897,-36.3337 -11.95022,-864.5911 -7.76537,-1451.44891 l 4.3042,-603.595457 543.59318,-3.667678 C 1068.658,-78.667662 7626.5201,-105.678 7628.4338,-104.04295 c 0.6977,0.59613 -3.3063,411.60709 -8.8971,913.35771 l -10.1663,912.27384 -14.1829,19.9335 c -39.164,55.0439 -93.4188,78.3524 -191.1274,82.1113 -86.2171,3.3168 -166.7411,-10.8366 -274.0377,-48.1664 -218.6697,-76.078 -255.612,-87.8052 -302.1771,-95.9243 -102.732,-17.9124 -144.2909,-9.7376 -251.1789,49.4085 -83.3017,46.0948 -140.3023,67.3118 -226.644,84.3625 -104.7429,20.6847 -167.0743,47.2963 -259.2903,110.7008 -28.676,19.7166 -80.424,55.3316 -114.9954,79.1444 -132.6337,91.3585 -219.0217,118.5803 -337.7812,106.4383 z"
       id="path4526"
       inkscape:connector-curvature="0"
       transform="matrix(0.26458333,0,0,0.26458333,0,-783)" />
    <path
       style="opacity:0.60799997;fill:none;fill-opacity:1;stroke:#2d5af5;stroke-width:5.72328424;stroke-miterlimit:4;stroke-dasharray:none;stroke-opacity:0"
       d="m 5637.9555,2109.5972 c -149.6518,-15.3004 -377.9742,-148.8554 -521.4565,-305.0209 -63.9852,-69.6413 -115.3547,-142.0781 -192.2007,-271.025 -119.201,-200.0179 -188.5372,-263.28 -316.6809,-288.9385 -65.6892,-13.1532 -212.1695,-8.9672 -275.2715,7.8665 -152.6908,40.7331 -241.2948,117.6367 -373.4069,324.0976 -28.0959,43.9073 -68.9863,103.8965 -90.8675,133.3093 -91.7036,123.268 -248.8677,208.4972 -422.758,229.2594 -94.7316,11.3108 -199.6232,-8.5486 -278.1482,-52.6624 -17.2858,-9.7108 -54.5715,-41.028 -82.8572,-69.5939 -41.3833,-41.7931 -58.5639,-64.7707 -87.9591,-117.6379 -76.3186,-137.2586 -127.6591,-182.8429 -205.9315,-182.8429 -44.871,0 -75.4418,12.5516 -161.0448,66.1208 -92.2994,57.7599 -113.8009,66.8339 -158.2364,66.7792 -48.767,-0.06 -101.0173,-26.4976 -172.5425,-87.3025 -66.2543,-56.324 -107.1414,-84.0514 -148.5236,-100.7202 -100.1337,-40.3342 -235.4487,-29.0342 -318.795,26.6223 -58.3216,38.9456 -90.6389,90.5123 -149.5893,238.6906 -57.5118,144.562 -104.3812,193.1405 -205.5485,213.044 -19.0376,3.7454 -54.5587,5.6178 -78.9358,4.161 -56.4523,-3.3739 -83.5183,-16.1425 -184.3221,-86.9559 -127.1205,-89.3005 -225.04778,-134.9411 -369.08698,-172.0189 -173.09863,-44.5582 -336.7516,-36.6481 -521.79598,25.2208 -108.42584,36.2517 -239.123727,102.4143 -300.545567,152.1438 -12.5714283,10.1783 -43.428571,45.8578 -68.571428,79.2878 -45.647374,60.6928 -45.719739,60.7555 -49.439485,42.7806 -7.51897,-36.3337 -11.95022,-864.5911 -7.76537,-1451.44891 l 4.3042,-603.595457 543.59318,-3.667678 C 1068.658,-78.667662 7626.5201,-105.678 7628.4338,-104.04295 c 0.6977,0.59613 -3.3063,411.60709 -8.8971,913.35771 l -10.1663,912.27384 -14.1829,19.9335 c -39.164,55.0439 -93.4188,78.3524 -191.1274,82.1113 -86.2171,3.3168 -166.7411,-10.8366 -274.0377,-48.1664 -218.6697,-76.078 -255.612,-87.8052 -302.1771,-95.9243 -102.732,-17.9124 -144.2909,-9.7376 -251.1789,49.4085 -83.3017,46.0948 -140.3023,67.3118 -226.644,84.3625 -104.7429,20.6847 -167.0743,47.2963 -259.2903,110.7008 -28.676,19.7166 -80.424,55.3316 -114.9954,79.1444 -132.6337,91.3585 -219.0217,118.5803 -337.7812,106.4383 z"
       id="path4528"
       inkscape:connector-curvature="0"
       transform="matrix(0.26458333,0,0,0.26458333,0,-783)" />
    <path
       style="opacity:0.60799997;fill:#2d5af5;fill-opacity:0;stroke:#2d5af5;stroke-width:5.72328424;stroke-miterlimit:4;stroke-dasharray:none;stroke-opacity:0"
       d="m 5637.9555,2109.5972 c -149.6518,-15.3004 -377.9742,-148.8554 -521.4565,-305.0209 -63.9852,-69.6413 -115.3547,-142.0781 -192.2007,-271.025 -119.201,-200.0179 -188.5372,-263.28 -316.6809,-288.9385 -65.6892,-13.1532 -212.1695,-8.9672 -275.2715,7.8665 -152.6908,40.7331 -241.2948,117.6367 -373.4069,324.0976 -28.0959,43.9073 -68.9863,103.8965 -90.8675,133.3093 -91.7036,123.268 -248.8677,208.4972 -422.758,229.2594 -94.7316,11.3108 -199.6232,-8.5486 -278.1482,-52.6624 -17.2858,-9.7108 -54.5715,-41.028 -82.8572,-69.5939 -41.3833,-41.7931 -58.5639,-64.7707 -87.9591,-117.6379 -76.3186,-137.2586 -127.6591,-182.8429 -205.9315,-182.8429 -44.871,0 -75.4418,12.5516 -161.0448,66.1208 -92.2994,57.7599 -113.8009,66.8339 -158.2364,66.7792 -48.767,-0.06 -101.0173,-26.4976 -172.5425,-87.3025 -66.2543,-56.324 -107.1414,-84.0514 -148.5236,-100.7202 -100.1337,-40.3342 -235.4487,-29.0342 -318.795,26.6223 -58.3216,38.9456 -90.6389,90.5123 -149.5893,238.6906 -57.5118,144.562 -104.3812,193.1405 -205.5485,213.044 -19.0376,3.7454 -54.5587,5.6178 -78.9358,4.161 -56.4523,-3.3739 -83.5183,-16.1425 -184.3221,-86.9559 -127.1205,-89.3005 -225.04778,-134.9411 -369.08698,-172.0189 -173.09863,-44.5582 -336.7516,-36.6481 -521.79598,25.2208 -108.42584,36.2517 -239.123727,102.4143 -300.545567,152.1438 -12.5714283,10.1783 -43.428571,45.8578 -68.571428,79.2878 -45.647374,60.6928 -45.719739,60.7555 -49.439485,42.7806 -7.51897,-36.3337 -11.95022,-864.5911 -7.76537,-1451.44891 l 4.3042,-603.595457 543.59318,-3.667678 C 1068.658,-78.667662 7626.5201,-105.678 7628.4338,-104.04295 c 0.6977,0.59613 -3.3063,411.60709 -8.8971,913.35771 l -10.1663,912.27384 -14.1829,19.9335 c -39.164,55.0439 -93.4188,78.3524 -191.1274,82.1113 -86.2171,3.3168 -166.7411,-10.8366 -274.0377,-48.1664 -218.6697,-76.078 -255.612,-87.8052 -302.1771,-95.9243 -102.732,-17.9124 -144.2909,-9.7376 -251.1789,49.4085 -83.3017,46.0948 -140.3023,67.3118 -226.644,84.3625 -104.7429,20.6847 -167.0743,47.2963 -259.2903,110.7008 -28.676,19.7166 -80.424,55.3316 -114.9954,79.1444 -132.6337,91.3585 -219.0217,118.5803 -337.7812,106.4383 z"
       id="path4530"
       inkscape:connector-curvature="0"
       transform="matrix(0.26458333,0,0,0.26458333,0,-783)" />
    <path
       style="opacity:0.60799997;fill:#2d5af5;fill-opacity:0;stroke:#2d5af5;stroke-width:5.72328424;stroke-miterlimit:4;stroke-dasharray:none;stroke-opacity:0"
       d="m 5637.9555,2109.5972 c -149.6518,-15.3004 -377.9742,-148.8554 -521.4565,-305.0209 -63.9852,-69.6413 -115.3547,-142.0781 -192.2007,-271.025 -119.201,-200.0179 -188.5372,-263.28 -316.6809,-288.9385 -65.6892,-13.1532 -212.1695,-8.9672 -275.2715,7.8665 -152.6908,40.7331 -241.2948,117.6367 -373.4069,324.0976 -28.0959,43.9073 -68.9863,103.8965 -90.8675,133.3093 -91.7036,123.268 -248.8677,208.4972 -422.758,229.2594 -94.7316,11.3108 -199.6232,-8.5486 -278.1482,-52.6624 -17.2858,-9.7108 -54.5715,-41.028 -82.8572,-69.5939 -41.3833,-41.7931 -58.5639,-64.7707 -87.9591,-117.6379 -76.3186,-137.2586 -127.6591,-182.8429 -205.9315,-182.8429 -44.871,0 -75.4418,12.5516 -161.0448,66.1208 -92.2994,57.7599 -113.8009,66.8339 -158.2364,66.7792 -48.767,-0.06 -101.0173,-26.4976 -172.5425,-87.3025 -66.2543,-56.324 -107.1414,-84.0514 -148.5236,-100.7202 -100.1337,-40.3342 -235.4487,-29.0342 -318.795,26.6223 -58.3216,38.9456 -90.6389,90.5123 -149.5893,238.6906 -57.5118,144.562 -104.3812,193.1405 -205.5485,213.044 -19.0376,3.7454 -54.5587,5.6178 -78.9358,4.161 -56.4523,-3.3739 -83.5183,-16.1425 -184.3221,-86.9559 -127.1205,-89.3005 -225.04778,-134.9411 -369.08698,-172.0189 -173.09863,-44.5582 -336.7516,-36.6481 -521.79598,25.2208 -108.42584,36.2517 -239.123727,102.4143 -300.545567,152.1438 -12.5714283,10.1783 -43.428571,45.8578 -68.571428,79.2878 -45.647374,60.6928 -45.719739,60.7555 -49.439485,42.7806 -7.51897,-36.3337 -11.95022,-864.5911 -7.76537,-1451.44891 l 4.3042,-603.595457 543.59318,-3.667678 C 1068.658,-78.667662 7626.5201,-105.678 7628.4338,-104.04295 c 0.6977,0.59613 -3.3063,411.60709 -8.8971,913.35771 l -10.1663,912.27384 -14.1829,19.9335 c -39.164,55.0439 -93.4188,78.3524 -191.1274,82.1113 -86.2171,3.3168 -166.7411,-10.8366 -274.0377,-48.1664 -218.6697,-76.078 -255.612,-87.8052 -302.1771,-95.9243 -102.732,-17.9124 -144.2909,-9.7376 -251.1789,49.4085 -83.3017,46.0948 -140.3023,67.3118 -226.644,84.3625 -104.7429,20.6847 -167.0743,47.2963 -259.2903,110.7008 -28.676,19.7166 -80.424,55.3316 -114.9954,79.1444 -132.6337,91.3585 -219.0217,118.5803 -337.7812,106.4383 z"
       id="path4532"
       inkscape:connector-curvature="0"
       transform="matrix(0.26458333,0,0,0.26458333,0,-783)" />
    <path
       style="opacity:0.60799997;fill:#2d5af5;fill-opacity:0;stroke:#2d5af5;stroke-width:5.72328424;stroke-miterlimit:4;stroke-dasharray:none;stroke-opacity:0"
       d="m 5637.9555,2109.5972 c -149.6518,-15.3004 -377.9742,-148.8554 -521.4565,-305.0209 -63.9852,-69.6413 -115.3547,-142.0781 -192.2007,-271.025 -119.201,-200.0179 -188.5372,-263.28 -316.6809,-288.9385 -65.6892,-13.1532 -212.1695,-8.9672 -275.2715,7.8665 -152.6908,40.7331 -241.2948,117.6367 -373.4069,324.0976 -28.0959,43.9073 -68.9863,103.8965 -90.8675,133.3093 -91.7036,123.268 -248.8677,208.4972 -422.758,229.2594 -94.7316,11.3108 -199.6232,-8.5486 -278.1482,-52.6624 -17.2858,-9.7108 -54.5715,-41.028 -82.8572,-69.5939 -41.3833,-41.7931 -58.5639,-64.7707 -87.9591,-117.6379 -76.3186,-137.2586 -127.6591,-182.8429 -205.9315,-182.8429 -44.871,0 -75.4418,12.5516 -161.0448,66.1208 -92.2994,57.7599 -113.8009,66.8339 -158.2364,66.7792 -48.767,-0.06 -101.0173,-26.4976 -172.5425,-87.3025 -66.2543,-56.324 -107.1414,-84.0514 -148.5236,-100.7202 -100.1337,-40.3342 -235.4487,-29.0342 -318.795,26.6223 -58.3216,38.9456 -90.6389,90.5123 -149.5893,238.6906 -57.5118,144.562 -104.3812,193.1405 -205.5485,213.044 -19.0376,3.7454 -54.5587,5.6178 -78.9358,4.161 -56.4523,-3.3739 -83.5183,-16.1425 -184.3221,-86.9559 -127.1205,-89.3005 -225.04778,-134.9411 -369.08698,-172.0189 -173.09863,-44.5582 -336.7516,-36.6481 -521.79598,25.2208 -108.42584,36.2517 -239.123727,102.4143 -300.545567,152.1438 -12.5714283,10.1783 -43.428571,45.8578 -68.571428,79.2878 -45.647374,60.6928 -45.719739,60.7555 -49.439485,42.7806 -7.51897,-36.3337 -11.95022,-864.5911 -7.76537,-1451.44891 l 4.3042,-603.595457 543.59318,-3.667678 C 1068.658,-78.667662 7626.5201,-105.678 7628.4338,-104.04295 c 0.6977,0.59613 -3.3063,411.60709 -8.8971,913.35771 l -10.1663,912.27384 -14.1829,19.9335 c -39.164,55.0439 -93.4188,78.3524 -191.1274,82.1113 -86.2171,3.3168 -166.7411,-10.8366 -274.0377,-48.1664 -218.6697,-76.078 -255.612,-87.8052 -302.1771,-95.9243 -102.732,-17.9124 -144.2909,-9.7376 -251.1789,49.4085 -83.3017,46.0948 -140.3023,67.3118 -226.644,84.3625 -104.7429,20.6847 -167.0743,47.2963 -259.2903,110.7008 -28.676,19.7166 -80.424,55.3316 -114.9954,79.1444 -132.6337,91.3585 -219.0217,118.5803 -337.7812,106.4383 z"
       id="path4534"
       inkscape:connector-curvature="0"
       transform="matrix(0.26458333,0,0,0.26458333,0,-783)" />
    <path
       style="opacity:0.60799997;fill:#2d5af5;fill-opacity:0;stroke:#2d5af5;stroke-width:5.72328424;stroke-miterlimit:4;stroke-dasharray:none;stroke-opacity:0"
       d="m 5637.9555,2109.5972 c -149.6518,-15.3004 -377.9742,-148.8554 -521.4565,-305.0209 -63.9852,-69.6413 -115.3547,-142.0781 -192.2007,-271.025 -119.201,-200.0179 -188.5372,-263.28 -316.6809,-288.9385 -65.6892,-13.1532 -212.1695,-8.9672 -275.2715,7.8665 -152.6908,40.7331 -241.2948,117.6367 -373.4069,324.0976 -28.0959,43.9073 -68.9863,103.8965 -90.8675,133.3093 -91.7036,123.268 -248.8677,208.4972 -422.758,229.2594 -94.7316,11.3108 -199.6232,-8.5486 -278.1482,-52.6624 -17.2858,-9.7108 -54.5715,-41.028 -82.8572,-69.5939 -41.3833,-41.7931 -58.5639,-64.7707 -87.9591,-117.6379 -76.3186,-137.2586 -127.6591,-182.8429 -205.9315,-182.8429 -44.871,0 -75.4418,12.5516 -161.0448,66.1208 -92.2994,57.7599 -113.8009,66.8339 -158.2364,66.7792 -48.767,-0.06 -101.0173,-26.4976 -172.5425,-87.3025 -66.2543,-56.324 -107.1414,-84.0514 -148.5236,-100.7202 -100.1337,-40.3342 -235.4487,-29.0342 -318.795,26.6223 -58.3216,38.9456 -90.6389,90.5123 -149.5893,238.6906 -57.5118,144.562 -104.3812,193.1405 -205.5485,213.044 -19.0376,3.7454 -54.5587,5.6178 -78.9358,4.161 -56.4523,-3.3739 -83.5183,-16.1425 -184.3221,-86.9559 -127.1205,-89.3005 -225.04778,-134.9411 -369.08698,-172.0189 -173.09863,-44.5582 -336.7516,-36.6481 -521.79598,25.2208 -108.42584,36.2517 -239.123727,102.4143 -300.545567,152.1438 -12.5714283,10.1783 -43.428571,45.8578 -68.571428,79.2878 -45.647374,60.6928 -45.719739,60.7555 -49.439485,42.7806 -7.51897,-36.3337 -11.95022,-864.5911 -7.76537,-1451.44891 l 4.3042,-603.595457 543.59318,-3.667678 C 1068.658,-78.667662 7626.5201,-105.678 7628.4338,-104.04295 c 0.6977,0.59613 -3.3063,411.60709 -8.8971,913.35771 l -10.1663,912.27384 -14.1829,19.9335 c -39.164,55.0439 -93.4188,78.3524 -191.1274,82.1113 -86.2171,3.3168 -166.7411,-10.8366 -274.0377,-48.1664 -218.6697,-76.078 -255.612,-87.8052 -302.1771,-95.9243 -102.732,-17.9124 -144.2909,-9.7376 -251.1789,49.4085 -83.3017,46.0948 -140.3023,67.3118 -226.644,84.3625 -104.7429,20.6847 -167.0743,47.2963 -259.2903,110.7008 -28.676,19.7166 -80.424,55.3316 -114.9954,79.1444 -132.6337,91.3585 -219.0217,118.5803 -337.7812,106.4383 z"
       id="path4536"
       inkscape:connector-curvature="0"
       transform="matrix(0.26458333,0,0,0.26458333,0,-783)" />
    <path
       style="opacity:0.60799997;fill:#2d5af5;fill-opacity:0;stroke:#2d5af5;stroke-width:5.72328424;stroke-miterlimit:4;stroke-dasharray:none;stroke-opacity:0"
       d="m 5637.9555,2109.5972 c -149.6518,-15.3004 -377.9742,-148.8554 -521.4565,-305.0209 -63.9852,-69.6413 -115.3547,-142.0781 -192.2007,-271.025 -119.201,-200.0179 -188.5372,-263.28 -316.6809,-288.9385 -65.6892,-13.1532 -212.1695,-8.9672 -275.2715,7.8665 -152.6908,40.7331 -241.2948,117.6367 -373.4069,324.0976 -28.0959,43.9073 -68.9863,103.8965 -90.8675,133.3093 -91.7036,123.268 -248.8677,208.4972 -422.758,229.2594 -94.7316,11.3108 -199.6232,-8.5486 -278.1482,-52.6624 -17.2858,-9.7108 -54.5715,-41.028 -82.8572,-69.5939 -41.3833,-41.7931 -58.5639,-64.7707 -87.9591,-117.6379 -76.3186,-137.2586 -127.6591,-182.8429 -205.9315,-182.8429 -44.871,0 -75.4418,12.5516 -161.0448,66.1208 -92.2994,57.7599 -113.8009,66.8339 -158.2364,66.7792 -48.767,-0.06 -101.0173,-26.4976 -172.5425,-87.3025 -66.2543,-56.324 -107.1414,-84.0514 -148.5236,-100.7202 -100.1337,-40.3342 -235.4487,-29.0342 -318.795,26.6223 -58.3216,38.9456 -90.6389,90.5123 -149.5893,238.6906 -57.5118,144.562 -104.3812,193.1405 -205.5485,213.044 -19.0376,3.7454 -54.5587,5.6178 -78.9358,4.161 -56.4523,-3.3739 -83.5183,-16.1425 -184.3221,-86.9559 -127.1205,-89.3005 -225.04778,-134.9411 -369.08698,-172.0189 -173.09863,-44.5582 -336.7516,-36.6481 -521.79598,25.2208 -108.42584,36.2517 -239.123727,102.4143 -300.545567,152.1438 -12.5714283,10.1783 -43.428571,45.8578 -68.571428,79.2878 -45.647374,60.6928 -45.719739,60.7555 -49.439485,42.7806 -7.51897,-36.3337 -11.95022,-864.5911 -7.76537,-1451.44891 l 4.3042,-603.595457 543.59318,-3.667678 C 1068.658,-78.667662 7626.5201,-105.678 7628.4338,-104.04295 c 0.6977,0.59613 -3.3063,411.60709 -8.8971,913.35771 l -10.1663,912.27384 -14.1829,19.9335 c -39.164,55.0439 -93.4188,78.3524 -191.1274,82.1113 -86.2171,3.3168 -166.7411,-10.8366 -274.0377,-48.1664 -218.6697,-76.078 -255.612,-87.8052 -302.1771,-95.9243 -102.732,-17.9124 -144.2909,-9.7376 -251.1789,49.4085 -83.3017,46.0948 -140.3023,67.3118 -226.644,84.3625 -104.7429,20.6847 -167.0743,47.2963 -259.2903,110.7008 -28.676,19.7166 -80.424,55.3316 -114.9954,79.1444 -132.6337,91.3585 -219.0217,118.5803 -337.7812,106.4383 z"
       id="path4538"
       inkscape:connector-curvature="0"
       transform="matrix(0.26458333,0,0,0.26458333,0,-783)" />
    <path
       style="opacity:0.60799997;fill:#2d5af5;fill-opacity:0;stroke:#2d5af5;stroke-width:5.72328424;stroke-miterlimit:4;stroke-dasharray:none;stroke-opacity:0"
       d="m 5637.9555,2109.5972 c -149.6518,-15.3004 -377.9742,-148.8554 -521.4565,-305.0209 -63.9852,-69.6413 -115.3547,-142.0781 -192.2007,-271.025 -119.201,-200.0179 -188.5372,-263.28 -316.6809,-288.9385 -65.6892,-13.1532 -212.1695,-8.9672 -275.2715,7.8665 -152.6908,40.7331 -241.2948,117.6367 -373.4069,324.0976 -28.0959,43.9073 -68.9863,103.8965 -90.8675,133.3093 -91.7036,123.268 -248.8677,208.4972 -422.758,229.2594 -94.7316,11.3108 -199.6232,-8.5486 -278.1482,-52.6624 -17.2858,-9.7108 -54.5715,-41.028 -82.8572,-69.5939 -41.3833,-41.7931 -58.5639,-64.7707 -87.9591,-117.6379 -76.3186,-137.2586 -127.6591,-182.8429 -205.9315,-182.8429 -44.871,0 -75.4418,12.5516 -161.0448,66.1208 -92.2994,57.7599 -113.8009,66.8339 -158.2364,66.7792 -48.767,-0.06 -101.0173,-26.4976 -172.5425,-87.3025 -66.2543,-56.324 -107.1414,-84.0514 -148.5236,-100.7202 -100.1337,-40.3342 -235.4487,-29.0342 -318.795,26.6223 -58.3216,38.9456 -90.6389,90.5123 -149.5893,238.6906 -57.5118,144.562 -104.3812,193.1405 -205.5485,213.044 -19.0376,3.7454 -54.5587,5.6178 -78.9358,4.161 -56.4523,-3.3739 -83.5183,-16.1425 -184.3221,-86.9559 -127.1205,-89.3005 -225.04778,-134.9411 -369.08698,-172.0189 -173.09863,-44.5582 -336.7516,-36.6481 -521.79598,25.2208 -108.42584,36.2517 -239.123727,102.4143 -300.545567,152.1438 -12.5714283,10.1783 -43.428571,45.8578 -68.571428,79.2878 -45.647374,60.6928 -45.719739,60.7555 -49.439485,42.7806 -7.51897,-36.3337 -11.95022,-864.5911 -7.76537,-1451.44891 l 4.3042,-603.595457 543.59318,-3.667678 C 1068.658,-78.667662 7626.5201,-105.678 7628.4338,-104.04295 c 0.6977,0.59613 -3.3063,411.60709 -8.8971,913.35771 l -10.1663,912.27384 -14.1829,19.9335 c -39.164,55.0439 -93.4188,78.3524 -191.1274,82.1113 -86.2171,3.3168 -166.7411,-10.8366 -274.0377,-48.1664 -218.6697,-76.078 -255.612,-87.8052 -302.1771,-95.9243 -102.732,-17.9124 -144.2909,-9.7376 -251.1789,49.4085 -83.3017,46.0948 -140.3023,67.3118 -226.644,84.3625 -104.7429,20.6847 -167.0743,47.2963 -259.2903,110.7008 -28.676,19.7166 -80.424,55.3316 -114.9954,79.1444 -132.6337,91.3585 -219.0217,118.5803 -337.7812,106.4383 z"
       id="path4540"
       inkscape:connector-curvature="0"
       transform="matrix(0.26458333,0,0,0.26458333,0,-783)" />
    <path
       style="opacity:0.60799997;fill:#2d5af5;fill-opacity:0;stroke:#2d5af5;stroke-width:5.72328424;stroke-miterlimit:4;stroke-dasharray:none;stroke-opacity:0"
       d="m 5637.9555,2109.5972 c -149.6518,-15.3004 -377.9742,-148.8554 -521.4565,-305.0209 -63.9852,-69.6413 -115.3547,-142.0781 -192.2007,-271.025 -119.201,-200.0179 -188.5372,-263.28 -316.6809,-288.9385 -65.6892,-13.1532 -212.1695,-8.9672 -275.2715,7.8665 -152.6908,40.7331 -241.2948,117.6367 -373.4069,324.0976 -28.0959,43.9073 -68.9863,103.8965 -90.8675,133.3093 -91.7036,123.268 -248.8677,208.4972 -422.758,229.2594 -94.7316,11.3108 -199.6232,-8.5486 -278.1482,-52.6624 -17.2858,-9.7108 -54.5715,-41.028 -82.8572,-69.5939 -41.3833,-41.7931 -58.5639,-64.7707 -87.9591,-117.6379 -76.3186,-137.2586 -127.6591,-182.8429 -205.9315,-182.8429 -44.871,0 -75.4418,12.5516 -161.0448,66.1208 -92.2994,57.7599 -113.8009,66.8339 -158.2364,66.7792 -48.767,-0.06 -101.0173,-26.4976 -172.5425,-87.3025 -66.2543,-56.324 -107.1414,-84.0514 -148.5236,-100.7202 -100.1337,-40.3342 -235.4487,-29.0342 -318.795,26.6223 -58.3216,38.9456 -90.6389,90.5123 -149.5893,238.6906 -57.5118,144.562 -104.3812,193.1405 -205.5485,213.044 -19.0376,3.7454 -54.5587,5.6178 -78.9358,4.161 -56.4523,-3.3739 -83.5183,-16.1425 -184.3221,-86.9559 -127.1205,-89.3005 -225.04778,-134.9411 -369.08698,-172.0189 -173.09863,-44.5582 -336.7516,-36.6481 -521.79598,25.2208 -108.42584,36.2517 -239.123727,102.4143 -300.545567,152.1438 -12.5714283,10.1783 -43.428571,45.8578 -68.571428,79.2878 -45.647374,60.6928 -45.719739,60.7555 -49.439485,42.7806 -7.51897,-36.3337 -11.95022,-864.5911 -7.76537,-1451.44891 l 4.3042,-603.595457 543.59318,-3.667678 C 1068.658,-78.667662 7626.5201,-105.678 7628.4338,-104.04295 c 0.6977,0.59613 -3.3063,411.60709 -8.8971,913.35771 l -10.1663,912.27384 -14.1829,19.9335 c -39.164,55.0439 -93.4188,78.3524 -191.1274,82.1113 -86.2171,3.3168 -166.7411,-10.8366 -274.0377,-48.1664 -218.6697,-76.078 -255.612,-87.8052 -302.1771,-95.9243 -102.732,-17.9124 -144.2909,-9.7376 -251.1789,49.4085 -83.3017,46.0948 -140.3023,67.3118 -226.644,84.3625 -104.7429,20.6847 -167.0743,47.2963 -259.2903,110.7008 -28.676,19.7166 -80.424,55.3316 -114.9954,79.1444 -132.6337,91.3585 -219.0217,118.5803 -337.7812,106.4383 z"
       id="path4542"
       inkscape:connector-curvature="0"
       transform="matrix(0.26458333,0,0,0.26458333,0,-783)" />
    <path
       style="opacity:0.597;fill:url(#linearGradient4597);fill-opacity:1;stroke:#2d5af5;stroke-width:0;stroke-miterlimit:4;stroke-dasharray:none;stroke-dashoffset:0;stroke-opacity:0"
       d="m 1411.5282,-231.25022 c -39.5954,-4.04823 -100.0057,-39.38465 -137.9687,-80.70344 -16.9294,-18.42593 -30.5209,-37.5915 -50.8531,-71.7087 -31.5386,-52.9214 -49.8838,-69.6595 -83.7885,-76.44831 -17.3803,-3.48012 -56.1365,-2.37257 -72.8323,2.08135 -40.3994,10.77729 -63.8425,31.12471 -98.79719,85.75082 -7.43371,11.61714 -18.25263,27.48928 -24.04203,35.27142 -24.26324,32.61465 -65.84624,55.16488 -111.85472,60.65821 -25.0644,2.99265 -52.81697,-2.26182 -73.59338,-13.93359 -4.57353,-2.56932 -14.43871,-10.85533 -21.92263,-18.41339 -10.94933,-11.05775 -15.49503,-17.13724 -23.27251,-31.12502 -20.19263,-36.31634 -33.77647,-48.37719 -54.48604,-48.37719 -11.87212,0 -19.96065,3.32095 -42.60977,17.49446 -24.42089,15.28231 -30.10982,17.68314 -41.86672,17.66867 -12.90293,-0.0159 -26.72749,-7.01083 -45.65187,-23.09879 -17.52978,-14.90239 -28.34782,-22.2386 -39.29686,-26.64889 -26.49371,-10.67175 -62.29581,-7.68196 -84.34785,7.04382 -15.43092,10.30436 -23.98154,23.94805 -39.57883,63.15355 -15.21667,38.2487 -27.61753,51.10176 -54.38471,56.3679 -5.03703,0.99097 -14.43532,1.48637 -20.8851,1.10093 -14.93633,-0.89268 -22.09755,-4.27104 -48.76855,-23.00708 -33.63397,-23.62743 -59.54389,-35.70317 -97.65426,-45.51334 -45.799015,-11.78935 -89.098863,-9.69647 -138.0585214,6.67301 -28.6876696,9.59159 -63.2681516,27.09711 -79.5193466,40.25471 -3.326191,2.69301 -11.490476,12.13321 -18.142857,20.97823 -12.077535,16.0583 -12.096685,16.07489 -13.080865,11.31903 -1.98939,-9.61329 -3.16183,-228.75639 -2.05459,-384.02918 l 1.13882,-159.7013 143.825697,-0.97041 c 165.387313,-1.11588 1900.488283,-8.26237 1900.994683,-7.82976 0.1846,0.15773 -0.8748,108.90438 -2.3541,241.65923 l -2.6898,241.37245 -3.7526,5.27407 c -10.3621,14.5637 -24.717,20.73074 -50.5691,21.72528 -22.8116,0.87757 -44.1169,-2.86718 -72.5058,-12.74403 -57.8563,-20.12897 -67.6307,-23.23179 -79.951,-25.37997 -27.1812,-4.73932 -38.177,-2.5764 -66.4578,13.07267 -22.0402,12.19591 -37.1216,17.80958 -59.9662,22.32091 -27.7132,5.47283 -44.2051,12.51381 -68.6039,29.28958 -7.5872,5.21669 -21.2788,14.63982 -30.4258,20.94029 -35.0927,24.17194 -57.9495,31.37437 -89.3713,28.1618 z"
       id="path4544"
       inkscape:connector-curvature="0" />
  </g>
  <g
     inkscape:groupmode="layer"
     id="layer2"
     inkscape:label="Layer 2">
    <path
       style="fill:url(#linearGradient4579);stroke:#000000;stroke-width:0.26458332;stroke-linecap:butt;stroke-linejoin:miter;stroke-opacity:1;fill-opacity:1;opacity:0.611;stroke-miterlimit:4;stroke-dasharray:0,2.91041649;stroke-dashoffset:0"
       d="M -31.75,348.23807 C 37.797617,458.6071 89.202384,559.90471 89.202384,559.90471 c 0,0 71.059516,148.16669 148.166666,140.60715 77.10713,-7.55952 80.13095,-99.7857 217.71428,-108.85713 137.58333,-9.07145 146.65475,-40.82145 184.45239,-87.69048 37.7976,-46.86906 110.36903,-71.05951 167.82142,-52.91666 57.45237,18.14284 55.94046,102.80951 149.67857,140.60714 93.73809,37.79761 125.48809,-105.83333 211.66669,-105.83333 86.1785,0 169.3333,58.96428 205.619,199.57142 36.2857,140.60713 157.9401,100.89345 225.2738,57.45237 46.8691,-30.2381 108.8572,-257.02379 108.8572,-257.02379 0,0 13.6071,-231.32143 123.9762,-243.41667 110.369,-12.09524 139.0952,-90.71429 139.0952,-90.71429 l 7.5595,-320.5238 -2054.678538,74.083331 10e-7,380.999979 z"
       id="path4557"
       inkscape:connector-curvature="0"
       sodipodi:nodetypes="ccsssssssscsccccc" />
    <path
       style="opacity:0.89899998;fill:url(#linearGradient4595);fill-opacity:1;stroke:#000000;stroke-width:0.26499999;stroke-linecap:butt;stroke-linejoin:miter;stroke-miterlimit:4;stroke-dasharray:0, 2.91499986;stroke-dashoffset:0;stroke-opacity:1"
       d="m -37.797582,564.44043 c 10.583334,0 43.845238,-48.38094 90.714281,-34.77381 46.869051,13.60715 33.261911,37.79763 96.761911,43.84524 63.5,6.04763 71.05952,-51.40476 128.51191,-21.16667 57.45237,30.23809 60.47618,120.95239 123.97618,125.48809 63.5,4.53573 51.40476,-74.08333 151.19048,-74.08333 99.7857,0 196.54761,71.05954 196.54761,71.05954 0,0 108.85715,80.13094 190.5,-39.30954 81.64281,-119.44046 125.48801,-167.82142 173.86901,-193.52379 48.3809,-25.70239 95.25,-9.07142 117.9286,27.21427 22.6785,36.28573 22.6785,169.33334 108.8571,207.13097 86.1786,37.79761 122.4643,13.60712 175.381,-1.51191 52.9166,-15.11906 87.5226,-137.86015 166.5819,-124.79891 116.4796,19.24341 56.7221,-88.07347 146.136,-185.62128 83.794,-91.41663 140.733,-74.55221 140.733,-74.55221 l 9.1919,-458.67045 -2054.678501,74.083328 z"
       id="path4581"
       inkscape:connector-curvature="0"
       sodipodi:nodetypes="cssssscsccscsscccc" />
  </g>
</svg>
