<?xml version="1.0" encoding="UTF-8" standalone="no"?>
<!-- Created with Inkscape (http://www.inkscape.org/) -->

<svg
   xmlns:dc="http://purl.org/dc/elements/1.1/"
   xmlns:cc="http://creativecommons.org/ns#"
   xmlns:rdf="http://www.w3.org/1999/02/22-rdf-syntax-ns#"
   xmlns:svg="http://www.w3.org/2000/svg"
   xmlns="http://www.w3.org/2000/svg"
   xmlns:xlink="http://www.w3.org/1999/xlink"
   xmlns:sodipodi="http://sodipodi.sourceforge.net/DTD/sodipodi-0.dtd"
   xmlns:inkscape="http://www.inkscape.org/namespaces/inkscape"
   width="1920mm"
   height="1080mm"
   viewBox="0 0 1920 1080"
   version="1.1"
   id="svg8"
   inkscape:version="0.92.3 (2405546, 2018-03-11)"
   sodipodi:docname="background_waves_4.svg">
  <defs
     id="defs2">
    <linearGradient
       inkscape:collect="always"
       id="linearGradient4587">
      <stop
         style="stop-color:#2d5af5;stop-opacity:1;"
         offset="0"
         id="stop4583" />
      <stop
         style="stop-color:#2d5af5;stop-opacity:0;"
         offset="1"
         id="stop4585" />
    </linearGradient>
    <linearGradient
       inkscape:collect="always"
       id="linearGradient4573">
      <stop
         style="stop-color:#2d5af5;stop-opacity:1;"
         offset="0"
         id="stop4569" />
      <stop
         style="stop-color:#2d5af5;stop-opacity:0;"
         offset="1"
         id="stop4571" />
    </linearGradient>
    <linearGradient
       inkscape:collect="always"
       id="linearGradient4563">
      <stop
         style="stop-color:#2d5af5;stop-opacity:0.988"
         offset="0"
         id="stop4559" />
      <stop
         style="stop-color:#2d5af5;stop-opacity:0;"
         offset="1"
         id="stop4561" />
    </linearGradient>
    <linearGradient
       inkscape:collect="always"
       xlink:href="#linearGradient4563"
       id="linearGradient4567"
       gradientUnits="userSpaceOnUse"
       x1="3616.9126"
       y1="-744.47534"
       x2="3579.9458"
       y2="2866.9534" />
    <linearGradient
       inkscape:collect="always"
       xlink:href="#linearGradient4573"
       id="linearGradient4579"
       gradientUnits="userSpaceOnUse"
       x1="953.87964"
       y1="-221.93584"
       x2="949.61176"
       y2="902.92133"
       gradientTransform="translate(-13.607106,143.63095)" />
    <linearGradient
       inkscape:collect="always"
       xlink:href="#linearGradient4587"
       id="linearGradient4595"
       gradientUnits="userSpaceOnUse"
       x1="926.65784"
       y1="-202.55214"
       x2="910.31122"
       y2="801.3526"
       gradientTransform="translate(10.583371,208.64286)" />
    <linearGradient
       inkscape:collect="always"
       xlink:href="#linearGradient4563"
       id="linearGradient4597"
       gradientUnits="userSpaceOnUse"
       x1="3616.9126"
       y1="-744.47534"
       x2="3579.9458"
       y2="2866.9534"
       gradientTransform="matrix(0.26458333,0,0,0.26458333,-93.701686,-555.40056)" />
  </defs>
  <sodipodi:namedview
     id="base"
     pagecolor="#ffffff"
     bordercolor="#666666"
     borderopacity="1.0"
     inkscape:pageopacity="0.0"
     inkscape:pageshadow="2"
     inkscape:zoom="0.175"
     inkscape:cx="2680.6866"
     inkscape:cy="2315.4815"
     inkscape:document-units="mm"
     inkscape:current-layer="layer2"
     showgrid="false"
     inkscape:window-width="2560"
     inkscape:window-height="1377"
     inkscape:window-x="-8"
     inkscape:window-y="-8"
     inkscape:window-maximized="1" />
  <metadata
     id="metadata5">
    <rdf:RDF>
      <cc:Work
         rdf:about="">
        <dc:format>image/svg+xml</dc:format>
        <dc:type
           rdf:resource="http://purl.org/dc/dcmitype/StillImage" />
        <dc:title></dc:title>
      </cc:Work>
    </rdf:RDF>
  </metadata>
  <g
     inkscape:label="Layer 1"
     inkscape:groupmode="layer"
     id="layer1"
     transform="translate(0,783)">
    <path
       style="fill:none;fill-opacity:1;stroke:#2d5af5;stroke-width:5.72328424;stroke-miterlimit:4;stroke-dasharray:none;stroke-opacity:0;opacity:0.764"
       d="m 5637.9555,2109.5972 c -149.6518,-15.3004 -377.9742,-148.8554 -521.4565,-305.0209 -63.9852,-69.6413 -115.3547,-142.0781 -192.2007,-271.025 -119.201,-200.0179 -188.5372,-263.28 -316.6809,-288.9385 -65.6892,-13.1532 -212.1695,-8.9672 -275.2715,7.8665 -152.6908,40.7331 -241.2948,117.6367 -373.4069,324.0976 -28.0959,43.9073 -68.9863,103.8965 -90.8675,133.3093 -91.7036,123.268 -248.8677,208.4972 -422.758,229.2594 -94.7316,11.3108 -199.6232,-8.5486 -278.1482,-52.6624 -17.2858,-9.7108 -54.5715,-41.028 -82.8572,-69.5939 -41.3833,-41.7931 -58.5639,-64.7707 -87.9591,-117.6379 -76.3186,-137.2586 -127.6591,-182.8429 -205.9315,-182.8429 -44.871,0 -75.4418,12.5516 -161.0448,66.1208 -92.2994,57.7599 -113.8009,66.8339 -158.2364,66.7792 -48.767,-0.06 -101.0173,-26.4976 -172.5425,-87.3025 -66.2543,-56.324 -107.1414,-84.0514 -148.5236,-100.7202 -100.1337,-40.3342 -235.4487,-29.0342 -318.795,26.6223 -58.3216,38.9456 -90.6389,90.5123 -149.5893,238.6906 -57.5118,144.562 -104.3812,193.1405 -205.5485,213.044 -19.0376,3.7454 -54.5587,5.6178 -78.9358,4.161 -56.4523,-3.3739 -83.5183,-16.1425 -184.3221,-86.9559 -127.1205,-89.3005 -225.04778,-134.9411 -369.08698,-172.0189 -173.09863,-44.5582 -336.7516,-36.6481 -521.79598,25.2208 -108.42584,36.2517 -239.123727,102.4143 -300.545567,152.1438 -12.5714283,10.1783 -43.428571,45.8578 -68.571428,79.2878 -45.647374,60.6928 -45.719739,60.7555 -49.439485,42.7806 -7.51897,-36.3337 -11.95022,-864.5911 -7.76537,-1451.44891 l 4.3042,-603.595457 543.59318,-3.667678 C 1068.658,-78.667662 7626.5201,-105.678 7628.4338,-104.04295 c 0.6977,0.59613 -3.3063,411.60709 -8.8971,913.35771 l -10.1663,912.27384 -14.1829,19.9335 c -39.164,55.0439 -93.4188,78.3524 -191.1274,82.1113 -86.2171,3.3168 -166.7411,-10.8366 -274.0377,-48.1664 -218.6697,-76.078 -255.612,-87.8052 -302.1771,-95.9243 -102.732,-17.9124 -144.2909,-9.7376 -251.1789,49.4085 -83.3017,46.0948 -140.3023,67.3118 -226.644,84.3625 -104.7429,20.6847 -167.0743,47.2963 -259.2903,110.7008 -28.676,19.7166 -80.424,55.3316 -114.9954,79.1444 -132.6337,91.3585 -219.0217,118.5803 -337.7812,106.4383 z"
       id="path4520"
       inkscape:connector-curvature="0"
       transform="matrix(0.26458333,0,0,0.26458333,0,-783)" />
    <path
       style="opacity:0.608;fill:none;fill-opacity:1;stroke:#2d5af5;stroke-width:5.72328424;stroke-miterlimit:4;stroke-dasharray:none;stroke-opacity:0"
       d="m 5637.9555,2109.5972 c -149.6518,-15.3004 -377.9742,-148.8554 -521.4565,-305.0209 -63.9852,-69.6413 -115.3547,-142.0781 -192.2007,-271.025 -119.201,-200.0179 -188.5372,-263.28 -316.6809,-288.9385 -65.6892,-13.1532 -212.1695,-8.9672 -275.2715,7.8665 -152.6908,40.7331 -241.2948,117.6367 -373.4069,324.0976 -28.0959,43.9073 -68.9863,103.8965 -90.8675,133.3093 -91.7036,123.268 -248.8677,208.4972 -422.758,229.2594 -94.7316,11.3108 -199.6232,-8.5486 -278.1482,-52.6624 -17.2858,-9.7108 -54.5715,-41.028 -82.8572,-69.5939 -41.3833,-41.7931 -58.5639,-64.7707 -87.9591,-117.6379 -76.3186,-137.2586 -127.6591,-182.8429 -205.9315,-182.8429 -44.871,0 -75.4418,12.5516 -161.0448,66.1208 -92.2994,57.7599 -113.8009,66.8339 -158.2364,66.7792 -48.767,-0.06 -101.0173,-26.4976 -172.5425,-87.3025 -66.2543,-56.324 -107.1414,-84.0514 -148.5236,-100.7202 -100.1337,-40.3342 -235.4487,-29.0342 -318.795,26.6223 -58.3216,38.9456 -90.6389,90.5123 -149.5893,238.6906 -57.5118,144.562 -104.3812,193.1405 -205.5485,213.044 -19.0376,3.7454 -54.5587,5.6178 -78.9358,4.161 -56.4523,-3.3739 -83.5183,-16.1425 -184.3221,-86.9559 -127.1205,-89.3005 -225.04778,-134.9411 -369.08698,-172.0189 -173.09863,-44.5582 -336.7516,-36.6481 -521.79598,25.2208 -108.42584,36.2517 -239.123727,102.4143 -300.545567,152.1438 -12.5714283,10.1783 -43.428571,45.8578 -68.571428,79.2878 -45.647374,60.6928 -45.719739,60.7555 -49.439485,42.7806 -7.51897,-36.3337 -11.95022,-864.5911 -7.76537,-1451.44891 l 4.3042,-603.595457 543.59318,-3.667678 C 1068.658,-78.667662 7626.5201,-105.678 7628.4338,-104.04295 c 0.6977,0.59613 -3.3063,411.60709 -8.8971,913.35771 l -10.1663,912.27384 -14.1829,19.9335 c -39.164,55.0439 -93.4188,78.3524 -191.1274,82.1113 -86.2171,3.3168 -166.7411,-10.8366 -274.0377,-48.1664 -218.6697,-76.078 -255.612,-87.8052 -302.1771,-95.9243 -102.732,-17.9124 -144.2909,-9.7376 -251.1789,49.4085 -83.3017,46.0948 -140.3023,67.3118 -226.644,84.3625 -104.7429,20.6847 -167.0743,47.2963 -259.2903,110.7008 -28.676,19.7166 -80.424,55.3316 -114.9954,79.1444 -132.6337,91.3585 -219.0217,118.5803 -337.7812,106.4383 z"
       id="path4522"
       inkscape:connector-curvature="0"
       transform="matrix(0.26458333,0,0,0.26458333,0,-783)" />
    <path
       style="opacity:0.60799997;fill:none;fill-opacity:1;stroke:#2d5af5;stroke-width:5.72328424;stroke-miterlimit:4;stroke-dasharray:none;stroke-opacity:0"
       d="m 5637.9555,2109.5972 c -149.6518,-15.3004 -377.9742,-148.8554 -521.4565,-305.0209 -63.9852,-69.6413 -115.3547,-142.0781 -192.2007,-271.025 -119.201,-200.0179 -188.5372,-263.28 -316.6809,-288.9385 -65.6892,-13.1532 -212.1695,-8.9672 -275.2715,7.8665 -152.6908,40.7331 -241.2948,117.6367 -373.4069,324.0976 -28.0959,43.9073 -68.9863,103.8965 -90.8675,133.3093 -91.7036,123.268 -248.8677,208.4972 -422.758,229.2594 -94.7316,11.3108 -199.6232,-8.5486 -278.1482,-52.6624 -17.2858,-9.7108 -54.5715,-41.028 -82.8572,-69.5939 -41.3833,-41.7931 -58.5639,-64.7707 -87.9591,-117.6379 -76.3186,-137.2586 -127.6591,-182.8429 -205.9315,-182.8429 -44.871,0 -75.4418,12.5516 -161.0448,66.1208 -92.2994,57.7599 -113.8009,66.8339 -158.2364,66.7792 -48.767,-0.06 -101.0173,-26.4976 -172.5425,-87.3025 -66.2543,-56.324 -107.1414,-84.0514 -148.5236,-100.7202 -100.1337,-40.3342 -235.4487,-29.0342 -318.795,26.6223 -58.3216,38.9456 -90.6389,90.5123 -149.5893,238.6906 -57.5118,144.562 -104.3812,193.1405 -205.5485,213.044 -19.0376,3.7454 -54.5587,5.6178 -78.9358,4.161 -56.4523,-3.3739 -83.5183,-16.1425 -184.3221,-86.9559 -127.1205,-89.3005 -225.04778,-134.9411 -369.08698,-172.0189 -173.09863,-44.5582 -336.7516,-36.6481 -521.79598,25.2208 -108.42584,36.2517 -239.123727,102.4143 -300.545567,152.1438 -12.5714283,10.1783 -43.428571,45.8578 -68.571428,79.2878 -45.647374,60.6928 -45.719739,60.7555 -49.439485,42.7806 -7.51897,-36.3337 -11.95022,-864.5911 -7.76537,-1451.44891 l 4.3042,-603.595457 543.59318,-3.667678 C 1068.658,-78.667662 7626.5201,-105.678 7628.4338,-104.04295 c 0.6977,0.59613 -3.3063,411.60709 -8.8971,913.35771 l -10.1663,912.27384 -14.1829,19.9335 c -39.164,55.0439 -93.4188,78.3524 -191.1274,82.1113 -86.2171,3.3168 -166.7411,-10.8366 -274.0377,-48.1664 -218.6697,-76.078 -255.612,-87.8052 -302.1771,-95.9243 -102.732,-17.9124 -144.2909,-9.7376 -251.1789,49.4085 -83.3017,46.0948 -140.3023,67.3118 -226.644,84.3625 -104.7429,20.6847 -167.0743,47.2963 -259.2903,110.7008 -28.676,19.7166 -80.424,55.3316 -114.9954,79.1444 -132.6337,91.3585 -219.0217,118.5803 -337.7812,106.4383 z"
       id="path4524"
       inkscape:connector-curvature="0"
       transform="matrix(0.26458333,0,0,0.26458333,0,-783)" />
    <path
       style="opacity:0.60799997;fill:none;fill-opacity:1;stroke:#2d5af5;stroke-width:5.72328424;stroke-miterlimit:4;stroke-dasharray:none;stroke-opacity:0"
       d="m 5637.9555,2109.5972 c -149.6518,-15.3004 -377.9742,-148.8554 -521.4565,-305.0209 -63.9852,-69.6413 -115.3547,-142.0781 -192.2007,-271.025 -119.201,-200.0179 -188.5372,-263.28 -316.6809,-288.9385 -65.6892,-13.1532 -212.1695,-8.9672 -275.2715,7.8665 -152.6908,40.7331 -241.2948,117.6367 -373.4069,324.0976 -28.0959,43.9073 -68.9863,103.8965 -90.8675,133.3093 -91.7036,123.268 -248.8677,208.4972 -422.758,229.2594 -94.7316,11.3108 -199.6232,-8.5486 -278.1482,-52.6624 -17.2858,-9.7108 -54.5715,-41.028 -82.8572,-69.5939 -41.3833,-41.7931 -58.5639,-64.7707 -87.9591,-117.6379 -76.3186,-137.2586 -127.6591,-182.8429 -205.9315,-182.8429 -44.871,0 -75.4418,12.5516 -161.0448,66.1208 -92.2994,57.7599 -113.8009,66.8339 -158.2364,66.7792 -48.767,-0.06 -101.0173,-26.4976 -172.5425,-87.3025 -66.2543,-56.324 -107.1414,-84.0514 -148.5236,-100.7202 -100.1337,-40.3342 -235.4487,-29.0342 -318.795,26.6223 -58.3216,38.9456 -90.6389,90.5123 -149.5893,238.6906 -57.5118,144.562 -104.3812,193.1405 -205.5485,213.044 -19.0376,3.7454 -54.5587,5.6178 -78.9358,4.161 -56.4523,-3.3739 -83.5183,-16.1425 -184.3221,-86.9559 -127.1205,-89.3005 -225.04778,-134.9411 -369.08698,-172.0189 -173.09863,-44.5582 -336.7516,-36.6481 -521.79598,25.2208 -108.42584,36.2517 -239.123727,102.4143 -300.545567,152.1438 -12.5714283,10.1783 -43.428571,45.8578 -68.571428,79.2878 -45.647374,60.6928 -45.719739,60.7555 -49.439485,42.7806 -7.51897,-36.3337 -11.95022,-864.5911 -7.76537,-1451.44891 l 4.3042,-603.595457 543.59318,-3.667678 C 1068.658,-78.667662 7626.5201,-105.678 7628.4338,-104.04295 c 0.6977,0.59613 -3.3063,411.60709 -8.8971,913.35771 l -10.1663,912.27384 -14.1829,19.9335 c -39.164,55.0439 -93.4188,78.3524 -191.1274,82.1113 -86.2171,3.3168 -166.7411,-10.8366 -274.0377,-48.1664 -218.6697,-76.078 -255.612,-87.8052 -302.1771,-95.9243 -102.732,-17.9124 -144.2909,-9.7376 -251.1789,49.4085 -83.3017,46.0948 -140.3023,67.3118 -226.644,84.3625 -104.7429,20.6847 -167.0743,47.2963 -259.2903,110.7008 -28.676,19.7166 -80.424,55.3316 -114.9954,79.1444 -132.6337,91.3585 -219.0217,118.5803 -337.7812,106.4383 z"
       id="path4526"
       inkscape:connector-curvature="0"
       transform="matrix(0.26458333,0,0,0.26458333,0,-783)" />
    <path
       style="opacity:0.60799997;fill:none;fill-opacity:1;stroke:#2d5af5;stroke-width:5.72328424;stroke-miterlimit:4;stroke-dasharray:none;stroke-opacity:0"
       d="m 5637.9555,2109.5972 c -149.6518,-15.3004 -377.9742,-148.8554 -521.4565,-305.0209 -63.9852,-69.6413 -115.3547,-142.0781 -192.2007,-271.025 -119.201,-200.0179 -188.5372,-263.28 -316.6809,-288.9385 -65.6892,-13.1532 -212.1695,-8.9672 -275.2715,7.8665 -152.6908,40.7331 -241.2948,117.6367 -373.4069,324.0976 -28.0959,43.9073 -68.9863,103.8965 -90.8675,133.3093 -91.7036,123.268 -248.8677,208.4972 -422.758,229.2594 -94.7316,11.3108 -199.6232,-8.5486 -278.1482,-52.6624 -17.2858,-9.7108 -54.5715,-41.028 -82.8572,-69.5939 -41.3833,-41.7931 -58.5639,-64.7707 -87.9591,-117.6379 -76.3186,-137.2586 -127.6591,-182.8429 -205.9315,-182.8429 -44.871,0 -75.4418,12.5516 -161.0448,66.1208 -92.2994,57.7599 -113.8009,66.8339 -158.2364,66.7792 -48.767,-0.06 -101.0173,-26.4976 -172.5425,-87.3025 -66.2543,-56.324 -107.1414,-84.0514 -148.5236,-100.7202 -100.1337,-40.3342 -235.4487,-29.0342 -318.795,26.6223 -58.3216,38.9456 -90.6389,90.5123 -149.5893,238.6906 -57.5118,144.562 -104.3812,193.1405 -205.5485,213.044 -19.0376,3.7454 -54.5587,5.6178 -78.9358,4.161 -56.4523,-3.3739 -83.5183,-16.1425 -184.3221,-86.9559 -127.1205,-89.3005 -225.04778,-134.9411 -369.08698,-172.0189 -173.09863,-44.5582 -336.7516,-36.6481 -521.79598,25.2208 -108.42584,36.2517 -239.123727,102.4143 -300.545567,152.1438 -12.5714283,10.1783 -43.428571,45.8578 -68.571428,79.2878 -45.647374,60.6928 -45.719739,60.7555 -49.439485,42.7806 -7.51897,-36.3337 -11.95022,-864.5911 -7.76537,-1451.44891 l 4.3042,-603.595457 543.59318,-3.667678 C 1068.658,-78.667662 7626.5201,-105.678 7628.4338,-104.04295 c 0.6977,0.59613 -3.3063,411.60709 -8.8971,913.35771 l -10.1663,912.27384 -14.1829,19.9335 c -39.164,55.0439 -93.4188,78.3524 -191.1274,82.1113 -86.2171,3.3168 -166.7411,-10.8366 -274.0377,-48.1664 -218.6697,-76.078 -255.612,-87.8052 -302.1771,-95.9243 -102.732,-17.9124 -144.2909,-9.7376 -251.1789,49.4085 -83.3017,46.0948 -140.3023,67.3118 -226.644,84.3625 -104.7429,20.6847 -167.0743,47.2963 -259.2903,110.7008 -28.676,19.7166 -80.424,55.3316 -114.9954,79.1444 -132.6337,91.3585 -219.0217,118.5803 -337.7812,106.4383 z"
       id="path4528"
       inkscape:connector-curvature="0"
       transform="matrix(0.26458333,0,0,0.26458333,0,-783)" />
    <path
       style="opacity:0.60799997;fill:#2d5af5;fill-opacity:0;stroke:#2d5af5;stroke-width:5.72328424;stroke-miterlimit:4;stroke-dasharray:none;stroke-opacity:0"
       d="m 5637.9555,2109.5972 c -149.6518,-15.3004 -377.9742,-148.8554 -521.4565,-305.0209 -63.9852,-69.6413 -115.3547,-142.0781 -192.2007,-271.025 -119.201,-200.0179 -188.5372,-263.28 -316.6809,-288.9385 -65.6892,-13.1532 -212.1695,-8.9672 -275.2715,7.8665 -152.6908,40.7331 -241.2948,117.6367 -373.4069,324.0976 -28.0959,43.9073 -68.9863,103.8965 -90.8675,133.3093 -91.7036,123.268 -248.8677,208.4972 -422.758,229.2594 -94.7316,11.3108 -199.6232,-8.5486 -278.1482,-52.6624 -17.2858,-9.7108 -54.5715,-41.028 -82.8572,-69.5939 -41.3833,-41.7931 -58.5639,-64.7707 -87.9591,-117.6379 -76.3186,-137.2586 -127.6591,-182.8429 -205.9315,-182.8429 -44.871,0 -75.4418,12.5516 -161.0448,66.1208 -92.2994,57.7599 -113.8009,66.8339 -158.2364,66.7792 -48.767,-0.06 -101.0173,-26.4976 -172.5425,-87.3025 -66.2543,-56.324 -107.1414,-84.0514 -148.5236,-100.7202 -100.1337,-40.3342 -235.4487,-29.0342 -318.795,26.6223 -58.3216,38.9456 -90.6389,90.5123 -149.5893,238.6906 -57.5118,144.562 -104.3812,193.1405 -205.5485,213.044 -19.0376,3.7454 -54.5587,5.6178 -78.9358,4.161 -56.4523,-3.3739 -83.5183,-16.1425 -184.3221,-86.9559 -127.1205,-89.3005 -225.04778,-134.9411 -369.08698,-172.0189 -173.09863,-44.5582 -336.7516,-36.6481 -521.79598,25.2208 -108.42584,36.2517 -239.123727,102.4143 -300.545567,152.1438 -12.5714283,10.1783 -43.428571,45.8578 -68.571428,79.2878 -45.647374,60.6928 -45.719739,60.7555 -49.439485,42.7806 -7.51897,-36.3337 -11.95022,-864.5911 -7.76537,-1451.44891 l 4.3042,-603.595457 543.59318,-3.667678 C 1068.658,-78.667662 7626.5201,-105.678 7628.4338,-104.04295 c 0.6977,0.59613 -3.3063,411.60709 -8.8971,913.35771 l -10.1663,912.27384 -14.1829,19.9335 c -39.164,55.0439 -93.4188,78.3524 -191.1274,82.1113 -86.2171,3.3168 -166.7411,-10.8366 -274.0377,-48.1664 -218.6697,-76.078 -255.612,-87.8052 -302.1771,-95.9243 -102.732,-17.9124 -144.2909,-9.7376 -251.1789,49.4085 -83.3017,46.0948 -140.3023,67.3118 -226.644,84.3625 -104.7429,20.6847 -167.0743,47.2963 -259.2903,110.7008 -28.676,19.7166 -80.424,55.3316 -114.9954,79.1444 -132.6337,91.3585 -219.0217,118.5803 -337.7812,106.4383 z"
       id="path4530"
       inkscape:connector-curvature="0"
       transform="matrix(0.26458333,0,0,0.26458333,0,-783)" />
    <path
       style="opacity:0.60799997;fill:#2d5af5;fill-opacity:0;stroke:#2d5af5;stroke-width:5.72328424;stroke-miterlimit:4;stroke-dasharray:none;stroke-opacity:0"
       d="m 5637.9555,2109.5972 c -149.6518,-15.3004 -377.9742,-148.8554 -521.4565,-305.0209 -63.9852,-69.6413 -115.3547,-142.0781 -192.2007,-271.025 -119.201,-200.0179 -188.5372,-263.28 -316.6809,-288.9385 -65.6892,-13.1532 -212.1695,-8.9672 -275.2715,7.8665 -152.6908,40.7331 -241.2948,117.6367 -373.4069,324.0976 -28.0959,43.9073 -68.9863,103.8965 -90.8675,133.3093 -91.7036,123.268 -248.8677,208.4972 -422.758,229.2594 -94.7316,11.3108 -199.6232,-8.5486 -278.1482,-52.6624 -17.2858,-9.7108 -54.5715,-41.028 -82.8572,-69.5939 -41.3833,-41.7931 -58.5639,-64.7707 -87.9591,-117.6379 -76.3186,-137.2586 -127.6591,-182.8429 -205.9315,-182.8429 -44.871,0 -75.4418,12.5516 -161.0448,66.1208 -92.2994,57.7599 -113.8009,66.8339 -158.2364,66.7792 -48.767,-0.06 -101.0173,-26.4976 -172.5425,-87.3025 -66.2543,-56.324 -107.1414,-84.0514 -148.5236,-100.7202 -100.1337,-40.3342 -235.4487,-29.0342 -318.795,26.6223 -58.3216,38.9456 -90.6389,90.5123 -149.5893,238.6906 -57.5118,144.562 -104.3812,193.1405 -205.5485,213.044 -19.0376,3.7454 -54.5587,5.6178 -78.9358,4.161 -56.4523,-3.3739 -83.5183,-16.1425 -184.3221,-86.9559 -127.1205,-89.3005 -225.04778,-134.9411 -369.08698,-172.0189 -173.09863,-44.5582 -336.7516,-36.6481 -521.79598,25.2208 -108.42584,36.2517 -239.123727,102.4143 -300.545567,152.1438 -12.5714283,10.1783 -43.428571,45.8578 -68.571428,79.2878 -45.647374,60.6928 -45.719739,60.7555 -49.439485,42.7806 -7.51897,-36.3337 -11.95022,-864.5911 -7.76537,-1451.44891 l 4.3042,-603.595457 543.59318,-3.667678 C 1068.658,-78.667662 7626.5201,-105.678 7628.4338,-104.04295 c 0.6977,0.59613 -3.3063,411.60709 -8.8971,913.35771 l -10.1663,912.27384 -14.1829,19.9335 c -39.164,55.0439 -93.4188,78.3524 -191.1274,82.1113 -86.2171,3.3168 -166.7411,-10.8366 -274.0377,-48.1664 -218.6697,-76.078 -255.612,-87.8052 -302.1771,-95.9243 -102.732,-17.9124 -144.2909,-9.7376 -251.1789,49.4085 -83.3017,46.0948 -140.3023,67.3118 -226.644,84.3625 -104.7429,20.6847 -167.0743,47.2963 -259.2903,110.7008 -28.676,19.7166 -80.424,55.3316 -114.9954,79.1444 -132.6337,91.3585 -219.0217,118.5803 -337.7812,106.4383 z"
       id="path4532"
       inkscape:connector-curvature="0"
       transform="matrix(0.26458333,0,0,0.26458333,0,-783)" />
    <path
       style="opacity:0.60799997;fill:#2d5af5;fill-opacity:0;stroke:#2d5af5;stroke-width:5.72328424;stroke-miterlimit:4;stroke-dasharray:none;stroke-opacity:0"
       d="m 5637.9555,2109.5972 c -149.6518,-15.3004 -377.9742,-148.8554 -521.4565,-305.0209 -63.9852,-69.6413 -115.3547,-142.0781 -192.2007,-271.025 -119.201,-200.0179 -188.5372,-263.28 -316.6809,-288.9385 -65.6892,-13.1532 -212.1695,-8.9672 -275.2715,7.8665 -152.6908,40.7331 -241.2948,117.6367 -373.4069,324.0976 -28.0959,43.9073 -68.9863,103.8965 -90.8675,133.3093 -91.7036,123.268 -248.8677,208.4972 -422.758,229.2594 -94.7316,11.3108 -199.6232,-8.5486 -278.1482,-52.6624 -17.2858,-9.7108 -54.5715,-41.028 -82.8572,-69.5939 -41.3833,-41.7931 -58.5639,-64.7707 -87.9591,-117.6379 -76.3186,-137.2586 -127.6591,-182.8429 -205.9315,-182.8429 -44.871,0 -75.4418,12.5516 -161.0448,66.1208 -92.2994,57.7599 -113.8009,66.8339 -158.2364,66.7792 -48.767,-0.06 -101.0173,-26.4976 -172.5425,-87.3025 -66.2543,-56.324 -107.1414,-84.0514 -148.5236,-100.7202 -100.1337,-40.3342 -235.4487,-29.0342 -318.795,26.6223 -58.3216,38.9456 -90.6389,90.5123 -149.5893,238.6906 -57.5118,144.562 -104.3812,193.1405 -205.5485,213.044 -19.0376,3.7454 -54.5587,5.6178 -78.9358,4.161 -56.4523,-3.3739 -83.5183,-16.1425 -184.3221,-86.9559 -127.1205,-89.3005 -225.04778,-134.9411 -369.08698,-172.0189 -173.09863,-44.5582 -336.7516,-36.6481 -521.79598,25.2208 -108.42584,36.2517 -239.123727,102.4143 -300.545567,152.1438 -12.5714283,10.1783 -43.428571,45.8578 -68.571428,79.2878 -45.647374,60.6928 -45.719739,60.7555 -49.439485,42.7806 -7.51897,-36.3337 -11.95022,-864.5911 -7.76537,-1451.44891 l 4.3042,-603.595457 543.59318,-3.667678 C 1068.658,-78.667662 7626.5201,-105.678 7628.4338,-104.04295 c 0.6977,0.59613 -3.3063,411.60709 -8.8971,913.35771 l -10.1663,912.27384 -14.1829,19.9335 c -39.164,55.0439 -93.4188,78.3524 -191.1274,82.1113 -86.2171,3.3168 -166.7411,-10.8366 -274.0377,-48.1664 -218.6697,-76.078 -255.612,-87.8052 -302.1771,-95.9243 -102.732,-17.9124 -144.2909,-9.7376 -251.1789,49.4085 -83.3017,46.0948 -140.3023,67.3118 -226.644,84.3625 -104.7429,20.6847 -167.0743,47.2963 -259.2903,110.7008 -28.676,19.7166 -80.424,55.3316 -114.9954,79.1444 -132.6337,91.3585 -219.0217,118.5803 -337.7812,106.4383 z"
       id="path4534"
       inkscape:connector-curvature="0"
       transform="matrix(0.26458333,0,0,0.26458333,0,-783)" />
    <path
       style="opacity:0.60799997;fill:#2d5af5;fill-opacity:0;stroke:#2d5af5;stroke-width:5.72328424;stroke-miterlimit:4;stroke-dasharray:none;stroke-opacity:0"
       d="m 5637.9555,2109.5972 c -149.6518,-15.3004 -377.9742,-148.8554 -521.4565,-305.0209 -63.9852,-69.6413 -115.3547,-142.0781 -192.2007,-271.025 -119.201,-200.0179 -188.5372,-263.28 -316.6809,-288.9385 -65.6892,-13.1532 -212.1695,-8.9672 -275.2715,7.8665 -152.6908,40.7331 -241.2948,117.6367 -373.4069,324.0976 -28.0959,43.9073 -68.9863,103.8965 -90.8675,133.3093 -91.7036,123.268 -248.8677,208.4972 -422.758,229.2594 -94.7316,11.3108 -199.6232,-8.5486 -278.1482,-52.6624 -17.2858,-9.7108 -54.5715,-41.028 -82.8572,-69.5939 -41.3833,-41.7931 -58.5639,-64.7707 -87.9591,-117.6379 -76.3186,-137.2586 -127.6591,-182.8429 -205.9315,-182.8429 -44.871,0 -75.4418,12.5516 -161.0448,66.1208 -92.2994,57.7599 -113.8009,66.8339 -158.2364,66.7792 -48.767,-0.06 -101.0173,-26.4976 -172.5425,-87.3025 -66.2543,-56.324 -107.1414,-84.0514 -148.5236,-100.7202 -100.1337,-40.3342 -235.4487,-29.0342 -318.795,26.6223 -58.3216,38.9456 -90.6389,90.5123 -149.5893,238.6906 -57.5118,144.562 -104.3812,193.1405 -205.5485,213.044 -19.0376,3.7454 -54.5587,5.6178 -78.9358,4.161 -56.4523,-3.3739 -83.5183,-16.1425 -184.3221,-86.9559 -127.1205,-89.3005 -225.04778,-134.9411 -369.08698,-172.0189 -173.09863,-44.5582 -336.7516,-36.6481 -521.79598,25.2208 -108.42584,36.2517 -239.123727,102.4143 -300.545567,152.1438 -12.5714283,10.1783 -43.428571,45.8578 -68.571428,79.2878 -45.647374,60.6928 -45.719739,60.7555 -49.439485,42.7806 -7.51897,-36.3337 -11.95022,-864.5911 -7.76537,-1451.44891 l 4.3042,-603.595457 543.59318,-3.667678 C 1068.658,-78.667662 7626.5201,-105.678 7628.4338,-104.04295 c 0.6977,0.59613 -3.3063,411.60709 -8.8971,913.35771 l -10.1663,912.27384 -14.1829,19.9335 c -39.164,55.0439 -93.4188,78.3524 -191.1274,82.1113 -86.2171,3.3168 -166.7411,-10.8366 -274.0377,-48.1664 -218.6697,-76.078 -255.612,-87.8052 -302.1771,-95.9243 -102.732,-17.9124 -144.2909,-9.7376 -251.1789,49.4085 -83.3017,46.0948 -140.3023,67.3118 -226.644,84.3625 -104.7429,20.6847 -167.0743,47.2963 -259.2903,110.7008 -28.676,19.7166 -80.424,55.3316 -114.9954,79.1444 -132.6337,91.3585 -219.0217,118.5803 -337.7812,106.4383 z"
       id="path4536"
       inkscape:connector-curvature="0"
       transform="matrix(0.26458333,0,0,0.26458333,0,-783)" />
    <path
       style="opacity:0.60799997;fill:#2d5af5;fill-opacity:0;stroke:#2d5af5;stroke-width:5.72328424;stroke-miterlimit:4;stroke-dasharray:none;stroke-opacity:0"
       d="m 5637.9555,2109.5972 c -149.6518,-15.3004 -377.9742,-148.8554 -521.4565,-305.0209 -63.9852,-69.6413 -115.3547,-142.0781 -192.2007,-271.025 -119.201,-200.0179 -188.5372,-263.28 -316.6809,-288.9385 -65.6892,-13.1532 -212.1695,-8.9672 -275.2715,7.8665 -152.6908,40.7331 -241.2948,117.6367 -373.4069,324.0976 -28.0959,43.9073 -68.9863,103.8965 -90.8675,133.3093 -91.7036,123.268 -248.8677,208.4972 -422.758,229.2594 -94.7316,11.3108 -199.6232,-8.5486 -278.1482,-52.6624 -17.2858,-9.7108 -54.5715,-41.028 -82.8572,-69.5939 -41.3833,-41.7931 -58.5639,-64.7707 -87.9591,-117.6379 -76.3186,-137.2586 -127.6591,-182.8429 -205.9315,-182.8429 -44.871,0 -75.4418,12.5516 -161.0448,66.1208 -92.2994,57.7599 -113.8009,66.8339 -158.2364,66.7792 -48.767,-0.06 -101.0173,-26.4976 -172.5425,-87.3025 -66.2543,-56.324 -107.1414,-84.0514 -148.5236,-100.7202 -100.1337,-40.3342 -235.4487,-29.0342 -318.795,26.6223 -58.3216,38.9456 -90.6389,90.5123 -149.5893,238.6906 -57.5118,144.562 -104.3812,193.1405 -205.5485,213.044 -19.0376,3.7454 -54.5587,5.6178 -78.9358,4.161 -56.4523,-3.3739 -83.5183,-16.1425 -184.3221,-86.9559 -127.1205,-89.3005 -225.04778,-134.9411 -369.08698,-172.0189 -173.09863,-44.5582 -336.7516,-36.6481 -521.79598,25.2208 -108.42584,36.2517 -239.123727,102.4143 -300.545567,152.1438 -12.5714283,10.1783 -43.428571,45.8578 -68.571428,79.2878 -45.647374,60.6928 -45.719739,60.7555 -49.439485,42.7806 -7.51897,-36.3337 -11.95022,-864.5911 -7.76537,-1451.44891 l 4.3042,-603.595457 543.59318,-3.667678 C 1068.658,-78.667662 7626.5201,-105.678 7628.4338,-104.04295 c 0.6977,0.59613 -3.3063,411.60709 -8.8971,913.35771 l -10.1663,912.27384 -14.1829,19.9335 c -39.164,55.0439 -93.4188,78.3524 -191.1274,82.1113 -86.2171,3.3168 -166.7411,-10.8366 -274.0377,-48.1664 -218.6697,-76.078 -255.612,-87.8052 -302.1771,-95.9243 -102.732,-17.9124 -144.2909,-9.7376 -251.1789,49.4085 -83.3017,46.0948 -140.3023,67.3118 -226.644,84.3625 -104.7429,20.6847 -167.0743,47.2963 -259.2903,110.7008 -28.676,19.7166 -80.424,55.3316 -114.9954,79.1444 -132.6337,91.3585 -219.0217,118.5803 -337.7812,106.4383 z"
       id="path4538"
       inkscape:connector-curvature="0"
       transform="matrix(0.26458333,0,0,0.26458333,0,-783)" />
    <path
       style="opacity:0.60799997;fill:#2d5af5;fill-opacity:0;stroke:#2d5af5;stroke-width:5.72328424;stroke-miterlimit:4;stroke-dasharray:none;stroke-opacity:0"
       d="m 5637.9555,2109.5972 c -149.6518,-15.3004 -377.9742,-148.8554 -521.4565,-305.0209 -63.9852,-69.6413 -115.3547,-142.0781 -192.2007,-271.025 -119.201,-200.0179 -188.5372,-263.28 -316.6809,-288.9385 -65.6892,-13.1532 -212.1695,-8.9672 -275.2715,7.8665 -152.6908,40.7331 -241.2948,117.6367 -373.4069,324.0976 -28.0959,43.9073 -68.9863,103.8965 -90.8675,133.3093 -91.7036,123.268 -248.8677,208.4972 -422.758,229.2594 -94.7316,11.3108 -199.6232,-8.5486 -278.1482,-52.6624 -17.2858,-9.7108 -54.5715,-41.028 -82.8572,-69.5939 -41.3833,-41.7931 -58.5639,-64.7707 -87.9591,-117.6379 -76.3186,-137.2586 -127.6591,-182.8429 -205.9315,-182.8429 -44.871,0 -75.4418,12.5516 -161.0448,66.1208 -92.2994,57.7599 -113.8009,66.8339 -158.2364,66.7792 -48.767,-0.06 -101.0173,-26.4976 -172.5425,-87.3025 -66.2543,-56.324 -107.1414,-84.0514 -148.5236,-100.7202 -100.1337,-40.3342 -235.4487,-29.0342 -318.795,26.6223 -58.3216,38.9456 -90.6389,90.5123 -149.5893,238.6906 -57.5118,144.562 -104.3812,193.1405 -205.5485,213.044 -19.0376,3.7454 -54.5587,5.6178 -78.9358,4.161 -56.4523,-3.3739 -83.5183,-16.1425 -184.3221,-86.9559 -127.1205,-89.3005 -225.04778,-134.9411 -369.08698,-172.0189 -173.09863,-44.5582 -336.7516,-36.6481 -521.79598,25.2208 -108.42584,36.2517 -239.123727,102.4143 -300.545567,152.1438 -12.5714283,10.1783 -43.428571,45.8578 -68.571428,79.2878 -45.647374,60.6928 -45.719739,60.7555 -49.439485,42.7806 -7.51897,-36.3337 -11.95022,-864.5911 -7.76537,-1451.44891 l 4.3042,-603.595457 543.59318,-3.667678 C 1068.658,-78.667662 7626.5201,-105.678 7628.4338,-104.04295 c 0.6977,0.59613 -3.3063,411.60709 -8.8971,913.35771 l -10.1663,912.27384 -14.1829,19.9335 c -39.164,55.0439 -93.4188,78.3524 -191.1274,82.1113 -86.2171,3.3168 -166.7411,-10.8366 -274.0377,-48.1664 -218.6697,-76.078 -255.612,-87.8052 -302.1771,-95.9243 -102.732,-17.9124 -144.2909,-9.7376 -251.1789,49.4085 -83.3017,46.0948 -140.3023,67.3118 -226.644,84.3625 -104.7429,20.6847 -167.0743,47.2963 -259.2903,110.7008 -28.676,19.7166 -80.424,55.3316 -114.9954,79.1444 -132.6337,91.3585 -219.0217,118.5803 -337.7812,106.4383 z"
       id="path4540"
       inkscape:connector-curvature="0"
       transform="matrix(0.26458333,0,0,0.26458333,0,-783)" />
    <path
       style="opacity:0.60799997;fill:#2d5af5;fill-opacity:0;stroke:#2d5af5;stroke-width:5.72328424;stroke-miterlimit:4;stroke-dasharray:none;stroke-opacity:0"
       d="m 5637.9555,2109.5972 c -149.6518,-15.3004 -377.9742,-148.8554 -521.4565,-305.0209 -63.9852,-69.6413 -115.3547,-142.0781 -192.2007,-271.025 -119.201,-200.0179 -188.5372,-263.28 -316.6809,-288.9385 -65.6892,-13.1532 -212.1695,-8.9672 -275.2715,7.8665 -152.6908,40.7331 -241.2948,117.6367 -373.4069,324.0976 -28.0959,43.9073 -68.9863,103.8965 -90.8675,133.3093 -91.7036,123.268 -248.8677,208.4972 -422.758,229.2594 -94.7316,11.3108 -199.6232,-8.5486 -278.1482,-52.6624 -17.2858,-9.7108 -54.5715,-41.028 -82.8572,-69.5939 -41.3833,-41.7931 -58.5639,-64.7707 -87.9591,-117.6379 -76.3186,-137.2586 -127.6591,-182.8429 -205.9315,-182.8429 -44.871,0 -75.4418,12.5516 -161.0448,66.1208 -92.2994,57.7599 -113.8009,66.8339 -158.2364,66.7792 -48.767,-0.06 -101.0173,-26.4976 -172.5425,-87.3025 -66.2543,-56.324 -107.1414,-84.0514 -148.5236,-100.7202 -100.1337,-40.3342 -235.4487,-29.0342 -318.795,26.6223 -58.3216,38.9456 -90.6389,90.5123 -149.5893,238.6906 -57.5118,144.562 -104.3812,193.1405 -205.5485,213.044 -19.0376,3.7454 -54.5587,5.6178 -78.9358,4.161 -56.4523,-3.3739 -83.5183,-16.1425 -184.3221,-86.9559 -127.1205,-89.3005 -225.04778,-134.9411 -369.08698,-172.0189 -173.09863,-44.5582 -336.7516,-36.6481 -521.79598,25.2208 -108.42584,36.2517 -239.123727,102.4143 -300.545567,152.1438 -12.5714283,10.1783 -43.428571,45.8578 -68.571428,79.2878 -45.647374,60.6928 -45.719739,60.7555 -49.439485,42.7806 -7.51897,-36.3337 -11.95022,-864.5911 -7.76537,-1451.44891 l 4.3042,-603.595457 543.59318,-3.667678 C 1068.658,-78.667662 7626.5201,-105.678 7628.4338,-104.04295 c 0.6977,0.59613 -3.3063,411.60709 -8.8971,913.35771 l -10.1663,912.27384 -14.1829,19.9335 c -39.164,55.0439 -93.4188,78.3524 -191.1274,82.1113 -86.2171,3.3168 -166.7411,-10.8366 -274.0377,-48.1664 -218.6697,-76.078 -255.612,-87.8052 -302.1771,-95.9243 -102.732,-17.9124 -144.2909,-9.7376 -251.1789,49.4085 -83.3017,46.0948 -140.3023,67.3118 -226.644,84.3625 -104.7429,20.6847 -167.0743,47.2963 -259.2903,110.7008 -28.676,19.7166 -80.424,55.3316 -114.9954,79.1444 -132.6337,91.3585 -219.0217,118.5803 -337.7812,106.4383 z"
       id="path4542"
       inkscape:connector-curvature="0"
       transform="matrix(0.26458333,0,0,0.26458333,0,-783)" />
    <path
       style="opacity:0.597;fill:url(#linearGradient4597);fill-opacity:1;stroke:#2d5af5;stroke-width:0;stroke-miterlimit:4;stroke-dasharray:none;stroke-dashoffset:0;stroke-opacity:0"
       d="M 1398.0074,2.7636817 C 1308.2307,-17.933508 1247.8795,-84.994814 1209.1856,-149.64845 c -38.4889,-63.73361 -83.9612,-92.34059 -156.6208,-74.36696 -70.33129,29.11889 -82.97459,67.10601 -122.83925,121.02224 -24.26324,32.614646 -32.58434,58.188686 -78.59282,63.682012 -89.8845,27.97609 -112.13849,-87.937302 -161.17932,-95.218232 -37.36333,1.42612 -60.07191,18.27954 -129.83363,15.50837 -49.09963,-12.32607 -100.25572,-67.37716 -149.64183,-38.16815 -42.81282,47.64407 -44.78734,83.893856 -116.64211,97.598836 -84.84444,4.82121 -146.23319,-79.026466 -196.034096,-24.33021 -30.35065,36.26812 -75.270382,33.03616 -115.379945,39.93492 -25.00604,4.300986 -50.794938,-10.32254 -76.117565,0.5672 -25.554074,13.020476 -24.872974,15.303786 -25.554074,13.020476 -1.98939,-9.61329 -3.16183,-228.756382 -2.05459,-384.029172 l -23.05166,-378.92749 c 669.62555,-35.49613 1395.16719,-62.02743 2082.61799,-26.94303 0.1846,0.1577 3.1291,157.59044 66.5727,274.21351 l 74.0689,136.15457 -24.8616,-55.94886 c 0,0 -47.3511,7.96475 -73.2032,8.95929 -22.8116,0.87757 -102.9273,165.45123 -102.9273,165.45123 -44.0607,112.48539 -158.8775,158.04446 -215.5006,191.38085 -86.6311,54.528066 -178.2844,108.1188517 -264.4034,102.8507317 z"
       id="path4544"
       inkscape:connector-curvature="0"
       sodipodi:nodetypes="ccccccccccaccsccsccsccc" />
  </g>
  <g
     inkscape:groupmode="layer"
     id="layer2"
     inkscape:label="Layer 2">
    <path
       style="opacity:0.514;fill:url(#linearGradient4579);fill-opacity:1;stroke:#000000;stroke-width:0.26458332;stroke-linecap:butt;stroke-linejoin:miter;stroke-miterlimit:4;stroke-dasharray:0, 2.91041648999999980;stroke-dashoffset:0;stroke-opacity:1"
       d="m -102.28416,596.70657 c 6.916449,43.34866 87.940658,24.69622 87.940658,24.69622 0,0 56.674166,-45.2562 180.650372,28.82712 66.50728,39.74214 145.14555,-78.22993 282.72888,-87.30136 137.58333,-9.07145 118.56026,69.74437 176.89287,84.66666 65.01189,16.63094 110.36903,-71.05951 167.82142,-52.91666 57.45237,18.14284 46.86903,9.07141 140.60714,46.86904 93.73812,37.79761 125.48812,-105.83333 211.66672,-105.83333 86.1785,0 101.098,54.14766 190.1461,168.85364 89.2024,114.90475 170.4761,32.94302 214.583,15.22378 72.4243,-29.09531 115.3661,-167.44646 115.3661,-167.44646 0,0 54.4285,-86.17858 152.7024,-166.30953 86.0502,-70.16395 139.0952,-90.71429 139.0952,-90.71429 v -517.07142 l -2078.86904,-6.04762 11.38761,624.93815 z"
       id="path4557"
       inkscape:connector-curvature="0"
       sodipodi:nodetypes="ccsssssssscsccccc" />
    <path
       style="opacity:0.791;fill:url(#linearGradient4595);fill-opacity:1;stroke:#000000;stroke-width:0.26499999;stroke-linecap:butt;stroke-linejoin:miter;stroke-miterlimit:4;stroke-dasharray:0, 2.91499986000000000;stroke-dashoffset:0;stroke-opacity:1"
       d="m -56.399003,729.43451 c 10.583334,0 47.372116,-23.44103 94.241159,-9.8339 46.869052,13.60715 58.919782,56.5065 122.419794,62.55411 63.5,6.04763 69.49183,5.88421 128.51191,-21.16667 72.57142,-33.26191 87.19233,-66.03024 150.43451,-73.32739 39.30953,-4.53569 78.58878,19.18768 121.70834,52.16072 52.21497,39.9282 81.64285,57.4524 81.64285,57.4524 0,0 78.61023,7.2686 195.03571,-78.61907 46.11307,-34.01784 238.88093,-42.33332 287.26193,-68.03569 48.3809,-25.70239 95.25,-9.07142 117.9286,27.21427 22.6785,36.28573 7.5595,122.46429 93.7381,160.26192 86.1786,37.79761 104.5021,-33.61844 171.026,-51.76128 61.2321,-2.26787 96.8867,-8.1788 145.3995,-24.5807 64.4553,-21.79201 131.2934,-117.89478 176.2535,-208.8816 50.8847,-102.97635 143.2696,-345.11798 143.2696,-345.11798 l 11.1466,-364.49177 -2057.702398,4.53571 z"
       id="path4581"
       inkscape:connector-curvature="0"
       sodipodi:nodetypes="cssssscsccscsscccc" />
  </g>
</svg>
