<?xml version="1.0" encoding="UTF-8" standalone="no"?>
<!-- Created with Inkscape (http://www.inkscape.org/) -->

<svg
   xmlns:dc="http://purl.org/dc/elements/1.1/"
   xmlns:cc="http://creativecommons.org/ns#"
   xmlns:rdf="http://www.w3.org/1999/02/22-rdf-syntax-ns#"
   xmlns:svg="http://www.w3.org/2000/svg"
   xmlns="http://www.w3.org/2000/svg"
   xmlns:xlink="http://www.w3.org/1999/xlink"
   xmlns:sodipodi="http://sodipodi.sourceforge.net/DTD/sodipodi-0.dtd"
   xmlns:inkscape="http://www.inkscape.org/namespaces/inkscape"
   width="603mm"
   height="200mm"
   viewBox="0 0 603 200"
   version="1.1"
   id="svg50"
   inkscape:version="0.92.4 (33fec40, 2019-01-16)"
   sodipodi:docname="django_logo.svg">
  <defs
     id="defs44">
    <linearGradient
       id="linearGradient2795">
      <stop
         id="stop2797"
         offset="0"
         style="stop-color:#b8b8b8;stop-opacity:0.49803922" />
      <stop
         id="stop2799"
         offset="1"
         style="stop-color:#7f7f7f;stop-opacity:0" />
    </linearGradient>
    <linearGradient
       id="linearGradient2787">
      <stop
         id="stop2789"
         offset="0"
         style="stop-color:#7f7f7f;stop-opacity:0.5" />
      <stop
         id="stop2791"
         offset="1"
         style="stop-color:#7f7f7f;stop-opacity:0" />
    </linearGradient>
    <linearGradient
       id="linearGradient3676">
      <stop
         id="stop3678"
         offset="0"
         style="stop-color:#b2b2b2;stop-opacity:0.5" />
      <stop
         id="stop3680"
         offset="1"
         style="stop-color:#b3b3b3;stop-opacity:0" />
    </linearGradient>
    <linearGradient
       id="linearGradient3236">
      <stop
         id="stop3244"
         offset="0"
         style="stop-color:#f4f4f4;stop-opacity:1" />
      <stop
         id="stop3240"
         offset="1"
         style="stop-color:#ffffff;stop-opacity:1" />
    </linearGradient>
    <linearGradient
       id="linearGradient4671">
      <stop
         id="stop4673"
         offset="0"
         style="stop-color:#ffd43b;stop-opacity:1" />
      <stop
         id="stop4675"
         offset="1"
         style="stop-color:#ffe873;stop-opacity:1" />
    </linearGradient>
    <linearGradient
       id="linearGradient4689">
      <stop
         id="stop4691"
         offset="0"
         style="stop-color:#5a9fd4;stop-opacity:1" />
      <stop
         id="stop4693"
         offset="1"
         style="stop-color:#306998;stop-opacity:1" />
    </linearGradient>
    <linearGradient
       gradientTransform="translate(100.2702,99.61116)"
       gradientUnits="userSpaceOnUse"
       xlink:href="#linearGradient4671"
       id="linearGradient2987"
       y2="144.75717"
       x2="-65.308502"
       y1="144.75717"
       x1="224.23996" />
    <linearGradient
       gradientTransform="translate(100.2702,99.61116)"
       gradientUnits="userSpaceOnUse"
       xlink:href="#linearGradient4689"
       id="linearGradient2990"
       y2="76.313133"
       x2="26.670298"
       y1="77.475983"
       x1="172.94208" />
    <linearGradient
       gradientTransform="matrix(0.562541,0,0,0.567972,-11.5974,-7.60954)"
       gradientUnits="userSpaceOnUse"
       xlink:href="#linearGradient4671"
       id="linearGradient2255"
       y2="144.75717"
       x2="-65.308502"
       y1="144.75717"
       x1="224.23996" />
    <linearGradient
       gradientTransform="matrix(0.562541,0,0,0.567972,-11.5974,-7.60954)"
       gradientUnits="userSpaceOnUse"
       xlink:href="#linearGradient4689"
       id="linearGradient2258"
       y2="76.313133"
       x2="26.670298"
       y1="76.176224"
       x1="172.94208" />
    <radialGradient
       gradientTransform="matrix(1,0,0,0.177966,0,108.7434)"
       gradientUnits="userSpaceOnUse"
       xlink:href="#linearGradient2795"
       id="radialGradient2801"
       fy="132.28575"
       fx="61.518883"
       r="29.036913"
       cy="132.28575"
       cx="61.518883" />
    <linearGradient
       gradientTransform="matrix(0.562541,0,0,0.567972,-9.399749,-5.305317)"
       gradientUnits="userSpaceOnUse"
       xlink:href="#linearGradient4671"
       id="linearGradient1475"
       y2="137.27299"
       x2="112.03144"
       y1="192.35176"
       x1="150.96111" />
    <linearGradient
       gradientTransform="matrix(0.562541,0,0,0.567972,-9.399749,-5.305317)"
       gradientUnits="userSpaceOnUse"
       xlink:href="#linearGradient4689"
       id="linearGradient1478"
       y2="114.39767"
       x2="135.66525"
       y1="20.603781"
       x1="26.648937" />
    <radialGradient
       gradientTransform="matrix(2.382716e-8,-0.296405,1.43676,4.683673e-7,-128.544,150.5202)"
       gradientUnits="userSpaceOnUse"
       xlink:href="#linearGradient2795"
       id="radialGradient1480"
       fy="132.28575"
       fx="61.518883"
       r="29.036913"
       cy="132.28575"
       cx="61.518883" />
  </defs>
  <sodipodi:namedview
     id="base"
     pagecolor="#ffffff"
     bordercolor="#666666"
     borderopacity="1.0"
     inkscape:pageopacity="0.0"
     inkscape:pageshadow="2"
     inkscape:zoom="0.24748737"
     inkscape:cx="548.33354"
     inkscape:cy="348.59431"
     inkscape:document-units="mm"
     inkscape:current-layer="layer1"
     showgrid="false"
     inkscape:window-width="1855"
     inkscape:window-height="1056"
     inkscape:window-x="65"
     inkscape:window-y="24"
     inkscape:window-maximized="1" />
  <metadata
     id="metadata47">
    <rdf:RDF>
      <cc:Work
         rdf:about="">
        <dc:format>image/svg+xml</dc:format>
        <dc:type
           rdf:resource="http://purl.org/dc/dcmitype/StillImage" />
        <dc:title></dc:title>
      </cc:Work>
    </rdf:RDF>
  </metadata>
  <g
     inkscape:label="Layer 1"
     inkscape:groupmode="layer"
     id="layer1"
     transform="translate(0,-97)">
    <g
       id="layer1-5"
       transform="matrix(2.0274759,0,0,2.0274759,284.96422,-614.52306)"
       style="fill:#bec4ca;fill-opacity:1">
      <path
         style="fill:#bec4ca;fill-opacity:1;fill-rule:evenodd;stroke:none"
         id="path2838"
         d="m -101.47577,400.00486 c -0.0431,8.1975 5.967822,13.08438 15.560005,10.8625 v -21.725 c -9.713433,-2.95812 -15.519375,3.02656 -15.560005,10.8625 m 15.853442,-42.27625 h 13.21125 v 62.53344 c -12.663437,2.07031 -24.79187,3.38344 -33.468442,-1.46813 -11.17187,-6.24625 -12.07,-26.09562 -3.22968,-34.93625 4.48218,-4.48187 13.505622,-7.63718 23.193435,-5.57812 v -19.67 c -0.02531,-0.41688 -0.04875,-0.83188 0.293437,-0.88094"
         inkscape:connector-curvature="0" />
      <path
         style="fill:#bec4ca;fill-opacity:1;fill-rule:evenodd;stroke:none"
         id="path2840"
         d="M -50.979419,371.52699 H -64.19067 v -13.79844 h 13.211251 z"
         inkscape:connector-curvature="0" />
      <path
         style="fill:#bec4ca;fill-opacity:1;fill-rule:evenodd;stroke:none"
         id="path2844"
         d="m 107.55577,411.45442 c 14.40218,5.59688 15.99562,-25.77875 1.46812,-22.89968 -9.02187,1.78812 -8.73218,20.07687 -1.46812,22.89968 m 0.58718,-33.76218 c 10.99844,-1.17594 19.29594,3.6775 22.60625,11.15625 5.64813,12.76031 -0.31062,27.40218 -9.39468,31.70718 -4.70813,2.23125 -9.63813,2.44375 -14.09219,2.055 -13.766874,-1.20062 -22.449374,-15.23062 -17.614999,-30.82656 0.756562,-2.44094 1.606562,-3.93406 2.055312,-4.69719 2.9925,-5.08812 8.044688,-8.49687 16.440307,-9.39468"
         inkscape:connector-curvature="0" />
      <path
         style="fill:#bec4ca;fill-opacity:1;fill-rule:evenodd;stroke:none"
         id="path2848"
         d="m -32.777012,406.46358 c -3.654062,6.14094 5.526875,7.61219 11.449375,5.87187 v -9.10125 c -4.550625,0.63532 -9.730312,0.33969 -11.449375,3.22938 m 23.192813,14.38562 c -10.913125,0.62782 -27.498125,4.34532 -33.468438,-2.93562 -3.5075,-4.27813 -3.130312,-12.43781 0,-16.44094 4.045313,-5.1725 12.875938,-6.30062 20.844375,-7.04594 0.723438,-1.78125 0.235625,-4.67937 -0.587187,-5.87218 -7.28875,-1.85657 -14.530625,1.02031 -19.669688,3.22937 v -10.275 c 7.761875,-3.56625 25.740625,-7.32125 31.119688,0.88063 2.825,4.30781 1.76125,11.82062 1.76125,18.49562 z"
         inkscape:connector-curvature="0" />
      <path
         style="fill:#bec4ca;fill-opacity:1;fill-rule:evenodd;stroke:none"
         id="path2852"
         d="m 36.802301,421.43674 h -13.21125 v -17.02813 c 0,-5.60656 0.906875,-12.71562 -2.055625,-14.97281 -2.32,-1.76875 -7.824063,-0.88125 -11.155625,0 v 32.00094 H -2.8317618 V 380.6283 c 13.5053128,-3.50813 37.8831248,-7.26938 39.6340628,9.68812 0.863437,8.36063 -0.639688,20.90407 0,31.12032"
         inkscape:connector-curvature="0" />
      <path
         style="fill:#bec4ca;fill-opacity:1;fill-rule:evenodd;stroke:none"
         id="path2856"
         d="m 56.472393,407.34433 c 2.223125,3.59687 8.243125,4.94562 13.210938,2.64219 -0.272813,-6.87094 -0.368125,-13.91938 -0.293438,-21.13813 -11.4175,-3.01656 -18.221875,9.91594 -12.9175,18.49594 m 33.175,-27.89031 c -1.175937,3.52156 -2.896875,6.4975 -4.40375,9.68843 -1.361562,0.305 -2.541562,-0.54125 -3.229687,0 -0.30125,14.31094 3.047812,33.71157 -2.642188,44.03719 -3.425937,6.21688 -9.733437,10.20531 -19.376562,10.86281 -7.024688,0.47907 -12.476875,-0.66875 -17.615,-2.64218 v -12.33063 c 6.026562,3.51875 21.255,6.3875 25.541875,-0.88094 1.26125,-2.13843 1.18125,-4.34875 1.76125,-7.63312 -2.76,0.145 -5.439375,1.42312 -8.807188,1.46812 -13.845937,0.18375 -22.411875,-10.84093 -19.083125,-26.12937 1.2875,-5.91375 4.7525,-10.67531 9.395,-13.50469 9.641875,-5.87656 24.462813,-5.43031 38.459375,-2.93562"
         inkscape:connector-curvature="0" />
      <path
         style="fill:#bec4ca;fill-opacity:1;fill-rule:evenodd;stroke:none"
         id="path2860"
         d="m -50.979389,378.51405 c -0.015,9.72844 -0.0128,16.71906 -0.01375,28.53781 -0.56125,11.61469 -0.430625,20.86375 -4.683438,26.42125 -0.83875,1.09594 -2.62,2.69469 -4.110312,3.81688 -1.251564,0.94218 -3.636876,2.85281 -4.990939,2.93593 -1.365,0.0838 -4.871875,-1.895 -6.459062,-2.6425 -2.084063,-0.98156 -4.010625,-2.285 -6.165,-2.93562 5.025312,-3.11406 9.795625,-5.44875 11.743125,-11.74344 1.69375,-5.47437 1.468125,-13.40719 1.468125,-21.13812 0,-7.63375 0.03406,-16.50875 0.03406,-23.24875 l 13.177189,-0.003 z"
         inkscape:connector-curvature="0" />
    </g>
  </g>
  <style
     id="style52"
     type="text/css">
	.st0{fill-rule:evenodd;clip-rule:evenodd;fill:#6772E5;}
</style>
</svg>
