<?xml version="1.0" encoding="UTF-8" standalone="no"?>
<!-- Created with Inkscape (http://www.inkscape.org/) -->

<svg
   xmlns:dc="http://purl.org/dc/elements/1.1/"
   xmlns:cc="http://creativecommons.org/ns#"
   xmlns:rdf="http://www.w3.org/1999/02/22-rdf-syntax-ns#"
   xmlns:svg="http://www.w3.org/2000/svg"
   xmlns="http://www.w3.org/2000/svg"
   xmlns:xlink="http://www.w3.org/1999/xlink"
   xmlns:sodipodi="http://sodipodi.sourceforge.net/DTD/sodipodi-0.dtd"
   xmlns:inkscape="http://www.inkscape.org/namespaces/inkscape"
   width="1920mm"
   height="1080mm"
   viewBox="0 0 1920 1080"
   version="1.1"
   id="svg8"
   inkscape:version="0.92.3 (2405546, 2018-03-11)"
   sodipodi:docname="footer_glacier_12.svg">
  <defs
     id="defs2">
    <linearGradient
       inkscape:collect="always"
       id="linearGradient981">
      <stop
         style="stop-color:#ffffff;stop-opacity:1;"
         offset="0"
         id="stop977" />
      <stop
         style="stop-color:#ffffff;stop-opacity:0;"
         offset="1"
         id="stop979" />
    </linearGradient>
    <linearGradient
       inkscape:collect="always"
       id="linearGradient3136">
      <stop
         style="stop-color:#000000;stop-opacity:1;"
         offset="0"
         id="stop3132" />
      <stop
         style="stop-color:#000000;stop-opacity:0;"
         offset="1"
         id="stop3134" />
    </linearGradient>
    <linearGradient
       inkscape:collect="always"
       id="linearGradient3098">
      <stop
         style="stop-color:#5b00fa;stop-opacity:1;"
         offset="0"
         id="stop3094" />
      <stop
         style="stop-color:#5b00fa;stop-opacity:0;"
         offset="1"
         id="stop3096" />
    </linearGradient>
    <linearGradient
       inkscape:collect="always"
       id="linearGradient3064">
      <stop
         style="stop-color:#26c281;stop-opacity:1;"
         offset="0"
         id="stop3060" />
      <stop
         style="stop-color:#26c281;stop-opacity:0;"
         offset="1"
         id="stop3062" />
    </linearGradient>
    <linearGradient
       inkscape:collect="always"
       id="linearGradient3017">
      <stop
         style="stop-color:#3b8dff;stop-opacity:0.142"
         offset="0"
         id="stop3013" />
      <stop
         style="stop-color:#3b8dff;stop-opacity:0;"
         offset="1"
         id="stop3015" />
    </linearGradient>
    <linearGradient
       inkscape:collect="always"
       id="linearGradient824">
      <stop
         style="stop-color:#0f6c33;stop-opacity:1;"
         offset="0"
         id="stop820" />
      <stop
         style="stop-color:#0f6c33;stop-opacity:0;"
         offset="1"
         id="stop822" />
    </linearGradient>
    <linearGradient
       inkscape:collect="always"
       xlink:href="#linearGradient824"
       id="linearGradient826"
       x1="-27.685704"
       y1="3132.7809"
       x2="7746.4303"
       y2="3132.7809"
       gradientUnits="userSpaceOnUse" />
    <linearGradient
       inkscape:collect="always"
       xlink:href="#linearGradient3017"
       id="linearGradient3019"
       x1="3849.876"
       y1="6407.666"
       x2="3863.7478"
       y2="476.04996"
       gradientUnits="userSpaceOnUse"
       gradientTransform="matrix(0.26137545,0,0,0.2414651,-46.591148,-89.682013)" />
    <linearGradient
       inkscape:collect="always"
       xlink:href="#linearGradient3064"
       id="linearGradient3066"
       x1="3848.9998"
       y1="6245.6816"
       x2="3911.9661"
       y2="386.79691"
       gradientUnits="userSpaceOnUse"
       gradientTransform="matrix(0.26266321,0,0,0.24825797,-48.584068,-111.82606)" />
    <linearGradient
       inkscape:collect="always"
       xlink:href="#linearGradient3098"
       id="linearGradient3114"
       x1="1038.9929"
       y1="1826.1049"
       x2="1054.3717"
       y2="-138.86073"
       gradientUnits="userSpaceOnUse"
       gradientTransform="translate(-12.095245,1330.4762)" />
    <linearGradient
       inkscape:collect="always"
       xlink:href="#linearGradient3098"
       id="linearGradient3116"
       gradientUnits="userSpaceOnUse"
       x1="1038.9929"
       y1="1826.1049"
       x2="1054.3717"
       y2="-138.86073"
       gradientTransform="translate(-12.095245,1330.4762)" />
    <linearGradient
       inkscape:collect="always"
       xlink:href="#linearGradient3136"
       id="linearGradient3138"
       x1="-7.5603564"
       y1="826.75588"
       x2="2050.1428"
       y2="826.75588"
       gradientUnits="userSpaceOnUse" />
    <linearGradient
       inkscape:collect="always"
       xlink:href="#linearGradient981"
       id="linearGradient983"
       x1="-57.975516"
       y1="736.65853"
       x2="2010.7044"
       y2="736.65853"
       gradientUnits="userSpaceOnUse"
       gradientTransform="matrix(0.98055785,0,0,0.89248331,-1.1271182,23.068787)" />
    <linearGradient
       inkscape:collect="always"
       xlink:href="#linearGradient981"
       id="linearGradient985"
       x1="-51.789503"
       y1="733.30843"
       x2="2012.8662"
       y2="733.30843"
       gradientUnits="userSpaceOnUse"
       gradientTransform="matrix(0.98055785,0,0,0.89248331,2.124222,18.616487)" />
  </defs>
  <sodipodi:namedview
     id="base"
     pagecolor="#ffffff"
     bordercolor="#666666"
     borderopacity="1.0"
     inkscape:pageopacity="0.0"
     inkscape:pageshadow="2"
     inkscape:zoom="0.15948897"
     inkscape:cx="2706.7922"
     inkscape:cy="1488.1118"
     inkscape:document-units="mm"
     inkscape:current-layer="layer2"
     showgrid="false"
     inkscape:window-width="2560"
     inkscape:window-height="1377"
     inkscape:window-x="-8"
     inkscape:window-y="-8"
     inkscape:window-maximized="1"
     inkscape:pagecheckerboard="true" />
  <metadata
     id="metadata5">
    <rdf:RDF>
      <cc:Work
         rdf:about="">
        <dc:format>image/svg+xml</dc:format>
        <dc:type
           rdf:resource="http://purl.org/dc/dcmitype/StillImage" />
        <dc:title></dc:title>
      </cc:Work>
    </rdf:RDF>
  </metadata>
  <g
     inkscape:groupmode="layer"
     id="layer3"
     inkscape:label="Layer 3">
    <path
       style="fill:none;stroke:#000000;stroke-width:0.26458332;stroke-linecap:butt;stroke-linejoin:miter;stroke-opacity:1;stroke-miterlimit:4;stroke-dasharray:0,2.91041649;stroke-dashoffset:0"
       d="M -0.70299315,1258.6271 496.05223,442.82942 l 32.07234,431.90754 162.49989,-269.40769 59.86835,436.18383 359.21029,-741.94016 254.4406,761.18366 -40.625,-660.69031 581.5785,669.24291 126.1512,145.3946 4.2763,128.2894 -2046.215481,-12.829 z"
       id="path3038"
       inkscape:connector-curvature="0" />
    <path
       style="opacity:1;fill:#26c281;fill-opacity:0;stroke:#ffffff;stroke-width:46.17840195;stroke-miterlimit:4;stroke-dasharray:0, 507.96243414999997867;stroke-dashoffset:0;stroke-opacity:0.94117647"
       d="m 2834.8749,4323.8235 c -1404.1124,-3.675 -2554.30173,-8.0519 -2555.97638,-9.7265 -1.67466,-1.6747 173.59351,-293.5351 389.48479,-648.5786 215.89129,-355.0436 573.31289,-942.7845 794.27029,-1306.0909 220.9575,-363.3064 403.6429,-660.5943 405.9677,-660.6397 2.3249,-0.045 30.8496,360.8448 63.3882,801.9784 32.5386,441.1336 60.8358,803.7741 62.8825,805.8677 4.6889,4.7963 -28.8349,59.2459 315.799,-512.9235 163.3062,-271.1249 297.8552,-487.4996 298.998,-480.8326 1.1427,6.667 51.4798,373.9326 111.8603,816.1457 60.3805,442.2131 111.3238,805.565 113.2073,807.4486 1.8837,1.8836 4.8375,1.9095 6.5643,0.057 1.7268,-1.851 222.0696,-456.1166 489.6506,-1009.4782 267.5812,-553.3615 570.5393,-1179.8385 673.2403,-1392.171 108.7145,-224.7651 189.0609,-381.7631 192.3102,-375.7767 3.0695,5.6553 218.8459,648.3145 479.5032,1428.1315 260.6572,779.8171 475.6197,1419.5467 477.6944,1421.6214 6.9387,6.9387 4.0875,-43.7086 -69.2398,-1229.9894 -40.1565,-649.6471 -71.9763,-1195.4012 -70.7107,-1212.787 l 2.3012,-31.6106 473.3498,544.7681 c 522.6963,601.5597 1110.7101,1279.1701 1598.2725,1841.8038 175.2489,202.2326 327.8985,377.6961 339.2213,389.9189 l 20.5869,22.2234 -1029.8472,-1.3388 c -566.416,-0.7362 -2178.6664,-4.3456 -3582.7787,-8.0206 z"
       id="path3040"
       inkscape:connector-curvature="0"
       transform="scale(0.26458333)" />
    <path
       style="opacity:0.07399998;fill:url(#linearGradient3066);fill-opacity:1;stroke:url(#linearGradient983);stroke-width:0;stroke-miterlimit:4;stroke-dasharray:none;stroke-dashoffset:0;stroke-opacity:1"
       d="m 857.16106,1141.1259 c -456.47359,-2.628 -849.1185082,-5.2984 -872.544248,-5.9341 l -42.59228,-1.1561 4.90752,-32.1008 4.90751,-32.1008 146.73874,-227.99993 C 404.29456,366.81834 441.0682,309.89103 442.20042,309.89103 c 0.63983,0 8.15842,89.60312 16.70797,199.11804 8.54956,109.515 15.92584,199.4942 16.39178,199.954 0.46593,0.4598 1.21842,0.4598 1.67226,0 0.45383,-0.4598 36.49993,-56.8097 80.10243,-125.222 l 79.2773,-124.38611 4.7074,32.09963 c 2.44419,17.79959 20.80503,103.97311 39.51154,191.94204 17.32503,76.4573 3.98034,22.03068 24.18202,105.69285 49.25829,-69.59203 43.37561,-63.9877 126.84684,-184.81671 308.10814,-446.00279 158.2119,-380.97976 263.64994,-380.42081 69.4395,0.3681 17.9552,118.18885 86.025,310.73651 80.1511,226.7219 123.9722,347.9657 124.3564,344.0681 0.3263,-3.3103 -7.5328,-130.1541 -17.4651,-281.875 -20.6758,-315.83864 -21.3493,-327.01512 -19.7097,-327.01512 0.6661,0 16.7797,16.92756 35.8072,37.61678 19.0278,20.68921 47.0957,51.15879 62.3734,67.71018 36.5544,39.60215 141.3906,153.71366 279.1281,303.82386 61.3153,66.823 158.5983,172.7867 216.1846,235.475 l 104.7024,113.97883 1.8259,44.5133 c 1.0043,24.4822 1.8667,51.0586 1.9165,59.0584 l 0.09,14.5453 -78.4079,-0.1616 -63.2784,-0.1303 c -77.9273,-0.1606 -515.1646,-2.4421 -971.63814,-5.0703 z"
       id="path3044"
       inkscape:connector-curvature="0"
       sodipodi:nodetypes="cscccsssccsccccsssssssssscssccssc" />
    <path
       style="opacity:1;fill:#26c281;fill-opacity:0;stroke:#ffffff;stroke-width:46.17840195;stroke-miterlimit:4;stroke-dasharray:0, 507.96243415;stroke-dashoffset:0;stroke-opacity:0.94117647"
       d="m 2834.8749,4323.8235 c -1404.1124,-3.675 -2554.30173,-8.0519 -2555.97638,-9.7265 -1.67466,-1.6747 173.59351,-293.5351 389.48479,-648.5786 215.89129,-355.0436 573.31289,-942.7845 794.27029,-1306.0909 220.9575,-363.3064 403.6429,-660.5943 405.9677,-660.6397 2.3249,-0.045 30.8496,360.8448 63.3882,801.9784 32.5386,441.1336 60.8358,803.7741 62.8825,805.8677 4.6889,4.7963 -28.8349,59.2459 315.799,-512.9235 163.3062,-271.1249 297.8552,-487.4996 298.998,-480.8326 1.9236,2.9577 51.5436,373.6294 111.8603,816.1457 60.2773,442.2272 111.3238,805.565 113.2073,807.4486 1.8837,1.8836 4.8375,1.9095 6.5643,0.057 1.7268,-1.851 222.0696,-456.1166 489.6506,-1009.4782 267.5812,-553.3615 570.5393,-1179.8385 673.2403,-1392.171 108.7145,-224.7651 189.0609,-381.7631 192.3102,-375.7767 3.0695,5.6553 218.8459,648.3145 479.5032,1428.1315 260.6572,779.8171 475.6197,1419.5467 477.6944,1421.6214 6.9387,6.9387 4.0875,-43.7086 -69.2398,-1229.9894 -40.1565,-649.6471 -71.9763,-1195.4012 -70.7107,-1212.787 l 2.3012,-31.6106 473.3498,544.7681 c 522.6963,601.5597 1110.7101,1279.1701 1598.2725,1841.8038 175.2489,202.2326 327.8985,377.6961 339.2213,389.9189 l 20.5869,22.2234 -1029.8472,-1.3388 c -566.416,-0.7362 -2178.6664,-4.3456 -3582.7787,-8.0206 z"
       id="path3046"
       inkscape:connector-curvature="0"
       sodipodi:nodetypes="ccsscscscsccsscsssccssccscc"
       transform="scale(0.26458333)" />
    <path
       style="opacity:0.078;fill:#26c281;fill-opacity:0;stroke:#ffffff;stroke-width:0;stroke-miterlimit:4;stroke-dasharray:none;stroke-dashoffset:0;stroke-opacity:0.94117647"
       d="m 7662.4766,5076.1538 c -26.5037,-0.1738 -45.096,-0.2929 -76.1161,-0.4877 -11.4419,-0.072 -27.3928,-0.1722 -35.4464,-0.2228 -8.0536,-0.051 -23.9844,-0.1505 -35.4018,-0.2217 -11.4174,-0.071 -25.0078,-0.1569 -30.2009,-0.1904 l -9.442,-0.061 v -0.4555 -0.4555 l 3.6384,0.025 c 2.0011,0.014 32.6674,0.2036 68.1474,0.4225 35.4799,0.2188 70.6964,0.4388 78.2589,0.4889 7.5625,0.05 23.7946,0.1496 36.0714,0.2212 12.2768,0.072 24.24,0.1531 26.5848,0.1809 l 4.2634,0.051 v -0.2324 c 0,-0.1278 -0.9643,-29.1549 -2.1428,-64.5046 -1.1786,-35.3497 -2.1429,-64.5365 -2.1429,-64.8593 v -0.5871 h 0.4464 c 0.4202,0 0.4465,0.014 0.4465,0.2299 0,0.489 4.2772,128.8885 4.325,129.837 l 0.051,1.0045 -3.7281,-0.013 c -2.0504,-0.01 -14.4759,-0.083 -27.612,-0.1694 z"
       id="path3068"
       inkscape:connector-curvature="0"
       transform="scale(0.26458333)" />
  </g>
  <g
     inkscape:label="Layer 1"
     inkscape:groupmode="layer"
     id="layer1"
     transform="translate(0,783)" />
  <g
     inkscape:groupmode="layer"
     id="layer2"
     inkscape:label="Layer 2">
    <path
       style="fill:none;stroke:url(#linearGradient3138);stroke-width:0;stroke-linecap:butt;stroke-linejoin:miter;stroke-opacity:1;stroke-miterlimit:4;stroke-dasharray:0,0;stroke-dashoffset:0;opacity:1"
       d="M -6.047619,1092.0952 C 0,1087.5595 470.20239,590.14283 470.20239,590.14283 v 204.10712 l 179.91666,-305.40476 36.2857,432.40476 296.33333,-569.98809 84.66662,281.2143 58.9643,-182.94048 388.5596,447.52381 c 0,0 -25.7024,-235.85715 -7.5596,-222.25 4.1637,3.12273 33.9672,25.19668 77.423,57.35908 145.9007,107.98353 445.6961,329.68853 445.6961,329.68853 l 19.6547,240.3928 c 0,0 -2059.2142284,-16.6309 -2057.7023238,-24.1904 1.5119048,-7.5596 1.5119048,-185.9643 1.5119048,-185.9643 z"
       id="path11"
       inkscape:connector-curvature="0"
       sodipodi:nodetypes="ccccccccccscccc" />
    <path
       style="fill:#ffffff;fill-opacity:1;stroke:url(#linearGradient826);stroke-width:37.79527607;stroke-opacity:1;stroke-miterlimit:4;stroke-dasharray:none;stroke-dashoffset:0;opacity:0"
       d="m 7558.0407,4916.9746 c -66,-0.6795 -453,-4.0174 -860,-7.4176 C 3204.007,4880.3669 318.07991,4846.6692 40.897843,4831.8245 l -34.5454189,-1.8501 -31.1688671,-1.6693 0.117811,-26.3853 1.440649,-322.6533 1.558461,-349.0386 75.603685,-77.56 C 136.37801,3968.06 604.7831,3474.6037 1316.7508,2722.2818 l 455.5756,-481.3976 v 384.0507 c 0,321.8851 1.243,382.6962 7.6791,375.6833 4.2235,-4.6021 155.0141,-259.0817 335.0902,-565.5103 180.0762,-306.4285 330.3356,-560.3374 333.9097,-564.2418 4.8848,-5.3361 23.3168,194.0367 74.2242,802.8571 37.2491,445.4759 68.491,810.8417 69.4266,811.9239 2.1143,2.4459 -68.3838,137.2774 571.0818,-1092.2242 301.705,-580.0886 550.0701,-1051.6613 551.9225,-1047.9393 1.8525,3.7219 73.8373,241.3043 159.9663,527.9608 86.129,286.6565 158.2268,519.3707 160.2173,517.1429 1.9906,-2.2279 51.8647,-154.4794 110.8313,-338.3365 58.9666,-183.8571 108.9476,-336.244 111.069,-338.6375 2.681,-3.025 1347.0298,1537.3572 1462.1152,1675.3212 8.8857,10.6524 8.7017,7.3772 -12.8098,-228.1123 -22.4428,-245.6817 -27.3925,-325.3343 -28.2297,-454.2857 -0.7617,-117.2994 2.3017,-151.4286 13.5932,-151.4286 5.0257,0 1951.4605,1436.7648 1970.8857,1454.8133 6.2068,5.7667 16.5731,110.0858 44.072,443.5064 19.776,239.7813 36.0526,443.0375 36.1703,451.6803 0.2114,15.4942 -0.2457,15.696 -32.6435,14.4082 -18.0714,-0.7184 -86.8571,-1.862 -152.8571,-2.5415 z"
       id="path13"
       inkscape:connector-curvature="0"
       transform="scale(0.26458333)"
       sodipodi:nodetypes="ssscccccsscscscscscscsccccscsccs" />
    <path
       style="opacity:0.51399997;fill:url(#linearGradient3019);fill-opacity:1;stroke:url(#linearGradient985);stroke-width:0.94950455;stroke-miterlimit:4;stroke-dasharray:0, 10.4445514;stroke-dashoffset:0;stroke-opacity:1"
       d="m 1790.538,1094.1942 c -13.4881,-0.2301 -30.8522,-0.4883 -52.1754,-0.776 -110.1171,-1.4849 -325.8213,-3.7488 -658.5909,-6.9159 -546.05811,-5.197 -980.644378,-10.3947 -1077.766608,-12.8906 l -50.16553,-1.2892 0.0593,-81.20338 0.0593,-81.2037 38.48895,-37.1016 c 21.16892,-20.406 124.601118,-121.0269 229.849348,-223.6021 l 191.36041,-186.50039 1.49872,86.03309 c 0.86732,49.7891 2.34525,86.82 3.50814,87.9008 1.27814,1.1881 3.12382,0.833 5.07172,-0.9756 3.35267,-3.113 42.87733,-63.9364 119.48399,-183.87089 l 49.57046,-77.60686 1.59441,14.18854 c 0.87694,7.80369 8.74834,90.14415 17.49201,182.97881 16.59063,176.1489 17.3273,182.8807 20.19167,184.5161 3.35539,1.9158 0.67092,6.5327 148.69954,-255.73975 128.13611,-227.02746 143.24913,-253.07033 145.09346,-250.02577 0.88165,1.45539 11.19294,31.52455 22.91401,66.82033 55.035,165.72673 57.4475,172.47312 61.6798,172.47312 2.9643,0 7.2535,-10.84775 34.1788,-86.44228 l 25.5762,-71.8073 163.6703,173.21572 c 79.5059,84.14263 129.8305,137.34813 161.7973,170.84333 48.0609,50.3592 54.6249,56.1648 56.4744,55.5712 2.8444,-0.9131 2.5459,-11.4968 -1.8275,-64.7851 -4.8239,-58.7755 -7.7026,-122.71638 -5.7448,-127.60533 1.702,-4.25029 4.093,-2.91313 49.1958,27.51153 24.8626,16.7713 181.3776,122.6904 304.7697,206.2241 80.7826,54.688 147.3683,99.7813 153.5214,103.984 4.7681,3.2566 5.9492,5.9065 7.0995,15.9275 2.1768,18.9647 18.1924,194.84398 18.1924,199.78428 v 4.4429 l -50.1654,-0.3165 c -27.5911,-0.1739 -88.1858,-0.9646 -134.6549,-1.7571 z"
       id="path1477"
       inkscape:connector-curvature="0"
       sodipodi:nodetypes="sssscccsscsccsccssscssscsscscsscssccs" />
    <path
       style="opacity:1;fill:#3b8dff;fill-opacity:0;stroke:#ffffff;stroke-width:0;stroke-miterlimit:4;stroke-dasharray:none;stroke-dashoffset:0;stroke-opacity:0.94117647"
       d="m 7375.4972,4907.2879 c -33.335,-1.0941 -458.8113,-5.8039 -945.5028,-10.4662 -486.6915,-4.6623 -1063.0845,-10.2933 -1280.8734,-12.5134 -217.7889,-2.22 -594.1717,-5.9515 -836.4063,-8.2921 -2380.1245,-22.998 -4151.1982,-46.745 -4268.904665,-57.2385 l -54.548237,-4.863 v -338.8549 -338.855 L 177.15017,3940.2762 c 103.33861,-107.7607 502.44988,-528.0297 886.91393,-933.931 l 699.0256,-738.0025 4.0406,367.8424 c 2.2223,202.3134 6.4174,370.2165 9.3226,373.118 8.2464,8.2366 32.3816,-31.0609 358.7067,-584.0541 168.6094,-285.7269 307.3815,-516.6477 308.3825,-513.1574 2.896,10.0981 30.8768,325.8189 83.2833,939.7269 53.1076,622.1215 55.5608,646.4976 65.0644,646.4976 9.1473,0 25.8682,-31.4157 460.2266,-864.6905 588.609,-1129.19 656.1169,-1255.8277 662.8405,-1243.4197 3.2883,6.0685 61.1431,192.861 128.5661,415.0946 154.9313,510.6702 179.514,585.8884 191.4789,585.8884 12.6775,0 18.9528,-17.2316 130.4822,-358.3034 52.0865,-159.2872 97.5923,-289.4355 101.1241,-289.2184 5.6399,0.3466 278.3089,311.2919 1207.7709,1377.3136 134.4453,154.1985 248.0875,280.3608 252.5382,280.3608 11.307,0 10.6292,-15.7377 -12.0238,-279.2008 -19.5274,-227.1106 -27.8365,-545.3049 -14.2292,-544.906 5.8723,0.1722 122.1306,85.3089 1198.0409,877.3329 277.7919,204.4946 562.0632,413.4553 631.7139,464.3572 90.5288,66.1599 127.9699,98.3094 131.3102,112.7519 2.5699,11.1117 19.1642,192.9391 36.8763,404.061 17.712,211.1219 34.4378,404.7681 37.1686,430.325 l 4.9648,46.467 -152.3163,-1.6263 c -83.774,-0.8945 -179.5905,-2.5215 -212.9255,-3.6155 z"
       id="path3021"
       inkscape:connector-curvature="0"
       transform="scale(0.26458333)" />
    <path
       style="opacity:1;fill:#3b8dff;fill-opacity:0;stroke:#ffffff;stroke-width:0;stroke-miterlimit:4;stroke-dasharray:none;stroke-dashoffset:0;stroke-opacity:0.94117647"
       d="m 7375.4972,4907.2879 c -33.335,-1.0941 -458.8113,-5.8039 -945.5028,-10.4662 -486.6915,-4.6623 -1063.0845,-10.2933 -1280.8734,-12.5134 -217.7889,-2.22 -594.1717,-5.9515 -836.4063,-8.2921 -2380.1245,-22.998 -4151.1982,-46.745 -4268.904665,-57.2385 l -54.548237,-4.863 v -338.8549 -338.855 L 177.15017,3940.2762 c 103.33861,-107.7607 502.44988,-528.0297 886.91393,-933.931 l 699.0256,-738.0025 4.0406,367.8424 c 2.2223,202.3134 6.4174,370.2165 9.3226,373.118 8.2464,8.2366 32.3816,-31.0609 358.7067,-584.0541 168.6094,-285.7269 307.3815,-516.6477 308.3825,-513.1574 2.896,10.0981 30.8768,325.8189 83.2833,939.7269 53.1076,622.1215 55.5608,646.4976 65.0644,646.4976 9.1473,0 25.8682,-31.4157 460.2266,-864.6905 588.609,-1129.19 656.1169,-1255.8277 662.8405,-1243.4197 3.2883,6.0685 61.1431,192.861 128.5661,415.0946 154.9313,510.6702 179.514,585.8884 191.4789,585.8884 12.6775,0 18.9528,-17.2316 130.4822,-358.3034 52.0865,-159.2872 97.5923,-289.4355 101.1241,-289.2184 5.6399,0.3466 278.3089,311.2919 1207.7709,1377.3136 134.4453,154.1985 248.0875,280.3608 252.5382,280.3608 11.307,0 10.6292,-15.7377 -12.0238,-279.2008 -19.5274,-227.1106 -27.8365,-545.3049 -14.2292,-544.906 5.8723,0.1722 122.1306,85.3089 1198.0409,877.3329 277.7919,204.4946 562.0632,413.4553 631.7139,464.3572 90.5288,66.1599 127.9699,98.3094 131.3102,112.7519 2.5699,11.1117 19.1642,192.9391 36.8763,404.061 17.712,211.1219 34.4378,404.7681 37.1686,430.325 l 4.9648,46.467 -152.3163,-1.6263 c -83.774,-0.8945 -179.5905,-2.5215 -212.9255,-3.6155 z"
       id="path3023"
       inkscape:connector-curvature="0"
       transform="scale(0.26458333)" />
    <path
       style="opacity:1;fill:#3b8dff;fill-opacity:0;stroke:#ffffff;stroke-width:0;stroke-miterlimit:4;stroke-dasharray:none;stroke-dashoffset:0;stroke-opacity:0.94117647"
       d=""
       id="path3027"
       inkscape:connector-curvature="0"
       transform="scale(0.26458333)" />
  </g>
  <g
     inkscape:groupmode="layer"
     id="layer4"
     inkscape:label="Layer 4">
    <path
       style="opacity:0.09100001;fill:url(#linearGradient3114);fill-opacity:1;stroke:url(#linearGradient3116);stroke-width:0.26499999;stroke-linecap:butt;stroke-linejoin:miter;stroke-miterlimit:4;stroke-dasharray:none;stroke-opacity:0"
       d="M -71.963645,2575.1142 855.99619,1512.4506 845.30541,2378.4038 1097.6079,1630.0491 c 0,0 389.1444,744.0784 387.0062,720.5587 -2.1381,-23.5197 -55.592,-624.3416 -55.592,-624.3416 l 709.8678,983.5518 -2225.820645,-21.3815 z"
       id="path3072"
       inkscape:connector-curvature="0" />
  </g>
</svg>
