<?xml version="1.0" encoding="UTF-8" standalone="no"?>
<!-- Created with Inkscape (http://www.inkscape.org/) -->

<svg
   xmlns:dc="http://purl.org/dc/elements/1.1/"
   xmlns:cc="http://creativecommons.org/ns#"
   xmlns:rdf="http://www.w3.org/1999/02/22-rdf-syntax-ns#"
   xmlns:svg="http://www.w3.org/2000/svg"
   xmlns="http://www.w3.org/2000/svg"
   xmlns:xlink="http://www.w3.org/1999/xlink"
   xmlns:sodipodi="http://sodipodi.sourceforge.net/DTD/sodipodi-0.dtd"
   xmlns:inkscape="http://www.inkscape.org/namespaces/inkscape"
   width="1920mm"
   height="1080mm"
   viewBox="0 0 1920 1080"
   version="1.1"
   id="svg8"
   inkscape:version="0.92.3 (2405546, 2018-03-11)"
   sodipodi:docname="footer_glacier_7.svg">
  <defs
     id="defs2">
    <linearGradient
       inkscape:collect="always"
       id="linearGradient981">
      <stop
         style="stop-color:#ffffff;stop-opacity:1;"
         offset="0"
         id="stop977" />
      <stop
         style="stop-color:#ffffff;stop-opacity:0;"
         offset="1"
         id="stop979" />
    </linearGradient>
    <linearGradient
       inkscape:collect="always"
       id="linearGradient3136">
      <stop
         style="stop-color:#000000;stop-opacity:1;"
         offset="0"
         id="stop3132" />
      <stop
         style="stop-color:#000000;stop-opacity:0;"
         offset="1"
         id="stop3134" />
    </linearGradient>
    <linearGradient
       inkscape:collect="always"
       id="linearGradient3098">
      <stop
         style="stop-color:#5b00fa;stop-opacity:1;"
         offset="0"
         id="stop3094" />
      <stop
         style="stop-color:#5b00fa;stop-opacity:0;"
         offset="1"
         id="stop3096" />
    </linearGradient>
    <linearGradient
       inkscape:collect="always"
       id="linearGradient3064">
      <stop
         style="stop-color:#26c281;stop-opacity:1;"
         offset="0"
         id="stop3060" />
      <stop
         style="stop-color:#26c281;stop-opacity:0;"
         offset="1"
         id="stop3062" />
    </linearGradient>
    <linearGradient
       inkscape:collect="always"
       id="linearGradient3017">
      <stop
         style="stop-color:#3b8dff;stop-opacity:0.142"
         offset="0"
         id="stop3013" />
      <stop
         style="stop-color:#3b8dff;stop-opacity:0;"
         offset="1"
         id="stop3015" />
    </linearGradient>
    <linearGradient
       inkscape:collect="always"
       id="linearGradient824">
      <stop
         style="stop-color:#0f6c33;stop-opacity:1;"
         offset="0"
         id="stop820" />
      <stop
         style="stop-color:#0f6c33;stop-opacity:0;"
         offset="1"
         id="stop822" />
    </linearGradient>
    <linearGradient
       inkscape:collect="always"
       xlink:href="#linearGradient824"
       id="linearGradient826"
       x1="-27.685704"
       y1="3132.7809"
       x2="7746.4303"
       y2="3132.7809"
       gradientUnits="userSpaceOnUse" />
    <linearGradient
       inkscape:collect="always"
       xlink:href="#linearGradient3017"
       id="linearGradient3019"
       x1="3849.876"
       y1="6407.666"
       x2="3863.7478"
       y2="476.04996"
       gradientUnits="userSpaceOnUse"
       gradientTransform="matrix(0.26655791,0,0,0.27055419,-49.681274,-121.34513)" />
    <linearGradient
       inkscape:collect="always"
       xlink:href="#linearGradient3064"
       id="linearGradient3066"
       x1="3848.9998"
       y1="6245.6816"
       x2="3911.9661"
       y2="386.79691"
       gradientUnits="userSpaceOnUse"
       gradientTransform="matrix(0.26787121,0,0,0.27816539,-48.397906,-151.14551)" />
    <linearGradient
       inkscape:collect="always"
       xlink:href="#linearGradient3098"
       id="linearGradient3114"
       x1="1038.9929"
       y1="1826.1049"
       x2="1054.3717"
       y2="-138.86073"
       gradientUnits="userSpaceOnUse"
       gradientTransform="translate(-12.095245,1330.4762)" />
    <linearGradient
       inkscape:collect="always"
       xlink:href="#linearGradient3098"
       id="linearGradient3116"
       gradientUnits="userSpaceOnUse"
       x1="1038.9929"
       y1="1826.1049"
       x2="1054.3717"
       y2="-138.86073"
       gradientTransform="translate(-12.095245,1330.4762)" />
    <linearGradient
       inkscape:collect="always"
       xlink:href="#linearGradient3136"
       id="linearGradient3138"
       x1="-7.5603564"
       y1="826.75588"
       x2="2050.1428"
       y2="826.75588"
       gradientUnits="userSpaceOnUse" />
    <linearGradient
       inkscape:collect="always"
       xlink:href="#linearGradient981"
       id="linearGradient983"
       x1="-57.975516"
       y1="736.65853"
       x2="2010.7044"
       y2="736.65853"
       gradientUnits="userSpaceOnUse" />
    <linearGradient
       inkscape:collect="always"
       xlink:href="#linearGradient981"
       id="linearGradient985"
       x1="-51.789503"
       y1="733.30843"
       x2="2012.8662"
       y2="733.30843"
       gradientUnits="userSpaceOnUse" />
  </defs>
  <sodipodi:namedview
     id="base"
     pagecolor="#ffffff"
     bordercolor="#666666"
     borderopacity="1.0"
     inkscape:pageopacity="0.0"
     inkscape:pageshadow="2"
     inkscape:zoom="0.15948897"
     inkscape:cx="1895.2437"
     inkscape:cy="1624.608"
     inkscape:document-units="mm"
     inkscape:current-layer="layer2"
     showgrid="false"
     inkscape:window-width="2560"
     inkscape:window-height="1377"
     inkscape:window-x="-8"
     inkscape:window-y="-8"
     inkscape:window-maximized="1"
     inkscape:pagecheckerboard="true" />
  <metadata
     id="metadata5">
    <rdf:RDF>
      <cc:Work
         rdf:about="">
        <dc:format>image/svg+xml</dc:format>
        <dc:type
           rdf:resource="http://purl.org/dc/dcmitype/StillImage" />
        <dc:title></dc:title>
      </cc:Work>
    </rdf:RDF>
  </metadata>
  <g
     inkscape:groupmode="layer"
     id="layer3"
     inkscape:label="Layer 3">
    <path
       style="fill:none;stroke:#000000;stroke-width:0.26458332;stroke-linecap:butt;stroke-linejoin:miter;stroke-opacity:1;stroke-miterlimit:4;stroke-dasharray:0,2.91041649;stroke-dashoffset:0"
       d="M -0.70299315,1258.6271 496.05223,442.82942 l 32.07234,431.90754 162.49989,-269.40769 59.86835,436.18383 359.21029,-741.94016 254.4406,761.18366 -40.625,-660.69031 581.5785,669.24291 126.1512,145.3946 4.2763,128.2894 -2046.215481,-12.829 z"
       id="path3038"
       inkscape:connector-curvature="0" />
    <path
       style="opacity:1;fill:#26c281;fill-opacity:0;stroke:#ffffff;stroke-width:46.17840195;stroke-miterlimit:4;stroke-dasharray:0, 507.96243414999997867;stroke-dashoffset:0;stroke-opacity:0.94117647"
       d="m 2834.8749,4323.8235 c -1404.1124,-3.675 -2554.30173,-8.0519 -2555.97638,-9.7265 -1.67466,-1.6747 173.59351,-293.5351 389.48479,-648.5786 215.89129,-355.0436 573.31289,-942.7845 794.27029,-1306.0909 220.9575,-363.3064 403.6429,-660.5943 405.9677,-660.6397 2.3249,-0.045 30.8496,360.8448 63.3882,801.9784 32.5386,441.1336 60.8358,803.7741 62.8825,805.8677 4.6889,4.7963 -28.8349,59.2459 315.799,-512.9235 163.3062,-271.1249 297.8552,-487.4996 298.998,-480.8326 1.1427,6.667 51.4798,373.9326 111.8603,816.1457 60.3805,442.2131 111.3238,805.565 113.2073,807.4486 1.8837,1.8836 4.8375,1.9095 6.5643,0.057 1.7268,-1.851 222.0696,-456.1166 489.6506,-1009.4782 267.5812,-553.3615 570.5393,-1179.8385 673.2403,-1392.171 108.7145,-224.7651 189.0609,-381.7631 192.3102,-375.7767 3.0695,5.6553 218.8459,648.3145 479.5032,1428.1315 260.6572,779.8171 475.6197,1419.5467 477.6944,1421.6214 6.9387,6.9387 4.0875,-43.7086 -69.2398,-1229.9894 -40.1565,-649.6471 -71.9763,-1195.4012 -70.7107,-1212.787 l 2.3012,-31.6106 473.3498,544.7681 c 522.6963,601.5597 1110.7101,1279.1701 1598.2725,1841.8038 175.2489,202.2326 327.8985,377.6961 339.2213,389.9189 l 20.5869,22.2234 -1029.8472,-1.3388 c -566.416,-0.7362 -2178.6664,-4.3456 -3582.7787,-8.0206 z"
       id="path3040"
       inkscape:connector-curvature="0"
       transform="scale(0.26458333)" />
    <path
       style="opacity:0.125;fill:url(#linearGradient3066);fill-opacity:1;stroke:url(#linearGradient983);stroke-width:0;stroke-miterlimit:4;stroke-dasharray:none;stroke-dashoffset:0;stroke-opacity:1"
       d="m 875.30604,1252.7485 c -465.52439,-2.9446 -865.954552,-5.9368 -889.844778,-6.6491 l -43.436777,-1.2953 5.004816,-35.968 5.004817,-35.968 L 101.68235,917.40138 C 413.46026,385.16076 450.96303,321.37547 452.1177,321.37547 c 0.65251,0 8.32018,100.39753 17.03924,223.10565 8.71908,122.70809 16.24162,223.52711 16.7168,224.04226 0.47517,0.51513 1.24258,0.51513 1.70542,0 0.46283,-0.51515 37.22363,-63.65351 81.6907,-140.30742 l 80.84919,-139.37077 4.80069,35.96664 c 2.64034,19.78166 15.54181,117.3974 28.66987,216.92389 13.12808,99.52647 24.50691,185.76208 25.28627,191.63479 0.77939,5.87257 2.01526,10.66148 2.74638,10.64161 0.73113,-0.0193 62.65827,-131.77569 137.61584,-292.79098 251.7383,-540.75518 161.3489,-426.87608 268.8775,-426.24979 70.8164,0.41245 18.3113,132.42695 87.7307,348.17067 81.7403,254.03485 126.4303,389.88483 126.8221,385.51763 0.3328,-3.7091 -7.6822,-145.83359 -17.8114,-315.83223 -21.0858,-353.8874 -21.7727,-366.4103 -20.1005,-366.4103 0.6793,0 17.1123,18.9668 36.5172,42.14843 19.405,23.18163 48.0295,57.32185 63.6101,75.86717 37.2791,44.37299 144.194,172.23142 284.6626,340.42528 62.5309,74.87309 161.7429,193.60214 220.471,263.84245 l 106.7784,127.70965 1.8621,49.8758 c 1.0242,27.4316 1.9037,57.2097 1.9545,66.1731 l 0.092,16.2975 -79.9625,-0.181 -64.533,-0.146 c -79.4725,-0.1799 -525.3791,-2.7363 -990.90346,-5.681 z"
       id="path3044"
       inkscape:connector-curvature="0"
       sodipodi:nodetypes="cscccsssccsccsccsssssssssscssccssc" />
    <path
       style="opacity:1;fill:#26c281;fill-opacity:0;stroke:#ffffff;stroke-width:46.17840195;stroke-miterlimit:4;stroke-dasharray:0, 507.96243415;stroke-dashoffset:0;stroke-opacity:0.94117647"
       d="m 2834.8749,4323.8235 c -1404.1124,-3.675 -2554.30173,-8.0519 -2555.97638,-9.7265 -1.67466,-1.6747 173.59351,-293.5351 389.48479,-648.5786 215.89129,-355.0436 573.31289,-942.7845 794.27029,-1306.0909 220.9575,-363.3064 403.6429,-660.5943 405.9677,-660.6397 2.3249,-0.045 30.8496,360.8448 63.3882,801.9784 32.5386,441.1336 60.8358,803.7741 62.8825,805.8677 4.6889,4.7963 -28.8349,59.2459 315.799,-512.9235 163.3062,-271.1249 297.8552,-487.4996 298.998,-480.8326 1.9236,2.9577 51.5436,373.6294 111.8603,816.1457 60.2773,442.2272 111.3238,805.565 113.2073,807.4486 1.8837,1.8836 4.8375,1.9095 6.5643,0.057 1.7268,-1.851 222.0696,-456.1166 489.6506,-1009.4782 267.5812,-553.3615 570.5393,-1179.8385 673.2403,-1392.171 108.7145,-224.7651 189.0609,-381.7631 192.3102,-375.7767 3.0695,5.6553 218.8459,648.3145 479.5032,1428.1315 260.6572,779.8171 475.6197,1419.5467 477.6944,1421.6214 6.9387,6.9387 4.0875,-43.7086 -69.2398,-1229.9894 -40.1565,-649.6471 -71.9763,-1195.4012 -70.7107,-1212.787 l 2.3012,-31.6106 473.3498,544.7681 c 522.6963,601.5597 1110.7101,1279.1701 1598.2725,1841.8038 175.2489,202.2326 327.8985,377.6961 339.2213,389.9189 l 20.5869,22.2234 -1029.8472,-1.3388 c -566.416,-0.7362 -2178.6664,-4.3456 -3582.7787,-8.0206 z"
       id="path3046"
       inkscape:connector-curvature="0"
       transform="scale(0.26458333)"
       sodipodi:nodetypes="ccsscscscsccsscsssccssccscc" />
    <path
       style="opacity:1;fill:#26c281;fill-opacity:0;stroke:#ffffff;stroke-width:12.2180357;stroke-miterlimit:4;stroke-dasharray:0, 134.39839234;stroke-dashoffset:0;stroke-opacity:0.94117647"
       d="m 1966.9201,1300.2127 c -55.0991,-1.5361 -275.6159,-4.4563 -631.8252,-8.367 -661.17007,-7.2589 -790.1817,-8.7245 -937.58144,-10.6513 C 205.0996,1278.6793 1.259082,1274.7946 0.08485256,1273.6203 -3.5459281,1269.9896 20.467503,1228.5464 141.88937,1028.8894 218.05589,903.64687 281.7482,798.99236 283.42782,796.32386 c 1.67963,-2.66856 6.28095,-7.9605 10.22517,-11.75986 3.94422,-3.79942 35.33606,-36.73525 69.75964,-73.19084 77.11549,-81.66748 100.79964,-106.13546 101.78325,-105.15184 0.41884,0.41881 1.71337,42.92629 2.87674,94.46106 1.16337,51.5348 2.68012,94.26453 3.37058,94.95496 1.72397,1.72397 4.72988,-2.65975 26.10437,-38.06957 18.38587,-30.45881 18.59471,-30.70352 20.07013,-23.51974 0.82,3.99264 3.59047,37.08662 6.15659,73.54218 2.56614,36.45556 5.03452,66.68373 5.48529,67.17374 1.16385,1.26516 -3.09904,8.1529 62.74734,-101.38426 33.22542,-55.27132 62.17671,-103.35704 64.33624,-106.85711 5.06153,-8.20364 5.36824,-7.10959 8.37763,29.8835 6.86332,84.36734 19.65447,220.87321 21.12886,225.485 1.52953,4.78417 2.64642,3.53928 12.46886,-13.89803 5.93386,-10.53409 14.46607,-26.36919 18.96044,-35.18908 l 8.17157,-16.03618 4.87855,35.27959 c 2.68319,19.40375 8.4247,61.01763 12.7589,92.47523 4.33416,31.45759 8.45367,57.16809 9.15442,57.13439 0.70075,-0.034 53.67343,-108.51837 117.71707,-241.07708 64.04366,-132.55871 124.25881,-257.08324 133.81144,-276.7212 l 17.3684,-35.70536 19.8721,63.87552 c 10.9297,35.13154 21.7483,68.03692 24.0415,73.12308 l 4.1693,9.24759 3.3681,-6.36937 c 1.8525,-3.50314 15.3234,-42.46515 29.9354,-86.58222 14.6121,-44.11708 26.8478,-80.4934 27.1907,-80.83624 0.3429,-0.34285 11.927,12.35726 25.7424,28.22249 13.8155,15.86524 25.8246,29.12915 26.6869,29.47538 0.8623,0.34623 42.3616,122.82516 92.2206,272.17536 58.6152,175.57869 90.8587,269.27885 91.2354,265.13135 0.3205,-3.5279 -4.1993,-83.35617 -10.0439,-177.39604 -5.8446,-94.03988 -10.4343,-171.16663 -10.1993,-171.39283 0.235,-0.22616 30.7356,34.25974 67.7792,76.63537 76.2751,87.25424 101.4887,114.5897 103.7126,112.44062 0.8476,-0.81915 -0.4997,-31.12752 -2.9941,-67.35194 -6.3974,-92.9047 -7.9671,-140.69433 -4.6877,-142.72111 3.4033,-2.10336 13.8926,4.97885 90.5574,61.14322 35.0043,25.64402 64.0076,46.40593 64.4518,46.13754 0.7548,-0.45614 41.3054,46.0589 266.1184,305.26127 48.9548,56.4434 91.7793,105.7829 95.1654,109.6433 l 6.1565,7.0188 1.4554,42.1658 c 0.8005,23.1912 1.3976,42.2682 1.327,42.3933 -0.9434,1.6711 -22.6124,1.8699 -67.4803,0.6191 z"
       id="path3058"
       inkscape:connector-curvature="0" />
    <path
       style="opacity:0.078;fill:#26c281;fill-opacity:0;stroke:#ffffff;stroke-width:0;stroke-miterlimit:4;stroke-dasharray:none;stroke-dashoffset:0;stroke-opacity:0.94117647"
       d="m 7662.4766,5076.1538 c -26.5037,-0.1738 -45.096,-0.2929 -76.1161,-0.4877 -11.4419,-0.072 -27.3928,-0.1722 -35.4464,-0.2228 -8.0536,-0.051 -23.9844,-0.1505 -35.4018,-0.2217 -11.4174,-0.071 -25.0078,-0.1569 -30.2009,-0.1904 l -9.442,-0.061 v -0.4555 -0.4555 l 3.6384,0.025 c 2.0011,0.014 32.6674,0.2036 68.1474,0.4225 35.4799,0.2188 70.6964,0.4388 78.2589,0.4889 7.5625,0.05 23.7946,0.1496 36.0714,0.2212 12.2768,0.072 24.24,0.1531 26.5848,0.1809 l 4.2634,0.051 v -0.2324 c 0,-0.1278 -0.9643,-29.1549 -2.1428,-64.5046 -1.1786,-35.3497 -2.1429,-64.5365 -2.1429,-64.8593 v -0.5871 h 0.4464 c 0.4202,0 0.4465,0.014 0.4465,0.2299 0,0.489 4.2772,128.8885 4.325,129.837 l 0.051,1.0045 -3.7281,-0.013 c -2.0504,-0.01 -14.4759,-0.083 -27.612,-0.1694 z"
       id="path3068"
       inkscape:connector-curvature="0"
       transform="scale(0.26458333)" />
  </g>
  <g
     inkscape:label="Layer 1"
     inkscape:groupmode="layer"
     id="layer1"
     transform="translate(0,783)" />
  <g
     inkscape:groupmode="layer"
     id="layer2"
     inkscape:label="Layer 2">
    <path
       style="fill:none;stroke:url(#linearGradient3138);stroke-width:0;stroke-linecap:butt;stroke-linejoin:miter;stroke-opacity:1;stroke-miterlimit:4;stroke-dasharray:0,0;stroke-dashoffset:0;opacity:1"
       d="M -6.047619,1092.0952 C 0,1087.5595 470.20239,590.14283 470.20239,590.14283 v 204.10712 l 179.91666,-305.40476 36.2857,432.40476 296.33333,-569.98809 84.66662,281.2143 58.9643,-182.94048 388.5596,447.52381 c 0,0 -25.7024,-235.85715 -7.5596,-222.25 4.1637,3.12273 33.9672,25.19668 77.423,57.35908 145.9007,107.98353 445.6961,329.68853 445.6961,329.68853 l 19.6547,240.3928 c 0,0 -2059.2142284,-16.6309 -2057.7023238,-24.1904 1.5119048,-7.5596 1.5119048,-185.9643 1.5119048,-185.9643 z"
       id="path11"
       inkscape:connector-curvature="0"
       sodipodi:nodetypes="ccccccccccscccc" />
    <path
       style="fill:#ffffff;fill-opacity:1;stroke:url(#linearGradient826);stroke-width:37.79527607;stroke-opacity:1;stroke-miterlimit:4;stroke-dasharray:none;stroke-dashoffset:0;opacity:0"
       d="m 7558.0407,4916.9746 c -66,-0.6795 -453,-4.0174 -860,-7.4176 C 3204.007,4880.3669 318.07991,4846.6692 40.897843,4831.8245 l -34.5454189,-1.8501 -31.1688671,-1.6693 0.117811,-26.3853 1.440649,-322.6533 1.558461,-349.0386 75.603685,-77.56 C 136.37801,3968.06 604.7831,3474.6037 1316.7508,2722.2818 l 455.5756,-481.3976 v 384.0507 c 0,321.8851 1.243,382.6962 7.6791,375.6833 4.2235,-4.6021 155.0141,-259.0817 335.0902,-565.5103 180.0762,-306.4285 330.3356,-560.3374 333.9097,-564.2418 4.8848,-5.3361 23.3168,194.0367 74.2242,802.8571 37.2491,445.4759 68.491,810.8417 69.4266,811.9239 2.1143,2.4459 -68.3838,137.2774 571.0818,-1092.2242 301.705,-580.0886 550.0701,-1051.6613 551.9225,-1047.9393 1.8525,3.7219 73.8373,241.3043 159.9663,527.9608 86.129,286.6565 158.2268,519.3707 160.2173,517.1429 1.9906,-2.2279 51.8647,-154.4794 110.8313,-338.3365 58.9666,-183.8571 108.9476,-336.244 111.069,-338.6375 2.681,-3.025 1347.0298,1537.3572 1462.1152,1675.3212 8.8857,10.6524 8.7017,7.3772 -12.8098,-228.1123 -22.4428,-245.6817 -27.3925,-325.3343 -28.2297,-454.2857 -0.7617,-117.2994 2.3017,-151.4286 13.5932,-151.4286 5.0257,0 1951.4605,1436.7648 1970.8857,1454.8133 6.2068,5.7667 16.5731,110.0858 44.072,443.5064 19.776,239.7813 36.0526,443.0375 36.1703,451.6803 0.2114,15.4942 -0.2457,15.696 -32.6435,14.4082 -18.0714,-0.7184 -86.8571,-1.862 -152.8571,-2.5415 z"
       id="path13"
       inkscape:connector-curvature="0"
       transform="scale(0.26458333)"
       sodipodi:nodetypes="ssscccccsscscscscscscsccccscsccs" />
    <path
       style="opacity:0.652;fill:url(#linearGradient3019);fill-opacity:1;stroke:url(#linearGradient985);stroke-width:1.01498687;stroke-miterlimit:4;stroke-dasharray:0, 11.16485630000000029;stroke-dashoffset:0;stroke-opacity:1"
       d="m 1823.8738,1205.1517 c -13.7555,-0.2578 -31.4638,-0.5472 -53.2098,-0.8695 -112.3005,-1.6638 -332.2816,-4.2004 -671.6492,-7.749 -556.88523,-5.8231 -1000.08835,-11.647 -1099.136293,-14.4436 l -51.160189,-1.4445 0.06047,-90.986 0.06048,-90.98615 39.252097,-41.5712 C 9.680007,934.23748 115.16303,821.49484 222.49809,706.56248 l 195.15464,-208.96792 1.52844,96.39743 c 0.88452,55.78709 2.39175,97.27906 3.5777,98.49014 1.30348,1.33116 3.18576,0.9333 5.17228,-1.0932 3.41914,-3.48793 43.72749,-71.63877 121.85308,-206.02161 l 50.55333,-86.95609 1.62602,15.89782 c 0.89433,8.7438 8.9218,101.00375 17.83884,205.02213 16.91959,197.36934 17.67086,204.9122 20.59202,206.74463 3.42193,2.14658 0.68422,7.31963 151.6479,-286.54855 C 922.71909,285.15 938.13177,255.96978 940.01267,259.38111 c 0.89912,1.63072 11.41488,35.32229 23.36835,74.87012 56.12618,185.69168 58.58658,193.2508 62.90278,193.2508 3.0231,0 7.3973,-12.15457 34.8564,-96.85591 l 26.0834,-80.45785 166.9155,194.08287 c 81.0823,94.27917 132.4048,153.8943 165.0053,191.42471 49.0139,56.42584 55.7081,62.93088 57.5942,62.26576 2.9009,-1.02308 2.5964,-12.88176 -1.8637,-72.58964 -4.9195,-65.85619 -7.8553,-137.49997 -5.8588,-142.97788 1.7358,-4.76232 4.1742,-3.26408 50.1713,30.82578 25.3556,18.79177 184.9739,137.47086 310.8126,231.06781 82.3842,61.27612 150.2902,111.80187 156.5653,116.51077 4.8626,3.649 6.0671,6.6181 7.2402,17.8463 2.22,21.2494 18.5532,218.31675 18.5532,223.85225 v 4.9781 l -51.1601,-0.3546 c -28.1382,-0.195 -89.9343,-1.0808 -137.3248,-1.9688 z"
       id="path1477"
       inkscape:connector-curvature="0"
       sodipodi:nodetypes="sssscccsscsccsccssscssscsscscsscssccs" />
    <path
       style="opacity:1;fill:#3b8dff;fill-opacity:0;stroke:#ffffff;stroke-width:0;stroke-miterlimit:4;stroke-dasharray:none;stroke-dashoffset:0;stroke-opacity:0.94117647"
       d="m 7375.4972,4907.2879 c -33.335,-1.0941 -458.8113,-5.8039 -945.5028,-10.4662 -486.6915,-4.6623 -1063.0845,-10.2933 -1280.8734,-12.5134 -217.7889,-2.22 -594.1717,-5.9515 -836.4063,-8.2921 -2380.1245,-22.998 -4151.1982,-46.745 -4268.904665,-57.2385 l -54.548237,-4.863 v -338.8549 -338.855 L 177.15017,3940.2762 c 103.33861,-107.7607 502.44988,-528.0297 886.91393,-933.931 l 699.0256,-738.0025 4.0406,367.8424 c 2.2223,202.3134 6.4174,370.2165 9.3226,373.118 8.2464,8.2366 32.3816,-31.0609 358.7067,-584.0541 168.6094,-285.7269 307.3815,-516.6477 308.3825,-513.1574 2.896,10.0981 30.8768,325.8189 83.2833,939.7269 53.1076,622.1215 55.5608,646.4976 65.0644,646.4976 9.1473,0 25.8682,-31.4157 460.2266,-864.6905 588.609,-1129.19 656.1169,-1255.8277 662.8405,-1243.4197 3.2883,6.0685 61.1431,192.861 128.5661,415.0946 154.9313,510.6702 179.514,585.8884 191.4789,585.8884 12.6775,0 18.9528,-17.2316 130.4822,-358.3034 52.0865,-159.2872 97.5923,-289.4355 101.1241,-289.2184 5.6399,0.3466 278.3089,311.2919 1207.7709,1377.3136 134.4453,154.1985 248.0875,280.3608 252.5382,280.3608 11.307,0 10.6292,-15.7377 -12.0238,-279.2008 -19.5274,-227.1106 -27.8365,-545.3049 -14.2292,-544.906 5.8723,0.1722 122.1306,85.3089 1198.0409,877.3329 277.7919,204.4946 562.0632,413.4553 631.7139,464.3572 90.5288,66.1599 127.9699,98.3094 131.3102,112.7519 2.5699,11.1117 19.1642,192.9391 36.8763,404.061 17.712,211.1219 34.4378,404.7681 37.1686,430.325 l 4.9648,46.467 -152.3163,-1.6263 c -83.774,-0.8945 -179.5905,-2.5215 -212.9255,-3.6155 z"
       id="path3021"
       inkscape:connector-curvature="0"
       transform="scale(0.26458333)" />
    <path
       style="opacity:1;fill:#3b8dff;fill-opacity:0;stroke:#ffffff;stroke-width:0;stroke-miterlimit:4;stroke-dasharray:none;stroke-dashoffset:0;stroke-opacity:0.94117647"
       d="m 7375.4972,4907.2879 c -33.335,-1.0941 -458.8113,-5.8039 -945.5028,-10.4662 -486.6915,-4.6623 -1063.0845,-10.2933 -1280.8734,-12.5134 -217.7889,-2.22 -594.1717,-5.9515 -836.4063,-8.2921 -2380.1245,-22.998 -4151.1982,-46.745 -4268.904665,-57.2385 l -54.548237,-4.863 v -338.8549 -338.855 L 177.15017,3940.2762 c 103.33861,-107.7607 502.44988,-528.0297 886.91393,-933.931 l 699.0256,-738.0025 4.0406,367.8424 c 2.2223,202.3134 6.4174,370.2165 9.3226,373.118 8.2464,8.2366 32.3816,-31.0609 358.7067,-584.0541 168.6094,-285.7269 307.3815,-516.6477 308.3825,-513.1574 2.896,10.0981 30.8768,325.8189 83.2833,939.7269 53.1076,622.1215 55.5608,646.4976 65.0644,646.4976 9.1473,0 25.8682,-31.4157 460.2266,-864.6905 588.609,-1129.19 656.1169,-1255.8277 662.8405,-1243.4197 3.2883,6.0685 61.1431,192.861 128.5661,415.0946 154.9313,510.6702 179.514,585.8884 191.4789,585.8884 12.6775,0 18.9528,-17.2316 130.4822,-358.3034 52.0865,-159.2872 97.5923,-289.4355 101.1241,-289.2184 5.6399,0.3466 278.3089,311.2919 1207.7709,1377.3136 134.4453,154.1985 248.0875,280.3608 252.5382,280.3608 11.307,0 10.6292,-15.7377 -12.0238,-279.2008 -19.5274,-227.1106 -27.8365,-545.3049 -14.2292,-544.906 5.8723,0.1722 122.1306,85.3089 1198.0409,877.3329 277.7919,204.4946 562.0632,413.4553 631.7139,464.3572 90.5288,66.1599 127.9699,98.3094 131.3102,112.7519 2.5699,11.1117 19.1642,192.9391 36.8763,404.061 17.712,211.1219 34.4378,404.7681 37.1686,430.325 l 4.9648,46.467 -152.3163,-1.6263 c -83.774,-0.8945 -179.5905,-2.5215 -212.9255,-3.6155 z"
       id="path3023"
       inkscape:connector-curvature="0"
       transform="scale(0.26458333)" />
    <path
       style="opacity:1;fill:#3b8dff;fill-opacity:0;stroke:#ffff5e;stroke-width:0;stroke-miterlimit:4;stroke-dasharray:none;stroke-dashoffset:0;stroke-opacity:0.94117647"
       d="m 2012.7211,1043.8085 c 13.1822,9.798 24.483,19.6634 25.1127,21.9229 1.9143,6.8684 14.9938,170.6862 13.7309,171.9782 -0.6474,0.6625 -393.1071,0.14 -872.1324,-1.1611 -479.02528,-1.3011 -940.33094,-2.3639 -1025.12365,-2.3619 H 0.14008571 v 15.1201 15.1202 l 41.36229729,1.3475 c 32.431722,1.0567 1526.713517,4.6843 1929.524717,4.6843 h 85.4108 v 6.3631 6.363 l -664.4827,-1.4187 c -365.4654,-0.7803 -822.08901,-1.8268 -1014.71913,-2.3254 -209.74147,-0.543 -324.378606,-0.1847 -285.775883,0.8933 94.254133,2.6319 547.990793,8.7075 990.546413,13.2635 127.6322,1.314 246.0789,2.6102 263.2147,2.8804 17.1357,0.2701 -19.1234,0.4887 -80.5759,0.4858 -61.4526,0 -127.2025,-0.2291 -146.111,-0.5025 v 10e-5 c -18.9085,-0.2735 -136.87162,-1.5559 -262.1403,-2.8501 -443.1043,-4.5774 -811.91378,-10.0052 -841.750352,-12.3879 l -16.6523529,-1.3298 v -92.0616 -92.0617 l 52.1057509,-55.679 C 78.75531,1009.4657 184.36876,895.66006 284.79369,787.18971 429.45617,630.93782 467.69781,590.78202 468.89289,593.8757 c 0.82965,2.14765 1.57639,46.63093 1.65944,98.85182 0.0883,55.50274 0.97543,95.46828 2.13541,96.20174 2.93058,1.85302 5.70134,-2.64135 65.04807,-105.51246 29.9622,-51.93626 67.50571,-116.96148 83.42999,-144.50058 l 28.95325,-50.07103 2.56326,24.79052 c 1.40979,13.63478 9.39788,106.40263 17.7513,206.1508 16.43883,196.29578 17.0132,202.24418 19.52809,202.24418 2.49174,0 7.37815,-9.38105 120.23058,-230.82217 123.01766,-241.38755 171.5559,-335.96463 175.28561,-341.5452 2.48513,-3.71839 3.04174,-3.09708 5.90784,6.5949 70.61637,238.79476 78.81577,264.92424 82.88207,264.12307 2.2715,-0.4476 11.8919,-27.47061 31.2932,-87.90041 15.4074,-47.98975 28.497,-87.68322 29.0878,-88.20765 1.1061,-0.98172 31.7578,34.7253 246.7917,287.49523 133.2092,156.58589 141.1434,165.61592 143.4465,163.25963 0.8099,-0.82863 -1.1095,-33.9196 -4.2655,-73.5355 -5.2665,-66.11026 -7.7169,-150.06884 -4.3799,-150.06884 1.6466,0 21.818,15.09247 267.3118,200.00657"
       id="path3025"
       inkscape:connector-curvature="0"
       sodipodi:nodetypes="ccssscccsscccsscsccccsccccsscccsscsssssscscscssc" />
    <path
       style="opacity:1;fill:#3b8dff;fill-opacity:0;stroke:#ffffff;stroke-width:0;stroke-miterlimit:4;stroke-dasharray:none;stroke-dashoffset:0;stroke-opacity:0.94117647"
       d=""
       id="path3027"
       inkscape:connector-curvature="0"
       transform="scale(0.26458333)" />
  </g>
  <g
     inkscape:groupmode="layer"
     id="layer4"
     inkscape:label="Layer 4">
    <path
       style="opacity:0.09100001;fill:url(#linearGradient3114);fill-opacity:1;stroke:url(#linearGradient3116);stroke-width:0.26499999;stroke-linecap:butt;stroke-linejoin:miter;stroke-miterlimit:4;stroke-dasharray:none;stroke-opacity:0"
       d="M -71.963645,2575.1142 855.99619,1512.4506 845.30541,2378.4038 1097.6079,1630.0491 c 0,0 389.1444,744.0784 387.0062,720.5587 -2.1381,-23.5197 -55.592,-624.3416 -55.592,-624.3416 l 709.8678,983.5518 -2225.820645,-21.3815 z"
       id="path3072"
       inkscape:connector-curvature="0" />
  </g>
</svg>
