<?xml version="1.0" encoding="UTF-8" standalone="no"?>
<!-- Created with Inkscape (http://www.inkscape.org/) -->

<svg
   xmlns:dc="http://purl.org/dc/elements/1.1/"
   xmlns:cc="http://creativecommons.org/ns#"
   xmlns:rdf="http://www.w3.org/1999/02/22-rdf-syntax-ns#"
   xmlns:svg="http://www.w3.org/2000/svg"
   xmlns="http://www.w3.org/2000/svg"
   xmlns:sodipodi="http://sodipodi.sourceforge.net/DTD/sodipodi-0.dtd"
   xmlns:inkscape="http://www.inkscape.org/namespaces/inkscape"
   width="500mm"
   height="600mm"
   viewBox="0 0 500 600"
   version="1.1"
   id="svg8"
   inkscape:version="0.92.4 (f8dce91, 2019-08-02)"
   sodipodi:docname="home.svg">
  <defs
     id="defs2" />
  <sodipodi:namedview
     id="base"
     pagecolor="#ffffff"
     bordercolor="#666666"
     borderopacity="1.0"
     inkscape:pageopacity="0.0"
     inkscape:pageshadow="2"
     inkscape:zoom="0.175"
     inkscape:cx="1390.9816"
     inkscape:cy="1159.3639"
     inkscape:document-units="mm"
     inkscape:current-layer="layer1"
     showgrid="false"
     inkscape:window-width="1853"
     inkscape:window-height="1025"
     inkscape:window-x="67"
     inkscape:window-y="27"
     inkscape:window-maximized="1" />
  <metadata
     id="metadata5">
    <rdf:RDF>
      <cc:Work
         rdf:about="">
        <dc:format>image/svg+xml</dc:format>
        <dc:type
           rdf:resource="http://purl.org/dc/dcmitype/StillImage" />
        <dc:title />
      </cc:Work>
    </rdf:RDF>
  </metadata>
  <g
     inkscape:label="Layer 1"
     inkscape:groupmode="layer"
     id="layer1"
     transform="translate(0,303)">
    <rect
       style="fill:#7505ab;fill-opacity:1;stroke-width:0.26458332"
       id="rect1368"
       width="499.68454"
       height="600.60419"
       x="0"
       y="-303.0372" />
    <g
       id="g5178"
       transform="matrix(6.9922753,0,0,6.9922753,165.93497,-86.63964)"
       style="fill:#ffffff;fill-opacity:1">
      <path
         id="path5164"
         d="M 9,22 H 5 A 1,1 0 0 1 4,21 V 11 l 8,-8 8,8 v 10 a 1,1 0 0 1 -1,1 h -4 a 1,1 0 0 1 -1,-1 v -4 a 1,1 0 0 0 -1,-1 h -2 a 1,1 0 0 0 -1,1 v 4 a 1,1 0 0 1 -1,1 z m 3,-9 a 2,2 0 1 0 0,-4 2,2 0 0 0 0,4 z"
         class="primary"
         inkscape:connector-curvature="0"
         style="fill:#ffffff;fill-opacity:1" />
      <path
         id="path5166"
         d="m 12.01,4.42 -8.3,8.3 A 1.0005623,1.0005623 0 1 1 2.29,11.31 l 9.02,-9.02 a 1,1 0 0 1 1.41,0 l 8.99,9.02 a 1.0005623,1.0005623 0 0 1 -1.42,1.41 z"
         class="secondary"
         inkscape:connector-curvature="0"
         style="fill:#ffffff;fill-opacity:1" />
    </g>
  </g>
</svg>
