<?xml version="1.0" encoding="UTF-8" standalone="no"?>
<!-- Created with Inkscape (http://www.inkscape.org/) -->

<svg
   xmlns:dc="http://purl.org/dc/elements/1.1/"
   xmlns:cc="http://creativecommons.org/ns#"
   xmlns:rdf="http://www.w3.org/1999/02/22-rdf-syntax-ns#"
   xmlns:svg="http://www.w3.org/2000/svg"
   xmlns="http://www.w3.org/2000/svg"
   xmlns:sodipodi="http://sodipodi.sourceforge.net/DTD/sodipodi-0.dtd"
   xmlns:inkscape="http://www.inkscape.org/namespaces/inkscape"
   width="100mm"
   height="80mm"
   viewBox="0 0 100 80"
   version="1.1"
   id="svg74"
   inkscape:version="0.92.3 (2405546, 2018-03-11)"
   sodipodi:docname="logo_6.svg">
  <defs
     id="defs68" />
  <sodipodi:namedview
     id="base"
     pagecolor="#ffffff"
     bordercolor="#666666"
     borderopacity="1.0"
     inkscape:pageopacity="0.0"
     inkscape:pageshadow="2"
     inkscape:zoom="1.979899"
     inkscape:cx="270.84934"
     inkscape:cy="165.52897"
     inkscape:document-units="mm"
     inkscape:current-layer="layer1"
     showgrid="false"
     inkscape:window-width="2560"
     inkscape:window-height="1377"
     inkscape:window-x="-8"
     inkscape:window-y="-8"
     inkscape:window-maximized="1" />
  <metadata
     id="metadata71">
    <rdf:RDF>
      <cc:Work
         rdf:about="">
        <dc:format>image/svg+xml</dc:format>
        <dc:type
           rdf:resource="http://purl.org/dc/dcmitype/StillImage" />
        <dc:title></dc:title>
      </cc:Work>
    </rdf:RDF>
  </metadata>
  <g
     inkscape:label="Layer 1"
     inkscape:groupmode="layer"
     id="layer1"
     transform="translate(0,-217)">
    <path
       inkscape:connector-curvature="0"
       id="path4048"
       style="fill:#00aeee;fill-opacity:1;fill-rule:nonzero;stroke:none;stroke-width:0.28623453"
       d="m 60.930394,226.8664 c 7.500199,0.98894 13.098377,4.84737 17.40821,11.52723 -7.278089,-1.73602 -13.515416,-0.44881 -18.759241,4.32615 -5.275006,4.80359 -7.064274,10.91956 -6.055288,18.19565 -3.309736,-2.55809 -6.909985,-3.86646 -10.911251,-3.43826 -3.961214,0.4242 -7.367119,2.1044 -9.900864,5.29505 -2.470776,3.11137 -3.578213,6.67157 -3.172052,10.61102 0.398439,3.85785 2.165079,7.09318 5.021408,9.64008 -0.273349,0.62686 -8.865822,0.77941 -12.741439,0.12995 -6.901398,-1.15639 -12.6899241,-7.20166 -13.5795441,-14.12939 -0.1488399,-0.76883 -0.4121776,-2.52889 0.041509,-5.40497 1.17328,-6.4546 4.8665591,-11.01145 10.6662431,-13.95135 0,-0.96978 -0.02664,-1.84737 0.0041,-2.72267 0.190918,-5.37406 4.203924,-9.981 9.266265,-10.65394 5.663726,-0.75308 10.749254,2.50684 12.259432,7.91611 0.277927,0.99552 0.361804,2.04943 0.48459,3.08246 0.109335,0.92139 0.653193,1.43431 1.505024,1.43861 0.957454,0.005 1.528498,-0.59251 1.505308,-1.58115 -0.0203,-0.87388 -0.07362,-1.75577 -0.218399,-2.61619 -0.548715,-3.25562 -2.28902,-5.87354 -4.703119,-8.22066 4.332731,-5.29877 9.667581,-8.51462 16.366889,-9.37704 3.164607,-0.18635 3.865889,-0.24817 5.512021,-0.0667" />
    <path
       inkscape:connector-curvature="0"
       id="path4052"
       style="fill:#00aeee;fill-opacity:1;fill-rule:nonzero;stroke:none;stroke-width:0.28623453"
       d="m 89.166292,257.13135 c -0.02234,9.12086 -7.478465,16.4791 -16.648263,16.42957 -9.035004,-0.049 -16.369761,-7.48188 -16.34715,-16.5661 0.02262,-9.11858 7.48189,-16.4794 16.648558,-16.42902 9.035555,0.0499 16.369169,7.48189 16.346855,16.56555" />
    <path
       inkscape:connector-curvature="0"
       id="path4056"
       style="fill:#ffffff;fill-opacity:1;fill-rule:nonzero;stroke:none;stroke-width:0.28623453"
       d="m 32.415537,271.83401 c 0.02806,-6.32921 5.243242,-11.49289 11.580759,-11.46627 6.427692,0.0272 11.569313,5.25727 11.510355,11.70814 -0.05756,6.33122 -5.247255,11.39242 -11.667496,11.37896 -6.293441,-0.0131 -11.451958,-5.26098 -11.423618,-11.62083" />
    <path
       inkscape:connector-curvature="0"
       id="path4060"
       style="fill:#ffffff;fill-opacity:1;fill-rule:nonzero;stroke:none;stroke-width:0.28623453"
       d="m 56.170918,280.22341 c 0.01632,-3.67783 3.046678,-6.67786 6.728806,-6.66212 3.734778,0.0154 6.722216,3.05441 6.688143,6.80237 -0.03379,3.67897 -3.049248,6.61946 -6.779465,6.61172 -3.656651,-0.007 -6.653801,-3.05669 -6.637484,-6.75197" />
    <path
       inkscape:connector-curvature="0"
       id="path4064"
       style="fill:#ffffff;fill-opacity:1;fill-rule:nonzero;stroke:none;stroke-width:0.28623453"
       d="m 73.439588,280.23377 c 0.01283,-2.89384 2.397508,-5.25498 5.295341,-5.24268 2.938772,0.0128 5.289613,2.40352 5.26271,5.35315 -0.02632,2.89499 -2.399214,5.20919 -5.334851,5.2026 -2.877509,-0.005 -5.236075,-2.40521 -5.2232,-5.31307" />
    <path
       inkscape:connector-curvature="0"
       id="path4068"
       style="fill:#ffffff;fill-opacity:1;fill-rule:nonzero;stroke:none;stroke-width:0.28623453"
       d="m 85.758721,274.36315 c 0.009,-1.83877 1.523343,-3.33892 3.364405,-3.3312 1.867388,0.007 3.361254,1.52735 3.344073,3.40133 -0.01681,1.83963 -1.524489,3.31001 -3.389587,3.30601 -1.828462,-0.004 -3.326909,-1.5285 -3.318891,-3.37614" />
  </g>
</svg>
