<?xml version="1.0" encoding="UTF-8" standalone="no"?>
<!-- Created with Inkscape (http://www.inkscape.org/) -->

<svg
   xmlns:dc="http://purl.org/dc/elements/1.1/"
   xmlns:cc="http://creativecommons.org/ns#"
   xmlns:rdf="http://www.w3.org/1999/02/22-rdf-syntax-ns#"
   xmlns:svg="http://www.w3.org/2000/svg"
   xmlns="http://www.w3.org/2000/svg"
   xmlns:xlink="http://www.w3.org/1999/xlink"
   xmlns:sodipodi="http://sodipodi.sourceforge.net/DTD/sodipodi-0.dtd"
   xmlns:inkscape="http://www.inkscape.org/namespaces/inkscape"
   width="200mm"
   height="70mm"
   viewBox="0 0 200 70"
   version="1.1"
   id="svg73"
   inkscape:version="0.92.3 (2405546, 2018-03-11)"
   sodipodi:docname="logo_9.2.svg">
  <defs
     id="defs67">
    <linearGradient
       inkscape:collect="always"
       id="linearGradient5073">
      <stop
         style="stop-color:#000000;stop-opacity:1;"
         offset="0"
         id="stop5069" />
      <stop
         style="stop-color:#000000;stop-opacity:0;"
         offset="1"
         id="stop5071" />
    </linearGradient>
    <linearGradient
       inkscape:collect="always"
       id="linearGradient5057">
      <stop
         style="stop-color:#000000;stop-opacity:1;"
         offset="0"
         id="stop5053" />
      <stop
         style="stop-color:#000000;stop-opacity:0;"
         offset="1"
         id="stop5055" />
    </linearGradient>
    <linearGradient
       inkscape:collect="always"
       id="linearGradient5041">
      <stop
         style="stop-color:#838383;stop-opacity:1;"
         offset="0"
         id="stop5037" />
      <stop
         style="stop-color:#838383;stop-opacity:0;"
         offset="1"
         id="stop5039" />
    </linearGradient>
    <clipPath
       id="clipPath102"
       clipPathUnits="userSpaceOnUse">
      <path
         inkscape:connector-curvature="0"
         id="path100"
         d="M 0,1080 H 1920 V 0 H 0 Z" />
    </clipPath>
    <radialGradient
       inkscape:collect="always"
       xlink:href="#linearGradient5041"
       id="radialGradient5043"
       cx="388.47897"
       cy="209.58266"
       fx="388.47897"
       fy="209.58266"
       r="302.67582"
       gradientTransform="matrix(0.29328954,0,0,0.01762755,-11.462516,281.21506)"
       gradientUnits="userSpaceOnUse" />
    <radialGradient
       inkscape:collect="always"
       xlink:href="#linearGradient5057"
       id="radialGradient5059"
       cx="388.48452"
       cy="209.58269"
       fx="388.48452"
       fy="209.58269"
       r="302.17622"
       gradientTransform="matrix(0.32900484,0,0,0.01721439,-25.337161,281.30166)"
       gradientUnits="userSpaceOnUse" />
    <radialGradient
       inkscape:collect="always"
       xlink:href="#linearGradient5073"
       id="radialGradient5077"
       gradientUnits="userSpaceOnUse"
       gradientTransform="matrix(0.96941169,0,0,0.06827764,12.403829,312.09781)"
       cx="102.76513"
       cy="282.43381"
       fx="102.76513"
       fy="282.43381"
       r="80.319491" />
  </defs>
  <sodipodi:namedview
     id="base"
     pagecolor="#ffffff"
     bordercolor="#666666"
     borderopacity="1.0"
     inkscape:pageopacity="0.0"
     inkscape:pageshadow="2"
     inkscape:zoom="1.4"
     inkscape:cx="488.60286"
     inkscape:cy="226.1493"
     inkscape:document-units="mm"
     inkscape:current-layer="layer1"
     showgrid="false"
     inkscape:window-width="2560"
     inkscape:window-height="1377"
     inkscape:window-x="-8"
     inkscape:window-y="-8"
     inkscape:window-maximized="1"
     inkscape:pagecheckerboard="true" />
  <metadata
     id="metadata70">
    <rdf:RDF>
      <cc:Work
         rdf:about="">
        <dc:format>image/svg+xml</dc:format>
        <dc:type
           rdf:resource="http://purl.org/dc/dcmitype/StillImage" />
        <dc:title></dc:title>
      </cc:Work>
    </rdf:RDF>
  </metadata>
  <g
     inkscape:label="Layer 1"
     inkscape:groupmode="layer"
     id="layer1"
     transform="translate(0,-227)">
    <g
       transform="matrix(0.18053033,0,0,-0.18053033,-71.338178,349.47329)"
       inkscape:label="logo_3"
       id="g94">
      <g
         id="g96">
        <g
           clip-path="url(#clipPath102)"
           id="g98">
          <g
             transform="translate(789.6812,592.896)"
             id="g104">
            <path
               inkscape:connector-curvature="0"
               id="path106"
               style="fill:#00aeee;fill-opacity:1;fill-rule:nonzero;stroke:none"
               d="m 0,0 c 0.866,-1.584 1.864,-3.541 2.996,-5.868 1.13,-2.329 2.31,-4.849 3.537,-7.56 1.227,-2.712 2.443,-5.485 3.646,-8.316 1.203,-2.833 2.333,-5.497 3.393,-7.992 1.059,2.495 2.189,5.159 3.393,7.992 1.203,2.831 2.418,5.604 3.645,8.316 1.227,2.711 2.407,5.231 3.538,7.56 1.131,2.327 2.13,4.284 2.996,5.868 h 10.224 c 0.48,-3.312 0.924,-7.02 1.332,-11.124 0.407,-4.104 0.767,-8.377 1.08,-12.816 0.312,-4.44 0.6,-8.892 0.864,-13.356 0.263,-4.464 0.492,-8.665 0.684,-12.6 H 30.384 c -0.144,4.848 -0.336,10.127 -0.576,15.84 -0.241,5.712 -0.6,11.472 -1.08,17.28 -0.867,-2.016 -1.83,-4.248 -2.889,-6.696 -1.06,-2.448 -2.107,-4.896 -3.142,-7.344 -1.035,-2.448 -2.034,-4.788 -2.997,-7.02 -0.963,-2.232 -1.782,-4.14 -2.456,-5.724 H 9.396 c -0.675,1.584 -1.493,3.492 -2.456,5.724 -0.962,2.232 -1.963,4.572 -2.998,7.02 -1.035,2.448 -2.082,4.896 -3.141,7.344 -1.06,2.448 -2.023,4.68 -2.889,6.696 -0.48,-5.808 -0.84,-11.568 -1.08,-17.28 -0.241,-5.713 -0.432,-10.992 -0.576,-15.84 h -10.944 c 0.191,3.935 0.42,8.136 0.684,12.6 0.263,4.464 0.551,8.916 0.864,13.356 0.312,4.439 0.672,8.712 1.08,12.816 0.408,4.104 0.852,7.812 1.332,11.124 z" />
          </g>
          <g
             transform="translate(864.8481,567.9839)"
             id="g108">
            <path
               inkscape:connector-curvature="0"
               id="path110"
               style="fill:#00aeee;fill-opacity:1;fill-rule:nonzero;stroke:none"
               d="m 0,0 c 0,-2.448 0.299,-4.656 0.9,-6.624 0.6,-1.969 1.464,-3.661 2.592,-5.076 1.127,-1.416 2.508,-2.508 4.14,-3.276 1.631,-0.768 3.503,-1.152 5.616,-1.152 2.064,0 3.924,0.384 5.58,1.152 1.656,0.768 3.047,1.86 4.176,3.276 1.127,1.415 1.991,3.107 2.592,5.076 0.6,1.968 0.9,4.176 0.9,6.624 0,2.448 -0.3,4.668 -0.9,6.66 -0.601,1.991 -1.465,3.696 -2.592,5.112 -1.129,1.416 -2.52,2.508 -4.176,3.276 -1.656,0.767 -3.516,1.152 -5.58,1.152 -2.113,0 -3.985,-0.396 -5.616,-1.188 C 6,14.22 4.619,13.115 3.492,11.7 2.364,10.284 1.5,8.58 0.9,6.588 0.299,4.596 0,2.4 0,0 m 38.088,0 c 0,-4.272 -0.637,-8.028 -1.908,-11.268 -1.272,-3.24 -3.013,-5.952 -5.22,-8.136 -2.208,-2.185 -4.836,-3.828 -7.884,-4.932 -3.049,-1.104 -6.325,-1.656 -9.828,-1.656 -3.409,0 -6.624,0.552 -9.648,1.656 -3.024,1.104 -5.664,2.747 -7.92,4.932 -2.257,2.184 -4.032,4.896 -5.328,8.136 -1.296,3.24 -1.944,6.996 -1.944,11.268 0,4.272 0.672,8.028 2.016,11.268 1.344,3.24 3.156,5.964 5.436,8.172 2.279,2.207 4.92,3.863 7.92,4.968 2.999,1.104 6.156,1.656 9.468,1.656 3.408,0 6.624,-0.552 9.648,-1.656 3.024,-1.105 5.664,-2.761 7.92,-4.968 2.256,-2.208 4.032,-4.932 5.328,-8.172 C 37.44,8.028 38.088,4.272 38.088,0" />
          </g>
          <g
             transform="translate(937.9282,552.144)"
             id="g112">
            <path
               inkscape:connector-curvature="0"
               id="path114"
               style="fill:#00aeee;fill-opacity:1;fill-rule:nonzero;stroke:none"
               d="m 0,0 c 0.527,-0.048 1.14,-0.084 1.836,-0.108 0.695,-0.025 1.523,-0.036 2.484,-0.036 5.616,0 9.78,1.415 12.492,4.248 2.711,2.832 4.068,6.743 4.068,11.736 0,5.231 -1.296,9.191 -3.888,11.88 C 14.4,30.408 10.296,31.752 4.68,31.752 3.912,31.752 3.12,31.74 2.304,31.716 1.487,31.691 0.72,31.631 0,31.536 Z M 32.472,15.84 C 32.472,11.52 31.798,7.751 30.457,4.536 29.111,1.32 27.204,-1.344 24.732,-3.456 22.259,-5.569 19.248,-7.153 15.696,-8.208 12.143,-9.263 8.16,-9.792 3.744,-9.792 c -2.016,0 -4.369,0.084 -7.056,0.251 -2.689,0.169 -5.328,0.516 -7.92,1.045 v 48.6 c 2.592,0.479 5.292,0.803 8.1,0.972 2.808,0.168 5.22,0.252 7.236,0.252 4.271,0 8.147,-0.48 11.628,-1.44 3.479,-0.961 6.467,-2.473 8.964,-4.536 2.495,-2.064 4.415,-4.705 5.761,-7.92 1.341,-3.216 2.015,-7.081 2.015,-11.592" />
          </g>
          <g
             transform="translate(800.9687,470.125)"
             id="g116">
            <path
               inkscape:connector-curvature="0"
               id="path118"
               style="fill:#ffffff;fill-opacity:1;fill-rule:nonzero;stroke:none"
               d="m 0,0 c 1.282,-1.283 3.501,-1.925 6.655,-1.925 h 6.71 c 0.806,0 1.502,-0.294 2.09,-0.88 0.586,-0.588 0.88,-1.284 0.88,-2.09 v -7.259 c 0,-0.809 -0.294,-1.504 -0.88,-2.091 -0.588,-0.588 -1.284,-0.88 -2.09,-0.88 h -8.14 c -6.968,0 -12.284,1.705 -15.95,5.115 -3.668,3.41 -5.5,8.487 -5.5,15.235 v 23.65 h -7.26 c -0.808,0 -1.504,0.292 -2.09,0.88 -0.588,0.587 -0.88,1.282 -0.88,2.091 v 7.259 c 0,0.806 0.292,1.502 0.88,2.09 0.586,0.586 1.282,0.88 2.09,0.88 h 7.26 v 17.93 c 0,0.806 0.292,1.503 0.88,2.091 0.586,0.586 1.282,0.879 2.09,0.879 h 8.36 c 0.806,0 1.502,-0.293 2.09,-0.879 0.586,-0.588 0.88,-1.285 0.88,-2.091 v -17.93 h 14.19 c 0.806,0 1.502,-0.294 2.09,-0.88 0.586,-0.588 0.88,-1.284 0.88,-2.09 v -7.259 c 0,-0.809 -0.294,-1.504 -0.88,-2.091 -0.588,-0.588 -1.284,-0.88 -2.09,-0.88 H -1.925 V 5.555 C -1.925,3.135 -1.284,1.282 0,0" />
          </g>
          <g
             transform="translate(864.3833,489.9805)"
             id="g120">
            <path
               inkscape:connector-curvature="0"
               id="path122"
               style="fill:#ffffff;fill-opacity:1;fill-rule:nonzero;stroke:none"
               d="m 0,0 c -0.808,6.746 -4.878,10.119 -12.21,10.119 -3.814,0 -6.803,-1.027 -8.965,-3.08 C -23.339,4.986 -24.568,2.64 -24.86,0 Z M 1.98,19.524 C 6.086,16.994 9.257,13.602 11.495,9.35 13.731,5.096 14.85,0.439 14.85,-4.621 V -9.57 c 0,-0.809 -0.294,-1.504 -0.88,-2.09 -0.588,-0.588 -1.284,-0.881 -2.09,-0.881 h -36.74 c 0,-3.153 1.246,-5.664 3.74,-7.535 2.492,-1.869 5.462,-2.805 8.91,-2.805 4.032,0 7.15,0.843 9.35,2.53 0.806,0.587 1.466,0.991 1.98,1.21 0.512,0.221 1.21,0.33 2.09,0.33 h 8.8 c 0.806,0 1.502,-0.275 2.09,-0.824 0.586,-0.551 0.88,-1.193 0.88,-1.926 0,-1.54 -1.009,-3.484 -3.025,-5.83 -2.018,-2.347 -4.933,-4.382 -8.745,-6.105 -3.814,-1.722 -8.288,-2.584 -13.42,-2.584 -5.428,0 -10.175,1.246 -14.245,3.74 -4.07,2.492 -7.205,5.976 -9.405,10.449 -2.2,4.473 -3.3,9.643 -3.3,15.51 0,5.5 1.1,10.506 3.3,15.016 2.2,4.51 5.352,8.085 9.46,10.724 4.106,2.641 8.836,3.96 14.19,3.96 5.352,0 10.082,-1.264 14.19,-3.795" />
          </g>
          <g
             transform="translate(907.1167,470.2344)"
             id="g124">
            <path
               inkscape:connector-curvature="0"
               id="path126"
               style="fill:#ffffff;fill-opacity:1;fill-rule:nonzero;stroke:none"
               d="m 0,0 c 2.456,-2.09 5.371,-3.135 8.745,-3.135 3.3,0 5.756,0.477 7.37,1.43 1.613,0.953 3.116,2.457 4.51,4.511 0.586,0.952 1.155,1.686 1.705,2.2 0.55,0.512 1.191,0.769 1.925,0.769 h 8.36 c 0.806,0 1.521,-0.293 2.145,-0.879 0.622,-0.588 0.897,-1.285 0.825,-2.09 -0.147,-2.42 -1.21,-5.134 -3.19,-8.14 -1.98,-3.008 -4.969,-5.594 -8.965,-7.756 -3.998,-2.162 -8.893,-3.244 -14.685,-3.244 -5.208,0 -9.809,1.136 -13.805,3.41 -3.998,2.272 -7.169,5.334 -9.515,9.185 -2.348,3.85 -3.704,8.047 -4.07,12.594 -0.074,0.881 -0.11,2.346 -0.11,4.401 0,2.126 0.036,3.63 0.11,4.51 0.366,4.546 1.705,8.745 4.015,12.595 2.31,3.85 5.481,6.93 9.515,9.24 4.032,2.309 8.652,3.464 13.86,3.464 5.792,0 10.687,-1.083 14.685,-3.245 3.996,-2.164 6.985,-4.748 8.965,-7.755 1.98,-3.007 3.043,-5.719 3.19,-8.139 0.072,-0.809 -0.203,-1.504 -0.825,-2.09 -0.624,-0.588 -1.339,-0.881 -2.145,-0.881 h -8.36 c -0.734,0 -1.375,0.257 -1.925,0.771 -0.55,0.512 -1.119,1.246 -1.705,2.2 -1.394,2.053 -2.897,3.556 -4.51,4.51 -1.614,0.952 -4.07,1.429 -7.37,1.429 -3.374,0 -6.289,-1.045 -8.745,-3.135 -2.458,-2.089 -3.905,-5.262 -4.345,-9.514 -0.074,-0.734 -0.11,-2.019 -0.11,-3.851 0,-1.834 0.036,-3.117 0.11,-3.849 C -3.905,5.262 -2.458,2.091 0,0" />
          </g>
          <g
             transform="translate(1007.4922,455.8799)"
             id="g128">
            <path
               inkscape:connector-curvature="0"
               id="path130"
               style="fill:#ffffff;fill-opacity:1;fill-rule:nonzero;stroke:none"
               d="m 0,0 c -0.588,-0.588 -1.285,-0.88 -2.091,-0.88 h -8.36 c -0.807,0 -1.504,0.292 -2.09,0.88 -0.588,0.587 -0.879,1.282 -0.879,2.091 V 30.03 c 0,4.546 -1.064,8.102 -3.191,10.67 -2.127,2.567 -5.243,3.85 -9.35,3.85 -3.813,0 -6.857,-1.321 -9.13,-3.959 C -37.365,37.95 -38.5,34.431 -38.5,30.03 V 2.091 c 0,-0.809 -0.295,-1.504 -0.881,-2.091 -0.588,-0.588 -1.283,-0.88 -2.09,-0.88 h -8.36 c -0.808,0 -1.503,0.292 -2.089,0.88 -0.588,0.587 -0.881,1.282 -0.881,2.091 V 74.25 c 0,0.806 0.293,1.503 0.881,2.091 0.586,0.586 1.281,0.879 2.089,0.879 h 8.36 c 0.807,0 1.502,-0.293 2.09,-0.879 0.586,-0.588 0.881,-1.285 0.881,-2.091 V 50.82 c 4.399,4.4 9.68,6.6 15.84,6.6 8.285,0 14.281,-2.384 17.984,-7.149 3.702,-4.768 5.555,-10.965 5.555,-18.59 V 2.091 C 0.879,1.282 0.586,0.587 0,0" />
          </g>
          <g
             transform="translate(1075.8008,455.8799)"
             id="g132">
            <path
               inkscape:connector-curvature="0"
               id="path134"
               style="fill:#ffffff;fill-opacity:1;fill-rule:nonzero;stroke:none"
               d="m 0,0 c -0.588,-0.588 -1.285,-0.88 -2.091,-0.88 h -8.36 c -0.807,0 -1.504,0.292 -2.09,0.88 -0.588,0.587 -0.879,1.282 -0.879,2.091 V 30.03 c 0,4.546 -1.064,8.102 -3.191,10.67 -2.127,2.567 -5.243,3.85 -9.35,3.85 -3.813,0 -6.857,-1.321 -9.13,-3.959 C -37.365,37.95 -38.5,34.431 -38.5,30.03 V 2.091 c 0,-0.809 -0.295,-1.504 -0.881,-2.091 -0.588,-0.588 -1.283,-0.88 -2.09,-0.88 h -8.359 c -0.809,0 -1.504,0.292 -2.09,0.88 -0.588,0.587 -0.881,1.282 -0.881,2.091 v 51.26 c 0,0.805 0.293,1.502 0.881,2.089 0.586,0.586 1.281,0.88 2.09,0.88 h 8.359 c 0.807,0 1.502,-0.294 2.09,-0.88 0.586,-0.587 0.881,-1.284 0.881,-2.089 V 50.82 c 4.399,4.4 9.68,6.6 15.84,6.6 8.285,0 14.281,-2.384 17.984,-7.149 3.702,-4.768 5.555,-10.965 5.555,-18.59 V 2.091 C 0.879,1.282 0.586,0.587 0,0" />
          </g>
          <g
             transform="translate(1107.5332,497.46)"
             id="g136">
            <path
               inkscape:connector-curvature="0"
               id="path138"
               style="fill:#ffffff;fill-opacity:1;fill-rule:nonzero;stroke:none"
               d="m 0,0 c -2.457,-1.76 -3.904,-4.729 -4.344,-8.91 -0.074,-0.734 -0.111,-2.384 -0.111,-4.95 0,-2.568 0.037,-4.217 0.111,-4.95 0.44,-4.179 1.887,-7.15 4.344,-8.91 2.457,-1.759 5.445,-2.64 8.965,-2.64 3.52,0 6.508,0.881 8.966,2.64 2.456,1.76 3.905,4.731 4.344,8.91 0.147,1.466 0.221,3.116 0.221,4.95 0,1.832 -0.074,3.482 -0.221,4.95 C 21.836,-4.729 20.387,-1.76 17.931,0 15.473,1.761 12.485,2.64 8.965,2.64 5.445,2.64 2.457,1.761 0,0 m 36.795,-13.97 c 0,-1.908 -0.073,-3.74 -0.219,-5.5 -0.369,-4.474 -1.724,-8.544 -4.07,-12.211 -2.348,-3.667 -5.555,-6.562 -9.625,-8.689 -4.07,-2.126 -8.709,-3.19 -13.916,-3.19 -5.207,0 -9.844,1.064 -13.914,3.19 -4.071,2.127 -7.28,5.022 -9.625,8.689 -2.348,3.667 -3.704,7.737 -4.071,12.211 -0.074,0.88 -0.109,2.712 -0.109,5.5 0,2.86 0.035,4.731 0.109,5.61 0.367,4.547 1.723,8.652 4.071,12.32 2.345,3.666 5.554,6.562 9.625,8.689 4.07,2.127 8.707,3.191 13.914,3.191 5.207,0 9.846,-1.064 13.916,-3.191 4.07,-2.127 7.277,-5.023 9.625,-8.689 2.346,-3.668 3.701,-7.773 4.07,-12.32 0.146,-1.76 0.219,-3.629 0.219,-5.61" />
          </g>
          <g
             transform="translate(1170.1768,455.8799)"
             id="g140">
            <path
               inkscape:connector-curvature="0"
               id="path142"
               style="fill:#ffffff;fill-opacity:1;fill-rule:nonzero;stroke:none"
               d="m 0,0 c -0.587,-0.588 -1.284,-0.88 -2.09,-0.88 h -8.36 c -0.808,0 -1.504,0.292 -2.09,0.88 -0.588,0.587 -0.88,1.282 -0.88,2.091 V 74.25 c 0,0.806 0.292,1.503 0.88,2.091 0.586,0.586 1.282,0.879 2.09,0.879 h 8.36 c 0.806,0 1.503,-0.293 2.09,-0.879 0.587,-0.588 0.88,-1.285 0.88,-2.091 V 2.091 C 0.88,1.282 0.587,0.587 0,0" />
          </g>
          <g
             transform="translate(1202.4609,497.46)"
             id="g144">
            <path
               inkscape:connector-curvature="0"
               id="path146"
               style="fill:#ffffff;fill-opacity:1;fill-rule:nonzero;stroke:none"
               d="m 0,0 c -2.457,-1.76 -3.904,-4.729 -4.345,-8.91 -0.074,-0.734 -0.11,-2.384 -0.11,-4.95 0,-2.568 0.036,-4.217 0.11,-4.95 0.441,-4.179 1.888,-7.15 4.345,-8.91 2.456,-1.759 5.445,-2.64 8.965,-2.64 3.519,0 6.508,0.881 8.965,2.64 2.457,1.76 3.905,4.731 4.345,8.91 0.147,1.466 0.22,3.116 0.22,4.95 0,1.832 -0.073,3.482 -0.22,4.95 C 21.835,-4.729 20.387,-1.76 17.93,0 15.473,1.761 12.484,2.64 8.965,2.64 5.445,2.64 2.456,1.761 0,0 m 36.795,-13.97 c 0,-1.908 -0.074,-3.74 -0.22,-5.5 -0.368,-4.474 -1.723,-8.544 -4.07,-12.211 -2.348,-3.667 -5.555,-6.562 -9.625,-8.689 -4.069,-2.126 -8.708,-3.19 -13.915,-3.19 -5.207,0 -9.845,1.064 -13.914,3.19 -4.071,2.127 -7.28,5.022 -9.625,8.689 -2.349,3.667 -3.705,7.737 -4.071,12.211 -0.074,0.88 -0.11,2.712 -0.11,5.5 0,2.86 0.036,4.731 0.11,5.61 0.366,4.547 1.722,8.652 4.071,12.32 2.345,3.666 5.554,6.562 9.625,8.689 4.069,2.127 8.707,3.191 13.914,3.191 5.207,0 9.846,-1.064 13.915,-3.191 4.07,-2.127 7.277,-5.023 9.625,-8.689 2.347,-3.668 3.702,-7.773 4.07,-12.32 0.146,-1.76 0.22,-3.629 0.22,-5.61" />
          </g>
          <g
             transform="translate(1267.0293,471.1699)"
             id="g148">
            <path
               inkscape:connector-curvature="0"
               id="path150"
               style="fill:#ffffff;fill-opacity:1;fill-rule:nonzero;stroke:none"
               d="m 0,0 c 2.457,-2.714 5.775,-4.07 9.955,-4.07 3.666,0 6.711,1.082 9.131,3.246 2.42,2.162 3.811,5.186 4.18,9.074 0.146,1.467 0.219,2.859 0.219,4.18 0,1.32 -0.073,2.713 -0.219,4.179 -0.369,3.741 -1.78,6.729 -4.236,8.966 -2.458,2.236 -5.482,3.355 -9.075,3.355 -3.74,0 -6.82,-1.1 -9.24,-3.3 -2.42,-2.2 -3.85,-5.573 -4.289,-10.12 C -3.648,14.776 -3.685,13.75 -3.685,12.43 -3.685,6.855 -2.457,2.713 0,0 m 23.266,-10.67 c -1.54,-1.76 -3.668,-3.3 -6.381,-4.62 -2.713,-1.32 -6.123,-1.98 -10.23,-1.98 -4.767,0 -8.965,1.192 -12.594,3.575 -3.63,2.382 -6.473,5.537 -8.526,9.461 -2.054,3.922 -3.189,8.194 -3.41,12.814 l -0.109,3.85 0.109,3.85 c 0.221,4.62 1.356,8.892 3.41,12.816 2.053,3.922 4.896,7.076 8.526,9.459 3.629,2.383 7.827,3.575 12.594,3.575 4.033,0 7.407,-0.659 10.12,-1.98 2.713,-1.32 4.876,-2.86 6.491,-4.62 v 2.531 c 0,0.805 0.292,1.502 0.88,2.089 0.585,0.586 1.282,0.88 2.089,0.88 h 8.361 c 0.805,0 1.502,-0.294 2.09,-0.88 0.585,-0.587 0.879,-1.284 0.879,-2.089 v -51.59 c 0,-8.727 -2.458,-15.382 -7.37,-19.966 -4.914,-4.582 -11.769,-6.875 -20.57,-6.875 -4.84,0 -9.24,0.844 -13.199,2.53 -3.961,1.688 -7.133,3.869 -9.516,6.545 -2.384,2.678 -3.684,5.483 -3.904,8.415 -0.074,0.808 0.201,1.504 0.824,2.09 0.623,0.588 1.338,0.88 2.146,0.88 h 7.479 c 0.881,0 1.668,-0.275 2.365,-0.825 0.697,-0.55 1.411,-1.265 2.145,-2.145 1.173,-1.392 2.602,-2.456 4.291,-3.19 1.685,-0.732 4.141,-1.1 7.369,-1.1 3.521,0 6.673,1.083 9.461,3.245 2.785,2.164 4.18,5.225 4.18,9.185 z" />
          </g>
          <g
             transform="translate(1333.1934,455.8799)"
             id="g152">
            <path
               inkscape:connector-curvature="0"
               id="path154"
               style="fill:#ffffff;fill-opacity:1;fill-rule:nonzero;stroke:none"
               d="m 0,0 c -0.588,-0.588 -1.284,-0.88 -2.09,-0.88 h -8.36 c -0.808,0 -1.504,0.292 -2.09,0.88 -0.588,0.587 -0.88,1.282 -0.88,2.091 v 51.26 c 0,0.805 0.292,1.502 0.88,2.089 0.586,0.586 1.282,0.88 2.09,0.88 h 8.36 c 0.806,0 1.502,-0.294 2.09,-0.88 0.586,-0.587 0.88,-1.284 0.88,-2.089 V 2.091 C 0.88,1.282 0.586,0.587 0,0 M 0.55,76.341 C 1.136,75.753 1.43,75.056 1.43,74.25 V 65.67 C 1.43,64.862 1.136,64.166 0.55,63.58 -0.038,62.992 -0.734,62.7 -1.54,62.7 H -11 c -0.809,0 -1.504,0.292 -2.09,0.88 -0.588,0.586 -0.881,1.282 -0.881,2.09 v 8.58 c 0,0.806 0.293,1.503 0.881,2.091 0.586,0.586 1.281,0.879 2.09,0.879 h 9.46 c 0.806,0 1.502,-0.293 2.09,-0.879" />
          </g>
          <g
             transform="translate(1385.5527,489.9805)"
             id="g156">
            <path
               inkscape:connector-curvature="0"
               id="path158"
               style="fill:#ffffff;fill-opacity:1;fill-rule:nonzero;stroke:none"
               d="m 0,0 c -0.809,6.746 -4.879,10.119 -12.211,10.119 -3.813,0 -6.803,-1.027 -8.965,-3.08 C -23.34,4.986 -24.568,2.64 -24.861,0 Z M 1.979,19.524 C 6.086,16.994 9.256,13.602 11.494,9.35 13.73,5.096 14.85,0.439 14.85,-4.621 V -9.57 c 0,-0.809 -0.294,-1.504 -0.881,-2.09 -0.588,-0.588 -1.283,-0.881 -2.09,-0.881 h -36.74 c 0,-3.153 1.246,-5.664 3.74,-7.535 2.492,-1.869 5.463,-2.805 8.91,-2.805 4.033,0 7.15,0.843 9.35,2.53 0.806,0.587 1.466,0.991 1.98,1.21 0.512,0.221 1.211,0.33 2.09,0.33 h 8.801 c 0.805,0 1.502,-0.275 2.09,-0.824 0.586,-0.551 0.879,-1.193 0.879,-1.926 0,-1.54 -1.008,-3.484 -3.024,-5.83 -2.018,-2.347 -4.934,-4.382 -8.746,-6.105 -3.813,-1.722 -8.287,-2.584 -13.42,-2.584 -5.428,0 -10.175,1.246 -14.244,3.74 -4.07,2.492 -7.205,5.976 -9.406,10.449 -2.2,4.473 -3.299,9.643 -3.299,15.51 0,5.5 1.099,10.506 3.299,15.016 2.201,4.51 5.353,8.085 9.461,10.724 4.105,2.641 8.836,3.96 14.189,3.96 5.353,0 10.082,-1.264 14.19,-3.795" />
          </g>
          <g
             transform="translate(1413.876,484.2598)"
             id="g160">
            <path
               inkscape:connector-curvature="0"
               id="path162"
               style="fill:#ffffff;fill-opacity:1;fill-rule:nonzero;stroke:none"
               d="m 0,0 c -2.458,2.86 -3.685,6.637 -3.685,11.33 0,3.006 0.916,5.866 2.75,8.58 1.832,2.713 4.472,4.912 7.92,6.6 3.446,1.686 7.442,2.53 11.99,2.53 4.546,0 8.561,-0.659 12.046,-1.979 3.481,-1.321 6.195,-3.081 8.138,-5.281 1.944,-2.2 2.988,-4.51 3.136,-6.93 0.072,-0.807 -0.203,-1.504 -0.825,-2.09 -0.624,-0.588 -1.339,-0.879 -2.145,-0.879 h -8.471 c -0.879,0 -1.578,0.127 -2.089,0.385 -0.514,0.255 -1.065,0.64 -1.651,1.154 -0.879,0.732 -1.888,1.32 -3.024,1.76 -1.138,0.44 -2.843,0.66 -5.115,0.66 -2.42,0 -4.419,-0.367 -5.996,-1.1 -1.578,-0.734 -2.365,-1.87 -2.365,-3.41 0,-1.1 0.386,-1.963 1.157,-2.585 C 12.54,8.121 13.877,7.571 15.784,7.096 17.69,6.617 21.138,5.83 26.125,4.73 c 6.306,-1.32 10.853,-3.448 13.64,-6.38 2.786,-2.934 4.179,-6.674 4.179,-11.219 0,-3.008 -0.99,-5.85 -2.969,-8.526 -1.98,-2.677 -4.824,-4.839 -8.525,-6.49 -3.704,-1.65 -8.013,-2.474 -12.926,-2.474 -4.914,0 -9.184,0.752 -12.814,2.254 -3.631,1.502 -6.418,3.427 -8.36,5.775 -1.945,2.346 -2.99,4.767 -3.135,7.26 -0.073,0.806 0.201,1.503 0.825,2.09 0.622,0.586 1.337,0.88 2.145,0.88 h 8.47 c 0.806,0 1.466,-0.148 1.98,-0.439 0.512,-0.295 1.061,-0.734 1.649,-1.32 1.028,-1.029 2.162,-1.834 3.41,-2.42 1.246,-0.588 3.191,-0.881 5.83,-0.881 2.641,0 4.987,0.348 7.041,1.045 2.052,0.697 3.081,1.777 3.081,3.246 0,0.951 -0.37,1.705 -1.101,2.254 -0.733,0.551 -1.87,1.045 -3.41,1.485 -1.54,0.441 -4.181,1.063 -7.92,1.87 l -4.29,0.88 C 6.765,-4.988 2.456,-2.859 0,0" />
          </g>
          <g
             transform="translate(647.8213,646.4619)"
             id="g164">
            <path
               inkscape:connector-curvature="0"
               id="path166"
               style="fill:#00aeee;fill-opacity:1;fill-rule:nonzero;stroke:none"
               d="m 0,0 c 26.203,-3.455 45.761,-16.935 60.818,-40.272 -25.427,6.065 -47.218,1.568 -65.538,-15.114 -18.429,-16.782 -24.68,-38.149 -21.155,-63.569 -11.563,8.937 -24.141,13.508 -38.12,12.012 -13.839,-1.482 -25.738,-7.352 -34.59,-18.499 -8.632,-10.87 -12.501,-23.308 -11.082,-37.071 1.392,-13.478 7.564,-24.781 17.543,-33.679 -0.955,-2.19 -30.974,-2.723 -44.514,-0.454 -24.111,4.04 -44.334,25.16 -47.442,49.363 -0.52,2.686 -1.44,8.835 0.145,18.883 4.099,22.55 17.002,38.47 37.264,48.741 0,3.388 -0.093,6.454 0.015,9.512 0.667,18.775 14.687,34.87 32.373,37.221 19.787,2.631 37.554,-8.758 42.83,-27.656 0.971,-3.478 1.264,-7.16 1.693,-10.769 0.382,-3.219 2.282,-5.011 5.258,-5.026 3.345,-0.017 5.34,2.07 5.259,5.524 -0.071,3.053 -0.257,6.134 -0.763,9.14 -1.917,11.374 -7.997,20.52 -16.431,28.72 15.137,18.512 33.775,29.747 57.18,32.76 C -8.201,0.418 -5.751,0.634 0,0" />
          </g>
          <g
             transform="translate(746.4673,540.7271)"
             id="g168">
            <path
               inkscape:connector-curvature="0"
               id="path170"
               style="fill:#00aeee;fill-opacity:1;fill-rule:nonzero;stroke:none"
               d="m 0,0 c -0.078,-31.865 -26.127,-57.572 -58.163,-57.399 -31.565,0.171 -57.19,26.139 -57.111,57.876 0.079,31.857 26.139,57.573 58.164,57.397 C -25.543,57.7 0.078,31.735 0,0" />
          </g>
          <g
             transform="translate(548.2007,489.3613)"
             id="g172">
            <path
               inkscape:connector-curvature="0"
               id="path174"
               style="fill:#ffffff;fill-opacity:1;fill-rule:nonzero;stroke:none"
               d="M 0,0 C 0.098,22.112 18.318,40.152 40.459,40.059 62.915,39.964 80.878,21.692 80.672,-0.845 80.471,-22.964 62.34,-40.646 39.91,-40.599 17.923,-40.553 -0.099,-22.219 0,0" />
          </g>
          <g
             transform="translate(631.1934,460.0518)"
             id="g176">
            <path
               inkscape:connector-curvature="0"
               id="path178"
               style="fill:#ffffff;fill-opacity:1;fill-rule:nonzero;stroke:none"
               d="M 0,0 C 0.057,12.849 10.644,23.33 23.508,23.275 36.556,23.221 46.993,12.604 46.874,-0.49 46.756,-13.343 36.221,-23.616 23.189,-23.589 10.414,-23.562 -0.057,-12.91 0,0" />
          </g>
          <g
             transform="translate(691.5239,460.0156)"
             id="g180">
            <path
               inkscape:connector-curvature="0"
               id="path182"
               style="fill:#ffffff;fill-opacity:1;fill-rule:nonzero;stroke:none"
               d="M 0,0 C 0.045,10.11 8.376,18.359 18.5,18.316 28.767,18.272 36.98,9.919 36.886,-0.386 36.794,-10.5 28.504,-18.585 18.248,-18.562 8.195,-18.542 -0.045,-10.159 0,0" />
          </g>
          <g
             transform="translate(734.5625,480.5254)"
             id="g184">
            <path
               inkscape:connector-curvature="0"
               id="path186"
               style="fill:#ffffff;fill-opacity:1;fill-rule:nonzero;stroke:none"
               d="M 0,0 C 0.029,6.424 5.322,11.665 11.754,11.638 18.278,11.61 23.497,6.302 23.437,-0.245 23.378,-6.672 18.111,-11.809 11.595,-11.795 5.207,-11.781 -0.028,-6.455 0,0" />
          </g>
        </g>
      </g>
    </g>
    <ellipse
       style="opacity:0.38900003;fill:url(#radialGradient5077);fill-opacity:1;stroke:#0f6c33;stroke-width:0.01;stroke-miterlimit:4;stroke-dasharray:0, 0.11;stroke-dashoffset:0.1;stroke-opacity:1"
       id="path4202"
       cx="112.02554"
       cy="331.38171"
       rx="80.314491"
       ry="6.9909301" />
    <path
       style="opacity:0.54100001;fill:url(#radialGradient5043);fill-opacity:1;stroke:url(#radialGradient5059);stroke-width:0.18622431;stroke-miterlimit:4;stroke-dasharray:0, 2.04846736;stroke-dashoffset:0;stroke-opacity:1"
       d="m 71.600767,289.84847 c -37.337682,-0.67595 -66.2463506,-2.6674 -68.3529556,-4.70868 -0.505043,-0.48939 -0.074049,-0.73783 2.216292,-1.27756 17.8074766,-4.19638 118.3470266,-5.60569 170.8253666,-2.39454 14.72985,0.90132 23.86655,2.05294 25.38262,3.19931 0.38268,0.28936 0.30183,0.40901 -0.49851,0.73775 -8.03134,3.29891 -71.8714,5.48832 -129.572813,4.44372 z"
       id="path5019"
       inkscape:connector-curvature="0" />
  </g>
</svg>
