<?xml version="1.0" encoding="UTF-8" standalone="no"?>
<!-- Created with Inkscape (http://www.inkscape.org/) -->

<svg
   xmlns:dc="http://purl.org/dc/elements/1.1/"
   xmlns:cc="http://creativecommons.org/ns#"
   xmlns:rdf="http://www.w3.org/1999/02/22-rdf-syntax-ns#"
   xmlns:svg="http://www.w3.org/2000/svg"
   xmlns="http://www.w3.org/2000/svg"
   xmlns:sodipodi="http://sodipodi.sourceforge.net/DTD/sodipodi-0.dtd"
   xmlns:inkscape="http://www.inkscape.org/namespaces/inkscape"
   width="500mm"
   height="600mm"
   viewBox="0 0 500 600"
   version="1.1"
   id="svg8"
   inkscape:version="0.92.4 (f8dce91, 2019-08-02)"
   sodipodi:docname="travel2.svg">
  <defs
     id="defs2" />
  <sodipodi:namedview
     id="base"
     pagecolor="#ffffff"
     bordercolor="#666666"
     borderopacity="1.0"
     inkscape:pageopacity="0.0"
     inkscape:pageshadow="2"
     inkscape:zoom="0.175"
     inkscape:cx="1390.9816"
     inkscape:cy="1159.3639"
     inkscape:document-units="mm"
     inkscape:current-layer="layer1"
     showgrid="false"
     inkscape:window-width="1853"
     inkscape:window-height="1025"
     inkscape:window-x="67"
     inkscape:window-y="27"
     inkscape:window-maximized="1" />
  <metadata
     id="metadata5">
    <rdf:RDF>
      <cc:Work
         rdf:about="">
        <dc:format>image/svg+xml</dc:format>
        <dc:type
           rdf:resource="http://purl.org/dc/dcmitype/StillImage" />
        <dc:title />
      </cc:Work>
    </rdf:RDF>
  </metadata>
  <g
     inkscape:label="Layer 1"
     inkscape:groupmode="layer"
     id="layer1"
     transform="translate(0,303)">
    <rect
       style="fill:#7505ab;fill-opacity:1;stroke-width:0.26458332"
       id="rect1368"
       width="499.68454"
       height="600.60419"
       x="0"
       y="-303.0372" />
    <g
       id="g5216"
       transform="matrix(7.1038301,0,0,7.1038301,164.59631,-91.536505)"
       style="fill:#ffffff;fill-opacity:1">
      <path
         id="path5199"
         d="m 19,11.9 2.7,1.14 c 0.18,0.08 0.3,0.26 0.3,0.46 v 2 a 0.5,0.5 0 0 1 -0.6,0.49 L 12,14 2.6,16 A 0.5,0.5 0 0 1 2,15.51 v -2 c 0,-0.2 0.12,-0.38 0.3,-0.46 L 5,11.9 V 10 a 1,1 0 1 1 2,0 v 1.06 l 4.8,-2.02 a 0.5,0.5 0 0 1 0.4,0 L 17,11.06 V 10 a 1,1 0 0 1 2,0 z"
         class="secondary"
         inkscape:connector-curvature="0"
         style="fill:#ffffff;fill-opacity:1" />
      <path
         id="path5201"
         d="m 12,2 a 2,2 0 0 1 2,2 v 8 l -1,8 H 11 L 10,12 V 4 c 0,-1.1 0.9,-2 2,-2 z"
         class="primary"
         inkscape:connector-curvature="0"
         style="fill:#ffffff;fill-opacity:1" />
      <path
         id="path5203"
         d="M 8.64,22.98 C 8.32,23.08 8,22.81 8,22.44 v -1.1 c 0,-0.19 0.08,-0.35 0.2,-0.46 l 3.5,-2.78 c 0.18,-0.13 0.42,-0.13 0.6,0 l 3.5,2.78 c 0.12,0.1 0.2,0.27 0.2,0.45 v 1.11 c 0,0.37 -0.32,0.64 -0.64,0.54 L 12,21.9 8.64,22.97 Z"
         class="secondary"
         inkscape:connector-curvature="0"
         style="fill:#ffffff;fill-opacity:1" />
    </g>
  </g>
</svg>
