<?xml version="1.0" encoding="UTF-8" standalone="no"?>
<!-- Created with Inkscape (http://www.inkscape.org/) -->

<svg
   xmlns:dc="http://purl.org/dc/elements/1.1/"
   xmlns:cc="http://creativecommons.org/ns#"
   xmlns:rdf="http://www.w3.org/1999/02/22-rdf-syntax-ns#"
   xmlns:svg="http://www.w3.org/2000/svg"
   xmlns="http://www.w3.org/2000/svg"
   xmlns:xlink="http://www.w3.org/1999/xlink"
   xmlns:sodipodi="http://sodipodi.sourceforge.net/DTD/sodipodi-0.dtd"
   xmlns:inkscape="http://www.inkscape.org/namespaces/inkscape"
   width="1920mm"
   height="1080mm"
   viewBox="0 0 1920 1080"
   version="1.1"
   id="svg8"
   inkscape:version="0.92.3 (2405546, 2018-03-11)"
   sodipodi:docname="background_waves_5.svg">
  <defs
     id="defs2">
    <linearGradient
       inkscape:collect="always"
       id="linearGradient4587">
      <stop
         style="stop-color:#2d5af5;stop-opacity:1;"
         offset="0"
         id="stop4583" />
      <stop
         style="stop-color:#2d5af5;stop-opacity:0;"
         offset="1"
         id="stop4585" />
    </linearGradient>
    <linearGradient
       inkscape:collect="always"
       id="linearGradient4573">
      <stop
         style="stop-color:#2d5af5;stop-opacity:1;"
         offset="0"
         id="stop4569" />
      <stop
         style="stop-color:#2d5af5;stop-opacity:0;"
         offset="1"
         id="stop4571" />
    </linearGradient>
    <linearGradient
       inkscape:collect="always"
       id="linearGradient4563">
      <stop
         style="stop-color:#2d5af5;stop-opacity:0.988"
         offset="0"
         id="stop4559" />
      <stop
         style="stop-color:#2d5af5;stop-opacity:0;"
         offset="1"
         id="stop4561" />
    </linearGradient>
    <linearGradient
       inkscape:collect="always"
       xlink:href="#linearGradient4563"
       id="linearGradient4567"
       gradientUnits="userSpaceOnUse"
       x1="3616.9126"
       y1="-744.47534"
       x2="3579.9458"
       y2="2866.9534" />
    <linearGradient
       inkscape:collect="always"
       xlink:href="#linearGradient4573"
       id="linearGradient4579"
       gradientUnits="userSpaceOnUse"
       x1="953.87964"
       y1="-221.93584"
       x2="949.61176"
       y2="902.92133"
       gradientTransform="translate(-13.607106,143.63095)" />
    <linearGradient
       inkscape:collect="always"
       xlink:href="#linearGradient4587"
       id="linearGradient4595"
       gradientUnits="userSpaceOnUse"
       x1="926.65784"
       y1="-202.55214"
       x2="910.31122"
       y2="801.3526"
       gradientTransform="translate(10.583371,208.64286)" />
    <linearGradient
       inkscape:collect="always"
       xlink:href="#linearGradient4563"
       id="linearGradient4597"
       gradientUnits="userSpaceOnUse"
       x1="3616.9126"
       y1="-744.47534"
       x2="3579.9458"
       y2="2866.9534"
       gradientTransform="matrix(0.26458333,0,0,0.26458333,-93.701686,-555.40056)" />
  </defs>
  <sodipodi:namedview
     id="base"
     pagecolor="#ffffff"
     bordercolor="#666666"
     borderopacity="1.0"
     inkscape:pageopacity="0.0"
     inkscape:pageshadow="2"
     inkscape:zoom="0.175"
     inkscape:cx="5354.0479"
     inkscape:cy="1593.4371"
     inkscape:document-units="mm"
     inkscape:current-layer="layer2"
     showgrid="false"
     inkscape:window-width="2560"
     inkscape:window-height="1377"
     inkscape:window-x="-8"
     inkscape:window-y="-8"
     inkscape:window-maximized="1" />
  <metadata
     id="metadata5">
    <rdf:RDF>
      <cc:Work
         rdf:about="">
        <dc:format>image/svg+xml</dc:format>
        <dc:type
           rdf:resource="http://purl.org/dc/dcmitype/StillImage" />
        <dc:title></dc:title>
      </cc:Work>
    </rdf:RDF>
  </metadata>
  <g
     inkscape:label="Layer 1"
     inkscape:groupmode="layer"
     id="layer1"
     transform="translate(0,783)">
    <path
       style="fill:none;fill-opacity:1;stroke:#2d5af5;stroke-width:5.72328424;stroke-miterlimit:4;stroke-dasharray:none;stroke-opacity:0;opacity:0.764"
       d="m 5637.9555,2109.5972 c -149.6518,-15.3004 -377.9742,-148.8554 -521.4565,-305.0209 -63.9852,-69.6413 -115.3547,-142.0781 -192.2007,-271.025 -119.201,-200.0179 -188.5372,-263.28 -316.6809,-288.9385 -65.6892,-13.1532 -212.1695,-8.9672 -275.2715,7.8665 -152.6908,40.7331 -241.2948,117.6367 -373.4069,324.0976 -28.0959,43.9073 -68.9863,103.8965 -90.8675,133.3093 -91.7036,123.268 -248.8677,208.4972 -422.758,229.2594 -94.7316,11.3108 -199.6232,-8.5486 -278.1482,-52.6624 -17.2858,-9.7108 -54.5715,-41.028 -82.8572,-69.5939 -41.3833,-41.7931 -58.5639,-64.7707 -87.9591,-117.6379 -76.3186,-137.2586 -127.6591,-182.8429 -205.9315,-182.8429 -44.871,0 -75.4418,12.5516 -161.0448,66.1208 -92.2994,57.7599 -113.8009,66.8339 -158.2364,66.7792 -48.767,-0.06 -101.0173,-26.4976 -172.5425,-87.3025 -66.2543,-56.324 -107.1414,-84.0514 -148.5236,-100.7202 -100.1337,-40.3342 -235.4487,-29.0342 -318.795,26.6223 -58.3216,38.9456 -90.6389,90.5123 -149.5893,238.6906 -57.5118,144.562 -104.3812,193.1405 -205.5485,213.044 -19.0376,3.7454 -54.5587,5.6178 -78.9358,4.161 -56.4523,-3.3739 -83.5183,-16.1425 -184.3221,-86.9559 -127.1205,-89.3005 -225.04778,-134.9411 -369.08698,-172.0189 -173.09863,-44.5582 -336.7516,-36.6481 -521.79598,25.2208 -108.42584,36.2517 -239.123727,102.4143 -300.545567,152.1438 -12.5714283,10.1783 -43.428571,45.8578 -68.571428,79.2878 -45.647374,60.6928 -45.719739,60.7555 -49.439485,42.7806 -7.51897,-36.3337 -11.95022,-864.5911 -7.76537,-1451.44891 l 4.3042,-603.595457 543.59318,-3.667678 C 1068.658,-78.667662 7626.5201,-105.678 7628.4338,-104.04295 c 0.6977,0.59613 -3.3063,411.60709 -8.8971,913.35771 l -10.1663,912.27384 -14.1829,19.9335 c -39.164,55.0439 -93.4188,78.3524 -191.1274,82.1113 -86.2171,3.3168 -166.7411,-10.8366 -274.0377,-48.1664 -218.6697,-76.078 -255.612,-87.8052 -302.1771,-95.9243 -102.732,-17.9124 -144.2909,-9.7376 -251.1789,49.4085 -83.3017,46.0948 -140.3023,67.3118 -226.644,84.3625 -104.7429,20.6847 -167.0743,47.2963 -259.2903,110.7008 -28.676,19.7166 -80.424,55.3316 -114.9954,79.1444 -132.6337,91.3585 -219.0217,118.5803 -337.7812,106.4383 z"
       id="path4520"
       inkscape:connector-curvature="0"
       transform="matrix(0.26458333,0,0,0.26458333,0,-783)" />
    <path
       style="opacity:0.608;fill:none;fill-opacity:1;stroke:#2d5af5;stroke-width:5.72328424;stroke-miterlimit:4;stroke-dasharray:none;stroke-opacity:0"
       d="m 5637.9555,2109.5972 c -149.6518,-15.3004 -377.9742,-148.8554 -521.4565,-305.0209 -63.9852,-69.6413 -115.3547,-142.0781 -192.2007,-271.025 -119.201,-200.0179 -188.5372,-263.28 -316.6809,-288.9385 -65.6892,-13.1532 -212.1695,-8.9672 -275.2715,7.8665 -152.6908,40.7331 -241.2948,117.6367 -373.4069,324.0976 -28.0959,43.9073 -68.9863,103.8965 -90.8675,133.3093 -91.7036,123.268 -248.8677,208.4972 -422.758,229.2594 -94.7316,11.3108 -199.6232,-8.5486 -278.1482,-52.6624 -17.2858,-9.7108 -54.5715,-41.028 -82.8572,-69.5939 -41.3833,-41.7931 -58.5639,-64.7707 -87.9591,-117.6379 -76.3186,-137.2586 -127.6591,-182.8429 -205.9315,-182.8429 -44.871,0 -75.4418,12.5516 -161.0448,66.1208 -92.2994,57.7599 -113.8009,66.8339 -158.2364,66.7792 -48.767,-0.06 -101.0173,-26.4976 -172.5425,-87.3025 -66.2543,-56.324 -107.1414,-84.0514 -148.5236,-100.7202 -100.1337,-40.3342 -235.4487,-29.0342 -318.795,26.6223 -58.3216,38.9456 -90.6389,90.5123 -149.5893,238.6906 -57.5118,144.562 -104.3812,193.1405 -205.5485,213.044 -19.0376,3.7454 -54.5587,5.6178 -78.9358,4.161 -56.4523,-3.3739 -83.5183,-16.1425 -184.3221,-86.9559 -127.1205,-89.3005 -225.04778,-134.9411 -369.08698,-172.0189 -173.09863,-44.5582 -336.7516,-36.6481 -521.79598,25.2208 -108.42584,36.2517 -239.123727,102.4143 -300.545567,152.1438 -12.5714283,10.1783 -43.428571,45.8578 -68.571428,79.2878 -45.647374,60.6928 -45.719739,60.7555 -49.439485,42.7806 -7.51897,-36.3337 -11.95022,-864.5911 -7.76537,-1451.44891 l 4.3042,-603.595457 543.59318,-3.667678 C 1068.658,-78.667662 7626.5201,-105.678 7628.4338,-104.04295 c 0.6977,0.59613 -3.3063,411.60709 -8.8971,913.35771 l -10.1663,912.27384 -14.1829,19.9335 c -39.164,55.0439 -93.4188,78.3524 -191.1274,82.1113 -86.2171,3.3168 -166.7411,-10.8366 -274.0377,-48.1664 -218.6697,-76.078 -255.612,-87.8052 -302.1771,-95.9243 -102.732,-17.9124 -144.2909,-9.7376 -251.1789,49.4085 -83.3017,46.0948 -140.3023,67.3118 -226.644,84.3625 -104.7429,20.6847 -167.0743,47.2963 -259.2903,110.7008 -28.676,19.7166 -80.424,55.3316 -114.9954,79.1444 -132.6337,91.3585 -219.0217,118.5803 -337.7812,106.4383 z"
       id="path4522"
       inkscape:connector-curvature="0"
       transform="matrix(0.26458333,0,0,0.26458333,0,-783)" />
    <path
       style="opacity:0.60799997;fill:none;fill-opacity:1;stroke:#2d5af5;stroke-width:5.72328424;stroke-miterlimit:4;stroke-dasharray:none;stroke-opacity:0"
       d="m 5637.9555,2109.5972 c -149.6518,-15.3004 -377.9742,-148.8554 -521.4565,-305.0209 -63.9852,-69.6413 -115.3547,-142.0781 -192.2007,-271.025 -119.201,-200.0179 -188.5372,-263.28 -316.6809,-288.9385 -65.6892,-13.1532 -212.1695,-8.9672 -275.2715,7.8665 -152.6908,40.7331 -241.2948,117.6367 -373.4069,324.0976 -28.0959,43.9073 -68.9863,103.8965 -90.8675,133.3093 -91.7036,123.268 -248.8677,208.4972 -422.758,229.2594 -94.7316,11.3108 -199.6232,-8.5486 -278.1482,-52.6624 -17.2858,-9.7108 -54.5715,-41.028 -82.8572,-69.5939 -41.3833,-41.7931 -58.5639,-64.7707 -87.9591,-117.6379 -76.3186,-137.2586 -127.6591,-182.8429 -205.9315,-182.8429 -44.871,0 -75.4418,12.5516 -161.0448,66.1208 -92.2994,57.7599 -113.8009,66.8339 -158.2364,66.7792 -48.767,-0.06 -101.0173,-26.4976 -172.5425,-87.3025 -66.2543,-56.324 -107.1414,-84.0514 -148.5236,-100.7202 -100.1337,-40.3342 -235.4487,-29.0342 -318.795,26.6223 -58.3216,38.9456 -90.6389,90.5123 -149.5893,238.6906 -57.5118,144.562 -104.3812,193.1405 -205.5485,213.044 -19.0376,3.7454 -54.5587,5.6178 -78.9358,4.161 -56.4523,-3.3739 -83.5183,-16.1425 -184.3221,-86.9559 -127.1205,-89.3005 -225.04778,-134.9411 -369.08698,-172.0189 -173.09863,-44.5582 -336.7516,-36.6481 -521.79598,25.2208 -108.42584,36.2517 -239.123727,102.4143 -300.545567,152.1438 -12.5714283,10.1783 -43.428571,45.8578 -68.571428,79.2878 -45.647374,60.6928 -45.719739,60.7555 -49.439485,42.7806 -7.51897,-36.3337 -11.95022,-864.5911 -7.76537,-1451.44891 l 4.3042,-603.595457 543.59318,-3.667678 C 1068.658,-78.667662 7626.5201,-105.678 7628.4338,-104.04295 c 0.6977,0.59613 -3.3063,411.60709 -8.8971,913.35771 l -10.1663,912.27384 -14.1829,19.9335 c -39.164,55.0439 -93.4188,78.3524 -191.1274,82.1113 -86.2171,3.3168 -166.7411,-10.8366 -274.0377,-48.1664 -218.6697,-76.078 -255.612,-87.8052 -302.1771,-95.9243 -102.732,-17.9124 -144.2909,-9.7376 -251.1789,49.4085 -83.3017,46.0948 -140.3023,67.3118 -226.644,84.3625 -104.7429,20.6847 -167.0743,47.2963 -259.2903,110.7008 -28.676,19.7166 -80.424,55.3316 -114.9954,79.1444 -132.6337,91.3585 -219.0217,118.5803 -337.7812,106.4383 z"
       id="path4524"
       inkscape:connector-curvature="0"
       transform="matrix(0.26458333,0,0,0.26458333,0,-783)" />
    <path
       style="opacity:0.60799997;fill:none;fill-opacity:1;stroke:#2d5af5;stroke-width:5.72328424;stroke-miterlimit:4;stroke-dasharray:none;stroke-opacity:0"
       d="m 5637.9555,2109.5972 c -149.6518,-15.3004 -377.9742,-148.8554 -521.4565,-305.0209 -63.9852,-69.6413 -115.3547,-142.0781 -192.2007,-271.025 -119.201,-200.0179 -188.5372,-263.28 -316.6809,-288.9385 -65.6892,-13.1532 -212.1695,-8.9672 -275.2715,7.8665 -152.6908,40.7331 -241.2948,117.6367 -373.4069,324.0976 -28.0959,43.9073 -68.9863,103.8965 -90.8675,133.3093 -91.7036,123.268 -248.8677,208.4972 -422.758,229.2594 -94.7316,11.3108 -199.6232,-8.5486 -278.1482,-52.6624 -17.2858,-9.7108 -54.5715,-41.028 -82.8572,-69.5939 -41.3833,-41.7931 -58.5639,-64.7707 -87.9591,-117.6379 -76.3186,-137.2586 -127.6591,-182.8429 -205.9315,-182.8429 -44.871,0 -75.4418,12.5516 -161.0448,66.1208 -92.2994,57.7599 -113.8009,66.8339 -158.2364,66.7792 -48.767,-0.06 -101.0173,-26.4976 -172.5425,-87.3025 -66.2543,-56.324 -107.1414,-84.0514 -148.5236,-100.7202 -100.1337,-40.3342 -235.4487,-29.0342 -318.795,26.6223 -58.3216,38.9456 -90.6389,90.5123 -149.5893,238.6906 -57.5118,144.562 -104.3812,193.1405 -205.5485,213.044 -19.0376,3.7454 -54.5587,5.6178 -78.9358,4.161 -56.4523,-3.3739 -83.5183,-16.1425 -184.3221,-86.9559 -127.1205,-89.3005 -225.04778,-134.9411 -369.08698,-172.0189 -173.09863,-44.5582 -336.7516,-36.6481 -521.79598,25.2208 -108.42584,36.2517 -239.123727,102.4143 -300.545567,152.1438 -12.5714283,10.1783 -43.428571,45.8578 -68.571428,79.2878 -45.647374,60.6928 -45.719739,60.7555 -49.439485,42.7806 -7.51897,-36.3337 -11.95022,-864.5911 -7.76537,-1451.44891 l 4.3042,-603.595457 543.59318,-3.667678 C 1068.658,-78.667662 7626.5201,-105.678 7628.4338,-104.04295 c 0.6977,0.59613 -3.3063,411.60709 -8.8971,913.35771 l -10.1663,912.27384 -14.1829,19.9335 c -39.164,55.0439 -93.4188,78.3524 -191.1274,82.1113 -86.2171,3.3168 -166.7411,-10.8366 -274.0377,-48.1664 -218.6697,-76.078 -255.612,-87.8052 -302.1771,-95.9243 -102.732,-17.9124 -144.2909,-9.7376 -251.1789,49.4085 -83.3017,46.0948 -140.3023,67.3118 -226.644,84.3625 -104.7429,20.6847 -167.0743,47.2963 -259.2903,110.7008 -28.676,19.7166 -80.424,55.3316 -114.9954,79.1444 -132.6337,91.3585 -219.0217,118.5803 -337.7812,106.4383 z"
       id="path4526"
       inkscape:connector-curvature="0"
       transform="matrix(0.26458333,0,0,0.26458333,0,-783)" />
    <path
       style="opacity:0.60799997;fill:none;fill-opacity:1;stroke:#2d5af5;stroke-width:5.72328424;stroke-miterlimit:4;stroke-dasharray:none;stroke-opacity:0"
       d="m 5637.9555,2109.5972 c -149.6518,-15.3004 -377.9742,-148.8554 -521.4565,-305.0209 -63.9852,-69.6413 -115.3547,-142.0781 -192.2007,-271.025 -119.201,-200.0179 -188.5372,-263.28 -316.6809,-288.9385 -65.6892,-13.1532 -212.1695,-8.9672 -275.2715,7.8665 -152.6908,40.7331 -241.2948,117.6367 -373.4069,324.0976 -28.0959,43.9073 -68.9863,103.8965 -90.8675,133.3093 -91.7036,123.268 -248.8677,208.4972 -422.758,229.2594 -94.7316,11.3108 -199.6232,-8.5486 -278.1482,-52.6624 -17.2858,-9.7108 -54.5715,-41.028 -82.8572,-69.5939 -41.3833,-41.7931 -58.5639,-64.7707 -87.9591,-117.6379 -76.3186,-137.2586 -127.6591,-182.8429 -205.9315,-182.8429 -44.871,0 -75.4418,12.5516 -161.0448,66.1208 -92.2994,57.7599 -113.8009,66.8339 -158.2364,66.7792 -48.767,-0.06 -101.0173,-26.4976 -172.5425,-87.3025 -66.2543,-56.324 -107.1414,-84.0514 -148.5236,-100.7202 -100.1337,-40.3342 -235.4487,-29.0342 -318.795,26.6223 -58.3216,38.9456 -90.6389,90.5123 -149.5893,238.6906 -57.5118,144.562 -104.3812,193.1405 -205.5485,213.044 -19.0376,3.7454 -54.5587,5.6178 -78.9358,4.161 -56.4523,-3.3739 -83.5183,-16.1425 -184.3221,-86.9559 -127.1205,-89.3005 -225.04778,-134.9411 -369.08698,-172.0189 -173.09863,-44.5582 -336.7516,-36.6481 -521.79598,25.2208 -108.42584,36.2517 -239.123727,102.4143 -300.545567,152.1438 -12.5714283,10.1783 -43.428571,45.8578 -68.571428,79.2878 -45.647374,60.6928 -45.719739,60.7555 -49.439485,42.7806 -7.51897,-36.3337 -11.95022,-864.5911 -7.76537,-1451.44891 l 4.3042,-603.595457 543.59318,-3.667678 C 1068.658,-78.667662 7626.5201,-105.678 7628.4338,-104.04295 c 0.6977,0.59613 -3.3063,411.60709 -8.8971,913.35771 l -10.1663,912.27384 -14.1829,19.9335 c -39.164,55.0439 -93.4188,78.3524 -191.1274,82.1113 -86.2171,3.3168 -166.7411,-10.8366 -274.0377,-48.1664 -218.6697,-76.078 -255.612,-87.8052 -302.1771,-95.9243 -102.732,-17.9124 -144.2909,-9.7376 -251.1789,49.4085 -83.3017,46.0948 -140.3023,67.3118 -226.644,84.3625 -104.7429,20.6847 -167.0743,47.2963 -259.2903,110.7008 -28.676,19.7166 -80.424,55.3316 -114.9954,79.1444 -132.6337,91.3585 -219.0217,118.5803 -337.7812,106.4383 z"
       id="path4528"
       inkscape:connector-curvature="0"
       transform="matrix(0.26458333,0,0,0.26458333,0,-783)" />
    <path
       style="opacity:0.60799997;fill:#2d5af5;fill-opacity:0;stroke:#2d5af5;stroke-width:5.72328424;stroke-miterlimit:4;stroke-dasharray:none;stroke-opacity:0"
       d="m 5637.9555,2109.5972 c -149.6518,-15.3004 -377.9742,-148.8554 -521.4565,-305.0209 -63.9852,-69.6413 -115.3547,-142.0781 -192.2007,-271.025 -119.201,-200.0179 -188.5372,-263.28 -316.6809,-288.9385 -65.6892,-13.1532 -212.1695,-8.9672 -275.2715,7.8665 -152.6908,40.7331 -241.2948,117.6367 -373.4069,324.0976 -28.0959,43.9073 -68.9863,103.8965 -90.8675,133.3093 -91.7036,123.268 -248.8677,208.4972 -422.758,229.2594 -94.7316,11.3108 -199.6232,-8.5486 -278.1482,-52.6624 -17.2858,-9.7108 -54.5715,-41.028 -82.8572,-69.5939 -41.3833,-41.7931 -58.5639,-64.7707 -87.9591,-117.6379 -76.3186,-137.2586 -127.6591,-182.8429 -205.9315,-182.8429 -44.871,0 -75.4418,12.5516 -161.0448,66.1208 -92.2994,57.7599 -113.8009,66.8339 -158.2364,66.7792 -48.767,-0.06 -101.0173,-26.4976 -172.5425,-87.3025 -66.2543,-56.324 -107.1414,-84.0514 -148.5236,-100.7202 -100.1337,-40.3342 -235.4487,-29.0342 -318.795,26.6223 -58.3216,38.9456 -90.6389,90.5123 -149.5893,238.6906 -57.5118,144.562 -104.3812,193.1405 -205.5485,213.044 -19.0376,3.7454 -54.5587,5.6178 -78.9358,4.161 -56.4523,-3.3739 -83.5183,-16.1425 -184.3221,-86.9559 -127.1205,-89.3005 -225.04778,-134.9411 -369.08698,-172.0189 -173.09863,-44.5582 -336.7516,-36.6481 -521.79598,25.2208 -108.42584,36.2517 -239.123727,102.4143 -300.545567,152.1438 -12.5714283,10.1783 -43.428571,45.8578 -68.571428,79.2878 -45.647374,60.6928 -45.719739,60.7555 -49.439485,42.7806 -7.51897,-36.3337 -11.95022,-864.5911 -7.76537,-1451.44891 l 4.3042,-603.595457 543.59318,-3.667678 C 1068.658,-78.667662 7626.5201,-105.678 7628.4338,-104.04295 c 0.6977,0.59613 -3.3063,411.60709 -8.8971,913.35771 l -10.1663,912.27384 -14.1829,19.9335 c -39.164,55.0439 -93.4188,78.3524 -191.1274,82.1113 -86.2171,3.3168 -166.7411,-10.8366 -274.0377,-48.1664 -218.6697,-76.078 -255.612,-87.8052 -302.1771,-95.9243 -102.732,-17.9124 -144.2909,-9.7376 -251.1789,49.4085 -83.3017,46.0948 -140.3023,67.3118 -226.644,84.3625 -104.7429,20.6847 -167.0743,47.2963 -259.2903,110.7008 -28.676,19.7166 -80.424,55.3316 -114.9954,79.1444 -132.6337,91.3585 -219.0217,118.5803 -337.7812,106.4383 z"
       id="path4530"
       inkscape:connector-curvature="0"
       transform="matrix(0.26458333,0,0,0.26458333,0,-783)" />
    <path
       style="opacity:0.60799997;fill:#2d5af5;fill-opacity:0;stroke:#2d5af5;stroke-width:5.72328424;stroke-miterlimit:4;stroke-dasharray:none;stroke-opacity:0"
       d="m 5637.9555,2109.5972 c -149.6518,-15.3004 -377.9742,-148.8554 -521.4565,-305.0209 -63.9852,-69.6413 -115.3547,-142.0781 -192.2007,-271.025 -119.201,-200.0179 -188.5372,-263.28 -316.6809,-288.9385 -65.6892,-13.1532 -212.1695,-8.9672 -275.2715,7.8665 -152.6908,40.7331 -241.2948,117.6367 -373.4069,324.0976 -28.0959,43.9073 -68.9863,103.8965 -90.8675,133.3093 -91.7036,123.268 -248.8677,208.4972 -422.758,229.2594 -94.7316,11.3108 -199.6232,-8.5486 -278.1482,-52.6624 -17.2858,-9.7108 -54.5715,-41.028 -82.8572,-69.5939 -41.3833,-41.7931 -58.5639,-64.7707 -87.9591,-117.6379 -76.3186,-137.2586 -127.6591,-182.8429 -205.9315,-182.8429 -44.871,0 -75.4418,12.5516 -161.0448,66.1208 -92.2994,57.7599 -113.8009,66.8339 -158.2364,66.7792 -48.767,-0.06 -101.0173,-26.4976 -172.5425,-87.3025 -66.2543,-56.324 -107.1414,-84.0514 -148.5236,-100.7202 -100.1337,-40.3342 -235.4487,-29.0342 -318.795,26.6223 -58.3216,38.9456 -90.6389,90.5123 -149.5893,238.6906 -57.5118,144.562 -104.3812,193.1405 -205.5485,213.044 -19.0376,3.7454 -54.5587,5.6178 -78.9358,4.161 -56.4523,-3.3739 -83.5183,-16.1425 -184.3221,-86.9559 -127.1205,-89.3005 -225.04778,-134.9411 -369.08698,-172.0189 -173.09863,-44.5582 -336.7516,-36.6481 -521.79598,25.2208 -108.42584,36.2517 -239.123727,102.4143 -300.545567,152.1438 -12.5714283,10.1783 -43.428571,45.8578 -68.571428,79.2878 -45.647374,60.6928 -45.719739,60.7555 -49.439485,42.7806 -7.51897,-36.3337 -11.95022,-864.5911 -7.76537,-1451.44891 l 4.3042,-603.595457 543.59318,-3.667678 C 1068.658,-78.667662 7626.5201,-105.678 7628.4338,-104.04295 c 0.6977,0.59613 -3.3063,411.60709 -8.8971,913.35771 l -10.1663,912.27384 -14.1829,19.9335 c -39.164,55.0439 -93.4188,78.3524 -191.1274,82.1113 -86.2171,3.3168 -166.7411,-10.8366 -274.0377,-48.1664 -218.6697,-76.078 -255.612,-87.8052 -302.1771,-95.9243 -102.732,-17.9124 -144.2909,-9.7376 -251.1789,49.4085 -83.3017,46.0948 -140.3023,67.3118 -226.644,84.3625 -104.7429,20.6847 -167.0743,47.2963 -259.2903,110.7008 -28.676,19.7166 -80.424,55.3316 -114.9954,79.1444 -132.6337,91.3585 -219.0217,118.5803 -337.7812,106.4383 z"
       id="path4532"
       inkscape:connector-curvature="0"
       transform="matrix(0.26458333,0,0,0.26458333,0,-783)" />
    <path
       style="opacity:0.60799997;fill:#2d5af5;fill-opacity:0;stroke:#2d5af5;stroke-width:5.72328424;stroke-miterlimit:4;stroke-dasharray:none;stroke-opacity:0"
       d="m 5637.9555,2109.5972 c -149.6518,-15.3004 -377.9742,-148.8554 -521.4565,-305.0209 -63.9852,-69.6413 -115.3547,-142.0781 -192.2007,-271.025 -119.201,-200.0179 -188.5372,-263.28 -316.6809,-288.9385 -65.6892,-13.1532 -212.1695,-8.9672 -275.2715,7.8665 -152.6908,40.7331 -241.2948,117.6367 -373.4069,324.0976 -28.0959,43.9073 -68.9863,103.8965 -90.8675,133.3093 -91.7036,123.268 -248.8677,208.4972 -422.758,229.2594 -94.7316,11.3108 -199.6232,-8.5486 -278.1482,-52.6624 -17.2858,-9.7108 -54.5715,-41.028 -82.8572,-69.5939 -41.3833,-41.7931 -58.5639,-64.7707 -87.9591,-117.6379 -76.3186,-137.2586 -127.6591,-182.8429 -205.9315,-182.8429 -44.871,0 -75.4418,12.5516 -161.0448,66.1208 -92.2994,57.7599 -113.8009,66.8339 -158.2364,66.7792 -48.767,-0.06 -101.0173,-26.4976 -172.5425,-87.3025 -66.2543,-56.324 -107.1414,-84.0514 -148.5236,-100.7202 -100.1337,-40.3342 -235.4487,-29.0342 -318.795,26.6223 -58.3216,38.9456 -90.6389,90.5123 -149.5893,238.6906 -57.5118,144.562 -104.3812,193.1405 -205.5485,213.044 -19.0376,3.7454 -54.5587,5.6178 -78.9358,4.161 -56.4523,-3.3739 -83.5183,-16.1425 -184.3221,-86.9559 -127.1205,-89.3005 -225.04778,-134.9411 -369.08698,-172.0189 -173.09863,-44.5582 -336.7516,-36.6481 -521.79598,25.2208 -108.42584,36.2517 -239.123727,102.4143 -300.545567,152.1438 -12.5714283,10.1783 -43.428571,45.8578 -68.571428,79.2878 -45.647374,60.6928 -45.719739,60.7555 -49.439485,42.7806 -7.51897,-36.3337 -11.95022,-864.5911 -7.76537,-1451.44891 l 4.3042,-603.595457 543.59318,-3.667678 C 1068.658,-78.667662 7626.5201,-105.678 7628.4338,-104.04295 c 0.6977,0.59613 -3.3063,411.60709 -8.8971,913.35771 l -10.1663,912.27384 -14.1829,19.9335 c -39.164,55.0439 -93.4188,78.3524 -191.1274,82.1113 -86.2171,3.3168 -166.7411,-10.8366 -274.0377,-48.1664 -218.6697,-76.078 -255.612,-87.8052 -302.1771,-95.9243 -102.732,-17.9124 -144.2909,-9.7376 -251.1789,49.4085 -83.3017,46.0948 -140.3023,67.3118 -226.644,84.3625 -104.7429,20.6847 -167.0743,47.2963 -259.2903,110.7008 -28.676,19.7166 -80.424,55.3316 -114.9954,79.1444 -132.6337,91.3585 -219.0217,118.5803 -337.7812,106.4383 z"
       id="path4534"
       inkscape:connector-curvature="0"
       transform="matrix(0.26458333,0,0,0.26458333,0,-783)" />
    <path
       style="opacity:0.60799997;fill:#2d5af5;fill-opacity:0;stroke:#2d5af5;stroke-width:5.72328424;stroke-miterlimit:4;stroke-dasharray:none;stroke-opacity:0"
       d="m 5637.9555,2109.5972 c -149.6518,-15.3004 -377.9742,-148.8554 -521.4565,-305.0209 -63.9852,-69.6413 -115.3547,-142.0781 -192.2007,-271.025 -119.201,-200.0179 -188.5372,-263.28 -316.6809,-288.9385 -65.6892,-13.1532 -212.1695,-8.9672 -275.2715,7.8665 -152.6908,40.7331 -241.2948,117.6367 -373.4069,324.0976 -28.0959,43.9073 -68.9863,103.8965 -90.8675,133.3093 -91.7036,123.268 -248.8677,208.4972 -422.758,229.2594 -94.7316,11.3108 -199.6232,-8.5486 -278.1482,-52.6624 -17.2858,-9.7108 -54.5715,-41.028 -82.8572,-69.5939 -41.3833,-41.7931 -58.5639,-64.7707 -87.9591,-117.6379 -76.3186,-137.2586 -127.6591,-182.8429 -205.9315,-182.8429 -44.871,0 -75.4418,12.5516 -161.0448,66.1208 -92.2994,57.7599 -113.8009,66.8339 -158.2364,66.7792 -48.767,-0.06 -101.0173,-26.4976 -172.5425,-87.3025 -66.2543,-56.324 -107.1414,-84.0514 -148.5236,-100.7202 -100.1337,-40.3342 -235.4487,-29.0342 -318.795,26.6223 -58.3216,38.9456 -90.6389,90.5123 -149.5893,238.6906 -57.5118,144.562 -104.3812,193.1405 -205.5485,213.044 -19.0376,3.7454 -54.5587,5.6178 -78.9358,4.161 -56.4523,-3.3739 -83.5183,-16.1425 -184.3221,-86.9559 -127.1205,-89.3005 -225.04778,-134.9411 -369.08698,-172.0189 -173.09863,-44.5582 -336.7516,-36.6481 -521.79598,25.2208 -108.42584,36.2517 -239.123727,102.4143 -300.545567,152.1438 -12.5714283,10.1783 -43.428571,45.8578 -68.571428,79.2878 -45.647374,60.6928 -45.719739,60.7555 -49.439485,42.7806 -7.51897,-36.3337 -11.95022,-864.5911 -7.76537,-1451.44891 l 4.3042,-603.595457 543.59318,-3.667678 C 1068.658,-78.667662 7626.5201,-105.678 7628.4338,-104.04295 c 0.6977,0.59613 -3.3063,411.60709 -8.8971,913.35771 l -10.1663,912.27384 -14.1829,19.9335 c -39.164,55.0439 -93.4188,78.3524 -191.1274,82.1113 -86.2171,3.3168 -166.7411,-10.8366 -274.0377,-48.1664 -218.6697,-76.078 -255.612,-87.8052 -302.1771,-95.9243 -102.732,-17.9124 -144.2909,-9.7376 -251.1789,49.4085 -83.3017,46.0948 -140.3023,67.3118 -226.644,84.3625 -104.7429,20.6847 -167.0743,47.2963 -259.2903,110.7008 -28.676,19.7166 -80.424,55.3316 -114.9954,79.1444 -132.6337,91.3585 -219.0217,118.5803 -337.7812,106.4383 z"
       id="path4536"
       inkscape:connector-curvature="0"
       transform="matrix(0.26458333,0,0,0.26458333,0,-783)" />
    <path
       style="opacity:0.60799997;fill:#2d5af5;fill-opacity:0;stroke:#2d5af5;stroke-width:5.72328424;stroke-miterlimit:4;stroke-dasharray:none;stroke-opacity:0"
       d="m 5637.9555,2109.5972 c -149.6518,-15.3004 -377.9742,-148.8554 -521.4565,-305.0209 -63.9852,-69.6413 -115.3547,-142.0781 -192.2007,-271.025 -119.201,-200.0179 -188.5372,-263.28 -316.6809,-288.9385 -65.6892,-13.1532 -212.1695,-8.9672 -275.2715,7.8665 -152.6908,40.7331 -241.2948,117.6367 -373.4069,324.0976 -28.0959,43.9073 -68.9863,103.8965 -90.8675,133.3093 -91.7036,123.268 -248.8677,208.4972 -422.758,229.2594 -94.7316,11.3108 -199.6232,-8.5486 -278.1482,-52.6624 -17.2858,-9.7108 -54.5715,-41.028 -82.8572,-69.5939 -41.3833,-41.7931 -58.5639,-64.7707 -87.9591,-117.6379 -76.3186,-137.2586 -127.6591,-182.8429 -205.9315,-182.8429 -44.871,0 -75.4418,12.5516 -161.0448,66.1208 -92.2994,57.7599 -113.8009,66.8339 -158.2364,66.7792 -48.767,-0.06 -101.0173,-26.4976 -172.5425,-87.3025 -66.2543,-56.324 -107.1414,-84.0514 -148.5236,-100.7202 -100.1337,-40.3342 -235.4487,-29.0342 -318.795,26.6223 -58.3216,38.9456 -90.6389,90.5123 -149.5893,238.6906 -57.5118,144.562 -104.3812,193.1405 -205.5485,213.044 -19.0376,3.7454 -54.5587,5.6178 -78.9358,4.161 -56.4523,-3.3739 -83.5183,-16.1425 -184.3221,-86.9559 -127.1205,-89.3005 -225.04778,-134.9411 -369.08698,-172.0189 -173.09863,-44.5582 -336.7516,-36.6481 -521.79598,25.2208 -108.42584,36.2517 -239.123727,102.4143 -300.545567,152.1438 -12.5714283,10.1783 -43.428571,45.8578 -68.571428,79.2878 -45.647374,60.6928 -45.719739,60.7555 -49.439485,42.7806 -7.51897,-36.3337 -11.95022,-864.5911 -7.76537,-1451.44891 l 4.3042,-603.595457 543.59318,-3.667678 C 1068.658,-78.667662 7626.5201,-105.678 7628.4338,-104.04295 c 0.6977,0.59613 -3.3063,411.60709 -8.8971,913.35771 l -10.1663,912.27384 -14.1829,19.9335 c -39.164,55.0439 -93.4188,78.3524 -191.1274,82.1113 -86.2171,3.3168 -166.7411,-10.8366 -274.0377,-48.1664 -218.6697,-76.078 -255.612,-87.8052 -302.1771,-95.9243 -102.732,-17.9124 -144.2909,-9.7376 -251.1789,49.4085 -83.3017,46.0948 -140.3023,67.3118 -226.644,84.3625 -104.7429,20.6847 -167.0743,47.2963 -259.2903,110.7008 -28.676,19.7166 -80.424,55.3316 -114.9954,79.1444 -132.6337,91.3585 -219.0217,118.5803 -337.7812,106.4383 z"
       id="path4538"
       inkscape:connector-curvature="0"
       transform="matrix(0.26458333,0,0,0.26458333,0,-783)" />
    <path
       style="opacity:0.60799997;fill:#2d5af5;fill-opacity:0;stroke:#2d5af5;stroke-width:5.72328424;stroke-miterlimit:4;stroke-dasharray:none;stroke-opacity:0"
       d="m 5637.9555,2109.5972 c -149.6518,-15.3004 -377.9742,-148.8554 -521.4565,-305.0209 -63.9852,-69.6413 -115.3547,-142.0781 -192.2007,-271.025 -119.201,-200.0179 -188.5372,-263.28 -316.6809,-288.9385 -65.6892,-13.1532 -212.1695,-8.9672 -275.2715,7.8665 -152.6908,40.7331 -241.2948,117.6367 -373.4069,324.0976 -28.0959,43.9073 -68.9863,103.8965 -90.8675,133.3093 -91.7036,123.268 -248.8677,208.4972 -422.758,229.2594 -94.7316,11.3108 -199.6232,-8.5486 -278.1482,-52.6624 -17.2858,-9.7108 -54.5715,-41.028 -82.8572,-69.5939 -41.3833,-41.7931 -58.5639,-64.7707 -87.9591,-117.6379 -76.3186,-137.2586 -127.6591,-182.8429 -205.9315,-182.8429 -44.871,0 -75.4418,12.5516 -161.0448,66.1208 -92.2994,57.7599 -113.8009,66.8339 -158.2364,66.7792 -48.767,-0.06 -101.0173,-26.4976 -172.5425,-87.3025 -66.2543,-56.324 -107.1414,-84.0514 -148.5236,-100.7202 -100.1337,-40.3342 -235.4487,-29.0342 -318.795,26.6223 -58.3216,38.9456 -90.6389,90.5123 -149.5893,238.6906 -57.5118,144.562 -104.3812,193.1405 -205.5485,213.044 -19.0376,3.7454 -54.5587,5.6178 -78.9358,4.161 -56.4523,-3.3739 -83.5183,-16.1425 -184.3221,-86.9559 -127.1205,-89.3005 -225.04778,-134.9411 -369.08698,-172.0189 -173.09863,-44.5582 -336.7516,-36.6481 -521.79598,25.2208 -108.42584,36.2517 -239.123727,102.4143 -300.545567,152.1438 -12.5714283,10.1783 -43.428571,45.8578 -68.571428,79.2878 -45.647374,60.6928 -45.719739,60.7555 -49.439485,42.7806 -7.51897,-36.3337 -11.95022,-864.5911 -7.76537,-1451.44891 l 4.3042,-603.595457 543.59318,-3.667678 C 1068.658,-78.667662 7626.5201,-105.678 7628.4338,-104.04295 c 0.6977,0.59613 -3.3063,411.60709 -8.8971,913.35771 l -10.1663,912.27384 -14.1829,19.9335 c -39.164,55.0439 -93.4188,78.3524 -191.1274,82.1113 -86.2171,3.3168 -166.7411,-10.8366 -274.0377,-48.1664 -218.6697,-76.078 -255.612,-87.8052 -302.1771,-95.9243 -102.732,-17.9124 -144.2909,-9.7376 -251.1789,49.4085 -83.3017,46.0948 -140.3023,67.3118 -226.644,84.3625 -104.7429,20.6847 -167.0743,47.2963 -259.2903,110.7008 -28.676,19.7166 -80.424,55.3316 -114.9954,79.1444 -132.6337,91.3585 -219.0217,118.5803 -337.7812,106.4383 z"
       id="path4540"
       inkscape:connector-curvature="0"
       transform="matrix(0.26458333,0,0,0.26458333,0,-783)" />
    <path
       style="opacity:0.60799997;fill:#2d5af5;fill-opacity:0;stroke:#2d5af5;stroke-width:5.72328424;stroke-miterlimit:4;stroke-dasharray:none;stroke-opacity:0"
       d="m 5637.9555,2109.5972 c -149.6518,-15.3004 -377.9742,-148.8554 -521.4565,-305.0209 -63.9852,-69.6413 -115.3547,-142.0781 -192.2007,-271.025 -119.201,-200.0179 -188.5372,-263.28 -316.6809,-288.9385 -65.6892,-13.1532 -212.1695,-8.9672 -275.2715,7.8665 -152.6908,40.7331 -241.2948,117.6367 -373.4069,324.0976 -28.0959,43.9073 -68.9863,103.8965 -90.8675,133.3093 -91.7036,123.268 -248.8677,208.4972 -422.758,229.2594 -94.7316,11.3108 -199.6232,-8.5486 -278.1482,-52.6624 -17.2858,-9.7108 -54.5715,-41.028 -82.8572,-69.5939 -41.3833,-41.7931 -58.5639,-64.7707 -87.9591,-117.6379 -76.3186,-137.2586 -127.6591,-182.8429 -205.9315,-182.8429 -44.871,0 -75.4418,12.5516 -161.0448,66.1208 -92.2994,57.7599 -113.8009,66.8339 -158.2364,66.7792 -48.767,-0.06 -101.0173,-26.4976 -172.5425,-87.3025 -66.2543,-56.324 -107.1414,-84.0514 -148.5236,-100.7202 -100.1337,-40.3342 -235.4487,-29.0342 -318.795,26.6223 -58.3216,38.9456 -90.6389,90.5123 -149.5893,238.6906 -57.5118,144.562 -104.3812,193.1405 -205.5485,213.044 -19.0376,3.7454 -54.5587,5.6178 -78.9358,4.161 -56.4523,-3.3739 -83.5183,-16.1425 -184.3221,-86.9559 -127.1205,-89.3005 -225.04778,-134.9411 -369.08698,-172.0189 -173.09863,-44.5582 -336.7516,-36.6481 -521.79598,25.2208 -108.42584,36.2517 -239.123727,102.4143 -300.545567,152.1438 -12.5714283,10.1783 -43.428571,45.8578 -68.571428,79.2878 -45.647374,60.6928 -45.719739,60.7555 -49.439485,42.7806 -7.51897,-36.3337 -11.95022,-864.5911 -7.76537,-1451.44891 l 4.3042,-603.595457 543.59318,-3.667678 C 1068.658,-78.667662 7626.5201,-105.678 7628.4338,-104.04295 c 0.6977,0.59613 -3.3063,411.60709 -8.8971,913.35771 l -10.1663,912.27384 -14.1829,19.9335 c -39.164,55.0439 -93.4188,78.3524 -191.1274,82.1113 -86.2171,3.3168 -166.7411,-10.8366 -274.0377,-48.1664 -218.6697,-76.078 -255.612,-87.8052 -302.1771,-95.9243 -102.732,-17.9124 -144.2909,-9.7376 -251.1789,49.4085 -83.3017,46.0948 -140.3023,67.3118 -226.644,84.3625 -104.7429,20.6847 -167.0743,47.2963 -259.2903,110.7008 -28.676,19.7166 -80.424,55.3316 -114.9954,79.1444 -132.6337,91.3585 -219.0217,118.5803 -337.7812,106.4383 z"
       id="path4542"
       inkscape:connector-curvature="0"
       transform="matrix(0.26458333,0,0,0.26458333,0,-783)" />
    <path
       style="opacity:0.597;fill:url(#linearGradient4597);fill-opacity:1;stroke:#2d5af5;stroke-width:0;stroke-miterlimit:4;stroke-dasharray:none;stroke-dashoffset:0;stroke-opacity:0"
       d="m 1398.0074,2.7636817 c -92.8005,-4.0662373 -150.1279,-87.7584957 -188.8218,-152.4121317 -38.4889,-63.73361 -83.9612,-92.34059 -156.6208,-74.36696 -99.56568,32.81391 -145.53788,128.146346 -225.62255,139.347109 -89.8845,27.97609 -127.25753,31.503174 -211.07218,-2.992044 C 539.69547,-125.10221 517.1709,-217.64497 371.16842,-191.96298 278.92355,-155.79432 225.5138,-58.084326 137.11127,-64.265782 84.082046,-77.890519 41.706265,-101.95361 -8.5067724,-102.94991 c -28.5754916,-0.56698 -58.3544616,7.820317 -83.6770886,18.710057 -25.554079,13.020476 -26.384879,56.125215 -27.065979,53.841905 -1.98939,-9.61329 -3.16183,-228.756382 -2.05459,-384.029172 l -23.05166,-378.92749 c 669.62555,-35.49613 1395.16719,-62.02743 2082.61799,-26.94303 39.6912,0.61264 43.1872,95.06848 27.4578,142.64041 17.8015,68.01236 -70.5684,185.56075 -136.1893,337.80838 -63.7155,132.14015 -110.4965,206.42541 -167.1196,239.7618 -86.6311,54.528066 -178.2844,108.1188517 -264.4034,102.8507317 z"
       id="path4544"
       inkscape:connector-curvature="0"
       sodipodi:nodetypes="cccccccaccscccccc" />
  </g>
  <g
     inkscape:groupmode="layer"
     id="layer2"
     inkscape:label="Layer 2">
    <path
       style="opacity:0.51399997;fill:url(#linearGradient4579);fill-opacity:1;stroke:#000000;stroke-width:0.26458332;stroke-linecap:butt;stroke-linejoin:miter;stroke-miterlimit:4;stroke-dasharray:0, 2.91041649;stroke-dashoffset:0;stroke-opacity:1"
       d="m -102.28416,596.70657 c 6.916449,43.34866 87.940658,24.69622 87.940658,24.69622 0,0 56.674166,-45.2562 180.650372,28.82712 66.50728,39.74214 120.95508,-19.26564 258.53841,-28.33707 137.58333,-9.07145 154.84597,25.89913 210.15477,34.7738 119.12575,22.33281 195.02845,-56.98123 299.35713,-15.11905 93.73812,37.79761 125.48812,-105.83333 211.66672,-105.83333 86.1785,0 101.098,54.14766 190.1461,168.85364 89.2024,114.90475 172.8962,38.06244 214.583,15.22378 148.4407,-159.32194 226.9235,-391.94447 392.0447,-534.83932 86.0502,-70.16395 52.9166,-148.166674 52.9166,-148.166674 l -37.7976,-258.535706 -2078.86904,-6.04762 11.38761,624.93815 z"
       id="path4557"
       inkscape:connector-curvature="0"
       sodipodi:nodetypes="ccssccssccccccc" />
    <path
       style="opacity:0.79100001;fill:url(#linearGradient4595);fill-opacity:1;stroke:#000000;stroke-width:0.26499999;stroke-linecap:butt;stroke-linejoin:miter;stroke-miterlimit:4;stroke-dasharray:0, 2.91499986;stroke-dashoffset:0;stroke-opacity:1"
       d="m -56.399003,729.43451 c 10.583334,0 47.372116,-23.44103 94.241159,-9.8339 168.622514,138.88038 260.848864,-96.17238 384.735264,-60.66614 131.04305,43.20247 266.60412,155.49127 415.01785,59.72024 46.11307,-34.01784 238.88093,-42.33332 287.26193,-68.03569 48.3809,-25.70239 95.25,-9.07142 117.9286,27.21427 22.6785,36.28573 40.0117,142.00969 143.6309,145.14288 139.5007,15.48703 316.014,-197.18649 360.2708,-277.42532 43.5806,-113.32393 91.7822,-245.3484 225.785,-337.7972 l 11.1466,-364.49177 -2057.702398,4.53571 z"
       id="path4581"
       inkscape:connector-curvature="0"
       sodipodi:nodetypes="cccccccccccc" />
  </g>
</svg>
