<?xml version="1.0" encoding="UTF-8" standalone="no"?>
<!-- Created with Inkscape (http://www.inkscape.org/) -->

<svg
   xmlns:dc="http://purl.org/dc/elements/1.1/"
   xmlns:cc="http://creativecommons.org/ns#"
   xmlns:rdf="http://www.w3.org/1999/02/22-rdf-syntax-ns#"
   xmlns:svg="http://www.w3.org/2000/svg"
   xmlns="http://www.w3.org/2000/svg"
   xmlns:sodipodi="http://sodipodi.sourceforge.net/DTD/sodipodi-0.dtd"
   xmlns:inkscape="http://www.inkscape.org/namespaces/inkscape"
   width="500mm"
   height="600mm"
   viewBox="0 0 500 600"
   version="1.1"
   id="svg8"
   inkscape:version="0.92.4 (f8dce91, 2019-08-02)"
   sodipodi:docname="car.svg">
  <defs
     id="defs2" />
  <sodipodi:namedview
     id="base"
     pagecolor="#ffffff"
     bordercolor="#666666"
     borderopacity="1.0"
     inkscape:pageopacity="0.0"
     inkscape:pageshadow="2"
     inkscape:zoom="0.175"
     inkscape:cx="1385.2674"
     inkscape:cy="1159.3639"
     inkscape:document-units="mm"
     inkscape:current-layer="layer1"
     showgrid="false"
     inkscape:window-width="1853"
     inkscape:window-height="1025"
     inkscape:window-x="67"
     inkscape:window-y="27"
     inkscape:window-maximized="1" />
  <metadata
     id="metadata5">
    <rdf:RDF>
      <cc:Work
         rdf:about="">
        <dc:format>image/svg+xml</dc:format>
        <dc:type
           rdf:resource="http://purl.org/dc/dcmitype/StillImage" />
        <dc:title />
      </cc:Work>
    </rdf:RDF>
  </metadata>
  <g
     inkscape:label="Layer 1"
     inkscape:groupmode="layer"
     id="layer1"
     transform="translate(0,303)">
    <rect
       style="fill:#7505ab;fill-opacity:1;stroke-width:0.26458332"
       id="rect1368"
       width="499.68454"
       height="600.60419"
       x="0"
       y="-303.0372" />
    <path
       id="path5134"
       d="m 322.32233,-26.500356 h -17.78532 l -4.94321,-12.357938 c -5.07985,-12.705501 -17.20305,-20.913429 -30.88892,-20.913429 h -37.72725 c -13.68284,0 -25.80907,8.207928 -30.89195,20.913429 l -4.9431,12.357938 h -17.7824 c -2.32009,0 -4.02221,2.18046 -3.45779,4.429241 l 1.78239,7.129577 c 0.39511,1.586336 1.82102,2.700336 3.45779,2.700336 h 5.96213 c -3.98954,3.4845776 -6.55921,8.5495523 -6.55921,14.2591533 V 16.277106 c 0,4.788695 1.82988,9.111004 4.75301,12.455966 v 16.062342 c 0,5.249142 4.25697,9.506095 9.50614,9.506095 h 9.50614 c 5.24916,0 9.50603,-4.256953 9.50603,-9.506095 v -9.506107 h 76.04889 v 9.506107 c 0,5.249142 4.25698,9.506095 9.50603,9.506095 h 9.50614 c 5.24917,0 9.50614,-4.256953 9.50614,-9.506095 V 28.733072 c 2.92313,-3.341998 4.75302,-7.664295 4.75302,-12.455966 V 2.0179513 c 0,-5.709601 -2.56957,-10.7745757 -6.55618,-14.2591533 h 5.96201 c 1.63688,0 3.0628,-1.114 3.4579,-2.700336 l 1.78239,-7.129577 c 0.5615,-2.248781 -1.14073,-4.429241 -3.46082,-4.429241 z m -104.58494,-5.296681 c 2.16559,-5.412539 7.40881,-8.962473 13.24024,-8.962473 h 37.72725 c 5.83143,0 11.07465,3.549934 13.24024,8.962473 l 5.92058,14.802776 h -76.04889 z m -15.42661,48.014725 c -5.70366,0 -9.50614,-3.790554 -9.50614,-9.4763975 0,-5.6858321 3.80248,-9.476398 9.50614,-9.476398 5.70366,0 14.25915,8.5287593 14.25915,14.2146025 0,5.685833 -8.55549,4.738193 -14.25915,4.738193 z m 95.06095,0 c -5.70366,0 -14.25915,0.94764 -14.25915,-4.738193 0,-5.6858432 8.55549,-14.2146025 14.25915,-14.2146025 5.70366,0 9.50614,3.7905659 9.50614,9.476398 0,5.6858435 -3.80248,9.4763975 -9.50614,9.4763975 z"
       inkscape:connector-curvature="0"
       style="fill:#ffffff;fill-opacity:1;stroke-width:0.29706571" />
  </g>
</svg>
