<?xml version="1.0" encoding="UTF-8" standalone="no"?>
<!-- Created with Inkscape (http://www.inkscape.org/) -->

<svg
   xmlns:dc="http://purl.org/dc/elements/1.1/"
   xmlns:cc="http://creativecommons.org/ns#"
   xmlns:rdf="http://www.w3.org/1999/02/22-rdf-syntax-ns#"
   xmlns:svg="http://www.w3.org/2000/svg"
   xmlns="http://www.w3.org/2000/svg"
   xmlns:xlink="http://www.w3.org/1999/xlink"
   xmlns:sodipodi="http://sodipodi.sourceforge.net/DTD/sodipodi-0.dtd"
   xmlns:inkscape="http://www.inkscape.org/namespaces/inkscape"
   width="1920mm"
   height="1080mm"
   viewBox="0 0 1920 1080"
   version="1.1"
   id="svg8"
   inkscape:version="0.92.3 (2405546, 2018-03-11)"
   sodipodi:docname="footer_glacier_2.svg">
  <defs
     id="defs2">
    <linearGradient
       inkscape:collect="always"
       id="linearGradient3098">
      <stop
         style="stop-color:#5b00fa;stop-opacity:1;"
         offset="0"
         id="stop3094" />
      <stop
         style="stop-color:#5b00fa;stop-opacity:0;"
         offset="1"
         id="stop3096" />
    </linearGradient>
    <linearGradient
       inkscape:collect="always"
       id="linearGradient3064">
      <stop
         style="stop-color:#26c281;stop-opacity:1;"
         offset="0"
         id="stop3060" />
      <stop
         style="stop-color:#26c281;stop-opacity:0;"
         offset="1"
         id="stop3062" />
    </linearGradient>
    <linearGradient
       inkscape:collect="always"
       id="linearGradient3017">
      <stop
         style="stop-color:#3b8dff;stop-opacity:0.142"
         offset="0"
         id="stop3013" />
      <stop
         style="stop-color:#3b8dff;stop-opacity:0;"
         offset="1"
         id="stop3015" />
    </linearGradient>
    <linearGradient
       inkscape:collect="always"
       id="linearGradient824">
      <stop
         style="stop-color:#0f6c33;stop-opacity:1;"
         offset="0"
         id="stop820" />
      <stop
         style="stop-color:#0f6c33;stop-opacity:0;"
         offset="1"
         id="stop822" />
    </linearGradient>
    <linearGradient
       inkscape:collect="always"
       xlink:href="#linearGradient824"
       id="linearGradient826"
       x1="-27.685704"
       y1="3132.7809"
       x2="7746.4303"
       y2="3132.7809"
       gradientUnits="userSpaceOnUse" />
    <linearGradient
       inkscape:collect="always"
       xlink:href="#linearGradient3017"
       id="linearGradient3019"
       x1="3849.876"
       y1="6407.666"
       x2="3863.7478"
       y2="476.04996"
       gradientUnits="userSpaceOnUse" />
    <linearGradient
       inkscape:collect="always"
       xlink:href="#linearGradient3064"
       id="linearGradient3066"
       x1="3848.9998"
       y1="6245.6816"
       x2="3911.9661"
       y2="386.79691"
       gradientUnits="userSpaceOnUse"
       gradientTransform="matrix(0.26458333,0,0,0.26458333,0.42522322,0.44884673)" />
    <linearGradient
       inkscape:collect="always"
       xlink:href="#linearGradient3098"
       id="linearGradient3114"
       x1="1038.9929"
       y1="1826.1049"
       x2="1054.3717"
       y2="-138.86073"
       gradientUnits="userSpaceOnUse"
       gradientTransform="translate(-12.095245,1330.4762)" />
    <linearGradient
       inkscape:collect="always"
       xlink:href="#linearGradient3098"
       id="linearGradient3116"
       gradientUnits="userSpaceOnUse"
       x1="1038.9929"
       y1="1826.1049"
       x2="1054.3717"
       y2="-138.86073"
       gradientTransform="translate(-12.095245,1330.4762)" />
  </defs>
  <sodipodi:namedview
     id="base"
     pagecolor="#ffffff"
     bordercolor="#666666"
     borderopacity="1.0"
     inkscape:pageopacity="0.0"
     inkscape:pageshadow="2"
     inkscape:zoom="0.12374369"
     inkscape:cx="4312.3776"
     inkscape:cy="792.34261"
     inkscape:document-units="mm"
     inkscape:current-layer="layer2"
     showgrid="false"
     inkscape:window-width="2560"
     inkscape:window-height="1377"
     inkscape:window-x="-8"
     inkscape:window-y="-8"
     inkscape:window-maximized="1" />
  <metadata
     id="metadata5">
    <rdf:RDF>
      <cc:Work
         rdf:about="">
        <dc:format>image/svg+xml</dc:format>
        <dc:type
           rdf:resource="http://purl.org/dc/dcmitype/StillImage" />
        <dc:title></dc:title>
      </cc:Work>
    </rdf:RDF>
  </metadata>
  <g
     inkscape:label="Layer 1"
     inkscape:groupmode="layer"
     id="layer1"
     transform="translate(0,783)" />
  <g
     inkscape:groupmode="layer"
     id="layer2"
     inkscape:label="Layer 2">
    <path
       style="fill:none;stroke:#000000;stroke-width:0;stroke-linecap:butt;stroke-linejoin:miter;stroke-opacity:1;stroke-miterlimit:4;stroke-dasharray:0, 0;stroke-dashoffset:0;opacity:1"
       d="M -6.047619,1092.0952 C 0,1087.5595 470.20239,590.14283 470.20239,590.14283 v 204.10712 l 179.91666,-305.40476 36.2857,432.40476 296.33333,-569.98809 84.66662,281.2143 58.9643,-182.94048 388.5596,447.52381 c 0,0 -25.7024,-235.85715 -7.5596,-222.25 4.1637,3.12273 33.9672,25.19668 77.423,57.35908 145.9007,107.98353 445.6961,329.68853 445.6961,329.68853 l 19.6547,240.3928 c 0,0 -2059.2142284,-16.6309 -2057.7023238,-24.1904 1.5119048,-7.5596 1.5119048,-185.9643 1.5119048,-185.9643 z"
       id="path11"
       inkscape:connector-curvature="0"
       sodipodi:nodetypes="ccccccccccscccc" />
    <path
       style="fill:#ffffff;fill-opacity:1;stroke:url(#linearGradient826);stroke-width:0;stroke-opacity:1;stroke-miterlimit:4;stroke-dasharray:0,0;stroke-dashoffset:0"
       d="m 7558.0407,4916.9746 c -66,-0.6795 -453,-4.0174 -860,-7.4176 C 3204.007,4880.3669 318.07991,4846.6692 40.897843,4831.8245 l -34.5454189,-1.8501 -31.1688671,-1.6693 0.117811,-26.3853 1.440649,-322.6533 1.558461,-349.0386 75.603685,-77.56 C 136.37801,3968.06 604.7831,3474.6037 1316.7508,2722.2818 l 455.5756,-481.3976 v 384.0507 c 0,321.8851 1.243,382.6962 7.6791,375.6833 4.2235,-4.6021 155.0141,-259.0817 335.0902,-565.5103 180.0762,-306.4285 330.3356,-560.3374 333.9097,-564.2418 4.8848,-5.3361 23.3168,194.0367 74.2242,802.8571 37.2491,445.4759 68.491,810.8417 69.4266,811.9239 2.1143,2.4459 -68.3838,137.2774 571.0818,-1092.2242 301.705,-580.0886 550.0701,-1051.6613 551.9225,-1047.9393 1.8525,3.7219 73.8373,241.3043 159.9663,527.9608 86.129,286.6565 158.2268,519.3707 160.2173,517.1429 1.9906,-2.2279 51.8647,-154.4794 110.8313,-338.3365 58.9666,-183.8571 108.9476,-336.244 111.069,-338.6375 2.681,-3.025 1347.0298,1537.3572 1462.1152,1675.3212 8.8857,10.6524 8.7017,7.3772 -12.8098,-228.1123 -22.4428,-245.6817 -27.3925,-325.3343 -28.2297,-454.2857 -0.7617,-117.2994 2.3017,-151.4286 13.5932,-151.4286 5.0257,0 1951.4605,1436.7648 1970.8857,1454.8133 6.2068,5.7667 16.5731,110.0858 44.072,443.5064 19.776,239.7813 36.0526,443.0375 36.1703,451.6803 0.2114,15.4942 -0.2457,15.696 -32.6435,14.4082 -18.0714,-0.7184 -86.8571,-1.862 -152.8571,-2.5415 z"
       id="path13"
       inkscape:connector-curvature="0"
       transform="scale(0.26458333)"
       sodipodi:nodetypes="ssscccccsscscscscscscsccccscsccs" />
    <path
       style="fill:#ffffff;fill-opacity:1;stroke:#0f6c33;stroke-width:5.71428592;stroke-opacity:1;stroke-miterlimit:4;stroke-dasharray:0,62.85714515;stroke-dashoffset:0"
       d="m 7637.5647,4918.7109 c -1.3097,-1.1613 -177.2383,-3.7598 -390.9526,-5.7744 -213.7143,-2.0146 -456.7143,-4.9748 -540,-6.578 -83.2857,-1.6034 -444.5714,-5.4814 -802.8571,-8.6179 C 2866.48,4871.1517 291.28866,4839.5533 42.326415,4825.819 l -61.428572,-3.3887 v -86.2549 -256.7149 -342.9698 L 91.26538,4021.5137 C 255.49872,3850.421 383.84892,3715.2921 952.20139,3115.1079 1236.4258,2814.9651 1536.5662,2498.115 1619.1801,2410.9967 l 150.2071,-158.397 1.4696,375.0641 c 0.955,243.7281 3.4706,375.6983 7.1839,376.8749 3.1429,0.9959 18.2993,-19.3614 33.681,-45.2386 15.3816,-25.8771 162.8917,-275.9064 327.8003,-555.6207 164.9084,-279.7143 301.7288,-510.634 304.0453,-513.1549 2.3164,-2.5209 5.8119,10.7265 7.7677,29.4386 9.6082,91.927 35.5799,386.2054 66.6456,755.1448 46.9866,558.0178 69.6282,813.82 72.2932,816.7619 1.2337,1.362 4.5148,0.076 7.2914,-2.8571 2.7766,-2.9333 168.8789,-320.3333 369.1162,-705.3333 485.0552,-932.6249 734.814,-1408.3199 744.7374,-1418.4401 2.2404,-2.2849 22.5568,56.8579 45.1475,131.4285 266.3239,879.1208 269.1359,888.1006 279.0623,891.1379 7.2251,2.2108 13.7975,-16.8603 131.3947,-381.2692 49.1897,-152.4286 90.5845,-279.0685 91.9884,-281.4221 1.404,-2.3536 16.43,11.7892 33.3913,31.4286 16.9612,19.6393 141.0279,161.7078 275.7038,315.7078 341.605,390.6206 727.9993,833.8897 957.6164,1098.5714 107.0149,123.3572 196.6369,224.2857 199.1592,224.2857 6.9766,0 5.9394,-18.8379 -12.5023,-227.0553 -9.3988,-106.1196 -19.6754,-234.0875 -22.8371,-284.3732 -6.517,-103.6688 -7.0642,-297.5812 -0.8834,-313.2625 4.5,-11.4182 -11.7286,-22.5336 277.9525,190.3783 329.5903,242.2446 650.9943,478.6737 788.5715,580.0833 81.7142,60.2326 261.7142,192.5758 400,294.0959 214.3377,157.3523 481.4788,354.2743 508.3085,374.6974 5.9749,4.5481 16.2515,109.2223 42.6389,434.2857 19.1217,235.5613 36.2097,439.2219 37.9743,452.579 l 3.2068,24.2857 h -53.6834 c -29.5257,0 -54.7549,-0.9501 -56.064,-2.1113 z"
       id="path828"
       inkscape:connector-curvature="0"
       transform="scale(0.26458333)"
       sodipodi:nodetypes="cscscccccssscsccscssccscscscsssscccscsccccsc" />
    <path
       style="opacity:1;fill:url(#linearGradient3019);fill-opacity:1;stroke:#ffffff;stroke-width:3.77952761;stroke-miterlimit:4;stroke-dasharray:none;stroke-dashoffset:0;stroke-opacity:0.94117647"
       d="m 7028.6983,4902.8871 c -51.6045,-0.9527 -118.0377,-2.0225 -199.6182,-3.2134 -421.2987,-6.1498 -1246.5645,-15.5254 -2519.7124,-28.6414 -2089.1715,-21.5227 -3751.86132,-43.0489 -4123.44269,-53.3849 l -191.9289853,-5.3388 0.2268536,-336.2952 0.2268528,-336.2953 147.2554189,-153.6523 c 80.99048,-84.5088 476.71324,-501.2188 879.38395,-926.0223 l 732.1285,-772.3699 5.734,356.2962 c 3.3183,206.1956 8.9727,359.5548 13.4218,364.0311 4.8901,4.9201 11.9515,3.4496 19.404,-4.0406 12.827,-12.8918 164.045,-264.7853 457.1355,-761.48 l 189.6523,-321.3999 6.1001,58.7602 c 3.3551,32.3181 33.4704,373.3217 66.9229,757.7858 63.4744,729.5002 66.2928,757.3795 77.2516,764.1524 12.8375,7.934 2.5669,27.0542 568.9117,-1059.117 490.2377,-940.2082 548.0589,-1048.0617 555.1151,-1035.453 3.3731,6.0273 42.8233,130.5553 87.6671,276.7287 210.5586,686.3382 219.7892,714.2776 235.9816,714.2776 11.3412,0 27.751,-44.9247 130.7648,-357.9908 l 97.8529,-297.3816 626.1886,717.353 c 304.1822,348.4669 496.7201,568.8114 619.0219,707.5282 183.8771,208.5565 208.991,232.5999 216.0663,230.1415 10.883,-3.7814 9.7407,-47.6125 -6.9917,-268.2998 -18.4556,-243.4122 -29.4689,-508.216 -21.979,-528.463 6.5114,-17.6021 15.6596,-12.0644 188.219,113.9357 95.1221,69.4566 693.935,508.1084 1166.0227,854.0537 309.0667,226.4837 563.8181,413.2328 587.3592,430.6375 18.2425,13.4872 22.7614,24.4613 27.1621,65.9619 8.3284,78.5405 69.603,806.9237 69.603,827.3839 v 18.3994 l -191.929,-1.3102 c -105.5609,-0.7208 -337.3909,-3.9953 -515.1778,-7.2774 z"
       id="path1477"
       inkscape:connector-curvature="0"
       transform="scale(0.26458333)"
       sodipodi:nodetypes="sssscccsscsccsccssscssscsscscsscssccs" />
    <path
       style="opacity:1;fill:#3b8dff;fill-opacity:0;stroke:#ffffff;stroke-width:0;stroke-miterlimit:4;stroke-dasharray:none;stroke-dashoffset:0;stroke-opacity:0.94117647"
       d="m 7375.4972,4907.2879 c -33.335,-1.0941 -458.8113,-5.8039 -945.5028,-10.4662 -486.6915,-4.6623 -1063.0845,-10.2933 -1280.8734,-12.5134 -217.7889,-2.22 -594.1717,-5.9515 -836.4063,-8.2921 -2380.1245,-22.998 -4151.1982,-46.745 -4268.904665,-57.2385 l -54.548237,-4.863 v -338.8549 -338.855 L 177.15017,3940.2762 c 103.33861,-107.7607 502.44988,-528.0297 886.91393,-933.931 l 699.0256,-738.0025 4.0406,367.8424 c 2.2223,202.3134 6.4174,370.2165 9.3226,373.118 8.2464,8.2366 32.3816,-31.0609 358.7067,-584.0541 168.6094,-285.7269 307.3815,-516.6477 308.3825,-513.1574 2.896,10.0981 30.8768,325.8189 83.2833,939.7269 53.1076,622.1215 55.5608,646.4976 65.0644,646.4976 9.1473,0 25.8682,-31.4157 460.2266,-864.6905 588.609,-1129.19 656.1169,-1255.8277 662.8405,-1243.4197 3.2883,6.0685 61.1431,192.861 128.5661,415.0946 154.9313,510.6702 179.514,585.8884 191.4789,585.8884 12.6775,0 18.9528,-17.2316 130.4822,-358.3034 52.0865,-159.2872 97.5923,-289.4355 101.1241,-289.2184 5.6399,0.3466 278.3089,311.2919 1207.7709,1377.3136 134.4453,154.1985 248.0875,280.3608 252.5382,280.3608 11.307,0 10.6292,-15.7377 -12.0238,-279.2008 -19.5274,-227.1106 -27.8365,-545.3049 -14.2292,-544.906 5.8723,0.1722 122.1306,85.3089 1198.0409,877.3329 277.7919,204.4946 562.0632,413.4553 631.7139,464.3572 90.5288,66.1599 127.9699,98.3094 131.3102,112.7519 2.5699,11.1117 19.1642,192.9391 36.8763,404.061 17.712,211.1219 34.4378,404.7681 37.1686,430.325 l 4.9648,46.467 -152.3163,-1.6263 c -83.774,-0.8945 -179.5905,-2.5215 -212.9255,-3.6155 z"
       id="path3021"
       inkscape:connector-curvature="0"
       transform="scale(0.26458333)" />
    <path
       style="opacity:1;fill:#3b8dff;fill-opacity:0;stroke:#ffffff;stroke-width:0;stroke-miterlimit:4;stroke-dasharray:none;stroke-dashoffset:0;stroke-opacity:0.94117647"
       d="m 7375.4972,4907.2879 c -33.335,-1.0941 -458.8113,-5.8039 -945.5028,-10.4662 -486.6915,-4.6623 -1063.0845,-10.2933 -1280.8734,-12.5134 -217.7889,-2.22 -594.1717,-5.9515 -836.4063,-8.2921 -2380.1245,-22.998 -4151.1982,-46.745 -4268.904665,-57.2385 l -54.548237,-4.863 v -338.8549 -338.855 L 177.15017,3940.2762 c 103.33861,-107.7607 502.44988,-528.0297 886.91393,-933.931 l 699.0256,-738.0025 4.0406,367.8424 c 2.2223,202.3134 6.4174,370.2165 9.3226,373.118 8.2464,8.2366 32.3816,-31.0609 358.7067,-584.0541 168.6094,-285.7269 307.3815,-516.6477 308.3825,-513.1574 2.896,10.0981 30.8768,325.8189 83.2833,939.7269 53.1076,622.1215 55.5608,646.4976 65.0644,646.4976 9.1473,0 25.8682,-31.4157 460.2266,-864.6905 588.609,-1129.19 656.1169,-1255.8277 662.8405,-1243.4197 3.2883,6.0685 61.1431,192.861 128.5661,415.0946 154.9313,510.6702 179.514,585.8884 191.4789,585.8884 12.6775,0 18.9528,-17.2316 130.4822,-358.3034 52.0865,-159.2872 97.5923,-289.4355 101.1241,-289.2184 5.6399,0.3466 278.3089,311.2919 1207.7709,1377.3136 134.4453,154.1985 248.0875,280.3608 252.5382,280.3608 11.307,0 10.6292,-15.7377 -12.0238,-279.2008 -19.5274,-227.1106 -27.8365,-545.3049 -14.2292,-544.906 5.8723,0.1722 122.1306,85.3089 1198.0409,877.3329 277.7919,204.4946 562.0632,413.4553 631.7139,464.3572 90.5288,66.1599 127.9699,98.3094 131.3102,112.7519 2.5699,11.1117 19.1642,192.9391 36.8763,404.061 17.712,211.1219 34.4378,404.7681 37.1686,430.325 l 4.9648,46.467 -152.3163,-1.6263 c -83.774,-0.8945 -179.5905,-2.5215 -212.9255,-3.6155 z"
       id="path3023"
       inkscape:connector-curvature="0"
       transform="scale(0.26458333)" />
    <path
       style="opacity:1;fill:#3b8dff;fill-opacity:0;stroke:#ffffff;stroke-width:0;stroke-miterlimit:4;stroke-dasharray:none;stroke-dashoffset:0;stroke-opacity:0.94117647"
       d="m 4203.6182,4874.7778 c -71.1147,-1.0051 -514.7737,-5.7198 -985.9089,-10.4771 C 1551.198,4847.4735 164.10652,4827.5206 51.891255,4818.7614 l -62.629457,-4.8885 V 4475.444 4137.0151 L 185.23139,3932.3195 c 107.78328,-112.5825 504.99518,-530.9448 882.69311,-929.6939 544.0752,-574.3994 687.9019,-722.0166 692.3966,-710.6439 3.1203,7.895 5.9288,171.4205 6.2411,363.3903 0.3322,204.0343 3.6686,350.9521 8.0313,353.6484 11.0219,6.8119 21.4427,-9.7099 244.6456,-387.8756 112.6878,-190.9235 253.8888,-429.9635 313.78,-531.2003 l 108.8931,-184.0667 9.6404,91.1327 c 5.3022,50.123 35.3454,391.148 66.7626,757.8334 61.8264,721.6052 63.9866,743.4722 73.4451,743.4722 9.3714,0 27.7492,-34.4858 452.1869,-848.5281 462.6691,-887.3676 645.2213,-1235.0435 659.2487,-1255.5583 9.3466,-13.6692 11.44,-11.3852 22.2194,24.2436 265.5879,877.8362 296.426,973.8911 311.7191,970.9459 8.5433,-1.6454 44.7257,-100.985 117.694,-323.1317 57.9471,-176.4157 107.1766,-322.3333 109.399,-324.2612 4.16,-3.6089 119.4408,127.6541 928.1829,1056.8646 500.9995,575.6272 530.8398,608.8226 539.5017,600.1606 3.0461,-3.0461 -4.173,-124.6922 -16.0423,-270.3247 -19.8074,-243.0287 -29.0235,-551.6698 -16.473,-551.6698 6.1932,0 82.0574,55.4816 1005.3592,735.2465 424.4661,312.5058 812.3206,597.6623 861.899,633.6812 49.5783,36.0189 92.0803,72.285 94.4489,80.5913 7.1998,25.249 56.3914,627.4616 51.642,632.211 -2.4353,2.4353 -1478.4748,0.5147 -3280.0878,-4.2682 -1801.6129,-4.7829 -3536.58226,-8.6901 -3855.48742,-8.6828 l -579.827562,0.013 v 55.5834 55.5834 l 155.563492,4.9538 c 121.97562,3.8843 5741.96539,17.2196 7256.93729,17.2196 h 321.2299 v 23.3915 23.3914 l -2499.1174,-5.2155 c -1374.5146,-2.8685 -3091.8749,-6.7152 -3816.3563,-8.5484 -788.83711,-1.9959 -1219.98706,-0.6788 -1074.80232,3.2839 354.48956,9.6751 2060.99192,32.0096 3725.44262,48.7582 480.0245,4.8303 925.5017,9.595 989.9495,10.5883 64.4477,0.9932 -71.9229,1.797 -303.0458,1.7861 -231.1229,-0.01 -478.4083,-0.8422 -549.523,-1.8473 z"
       id="path3025"
       inkscape:connector-curvature="0"
       transform="scale(0.26458333)" />
    <path
       style="opacity:1;fill:#3b8dff;fill-opacity:0;stroke:#ffffff;stroke-width:0;stroke-miterlimit:4;stroke-dasharray:none;stroke-dashoffset:0;stroke-opacity:0.94117647"
       d=""
       id="path3027"
       inkscape:connector-curvature="0"
       transform="scale(0.26458333)" />
    <path
       style="opacity:1;fill:#3b8dff;fill-opacity:0;stroke:#ffffff;stroke-width:0;stroke-miterlimit:4;stroke-dasharray:none;stroke-dashoffset:0;stroke-opacity:0.94117647"
       d="m 7375.4972,4907.2879 c -33.335,-1.0941 -458.8113,-5.8039 -945.5028,-10.4662 -486.6915,-4.6623 -1063.0845,-10.2933 -1280.8734,-12.5134 -217.7889,-2.22 -594.1717,-5.9515 -836.4063,-8.2921 -2380.1245,-22.998 -4151.1982,-46.745 -4268.904665,-57.2385 l -54.548237,-4.863 v -338.8549 -338.855 L 177.15017,3940.2762 c 103.33861,-107.7607 502.44988,-528.0297 886.91393,-933.931 l 699.0256,-738.0025 4.0406,367.8424 c 2.2223,202.3134 6.4174,370.2165 9.3226,373.118 8.2464,8.2366 32.3816,-31.0609 358.7067,-584.0541 168.6094,-285.7269 307.3815,-516.6477 308.3825,-513.1574 2.896,10.0981 30.8768,325.8189 83.2833,939.7269 53.1076,622.1215 55.5608,646.4976 65.0644,646.4976 9.1473,0 25.8682,-31.4157 460.2266,-864.6905 588.609,-1129.19 656.1169,-1255.8277 662.8405,-1243.4197 3.2883,6.0685 61.1431,192.861 128.5661,415.0946 154.9313,510.6702 179.514,585.8884 191.4789,585.8884 12.6775,0 18.9528,-17.2316 130.4822,-358.3034 52.0865,-159.2872 97.5923,-289.4355 101.1241,-289.2184 5.6399,0.3466 278.3089,311.2919 1207.7709,1377.3136 134.4453,154.1985 248.0875,280.3608 252.5382,280.3608 11.307,0 10.6292,-15.7377 -12.0238,-279.2008 -19.5274,-227.1106 -27.8365,-545.3049 -14.2292,-544.906 5.8723,0.1722 122.1306,85.3089 1198.0409,877.3329 277.7919,204.4946 562.0632,413.4553 631.7139,464.3572 90.5288,66.1599 127.9699,98.3094 131.3102,112.7519 2.5699,11.1117 19.1642,192.9391 36.8763,404.061 17.712,211.1219 34.4378,404.7681 37.1686,430.325 l 4.9648,46.467 -152.3163,-1.6263 c -83.774,-0.8945 -179.5905,-2.5215 -212.9255,-3.6155 z"
       id="path3029"
       inkscape:connector-curvature="0"
       transform="scale(0.26458333)" />
    <path
       style="opacity:1;fill:#3b8dff;fill-opacity:0;stroke:#ffffff;stroke-width:0;stroke-miterlimit:4;stroke-dasharray:none;stroke-dashoffset:0;stroke-opacity:0.94117647"
       d="m 7375.4972,4907.2879 c -33.335,-1.0941 -458.8113,-5.8039 -945.5028,-10.4662 -486.6915,-4.6623 -1063.0845,-10.2933 -1280.8734,-12.5134 -217.7889,-2.22 -594.1717,-5.9515 -836.4063,-8.2921 -2380.1245,-22.998 -4151.1982,-46.745 -4268.904665,-57.2385 l -54.548237,-4.863 v -338.8549 -338.855 L 177.15017,3940.2762 c 103.33861,-107.7607 502.44988,-528.0297 886.91393,-933.931 l 699.0256,-738.0025 4.0406,367.8424 c 2.2223,202.3134 6.4174,370.2165 9.3226,373.118 8.2464,8.2366 32.3816,-31.0609 358.7067,-584.0541 168.6094,-285.7269 307.3815,-516.6477 308.3825,-513.1574 2.896,10.0981 30.8768,325.8189 83.2833,939.7269 53.1076,622.1215 55.5608,646.4976 65.0644,646.4976 9.1473,0 25.8682,-31.4157 460.2266,-864.6905 588.609,-1129.19 656.1169,-1255.8277 662.8405,-1243.4197 3.2883,6.0685 61.1431,192.861 128.5661,415.0946 154.9313,510.6702 179.514,585.8884 191.4789,585.8884 12.6775,0 18.9528,-17.2316 130.4822,-358.3034 52.0865,-159.2872 97.5923,-289.4355 101.1241,-289.2184 5.6399,0.3466 278.3089,311.2919 1207.7709,1377.3136 134.4453,154.1985 248.0875,280.3608 252.5382,280.3608 11.307,0 10.6292,-15.7377 -12.0238,-279.2008 -19.5274,-227.1106 -27.8365,-545.3049 -14.2292,-544.906 5.8723,0.1722 122.1306,85.3089 1198.0409,877.3329 277.7919,204.4946 562.0632,413.4553 631.7139,464.3572 90.5288,66.1599 127.9699,98.3094 131.3102,112.7519 2.5699,11.1117 19.1642,192.9391 36.8763,404.061 17.712,211.1219 34.4378,404.7681 37.1686,430.325 l 4.9648,46.467 -152.3163,-1.6263 c -83.774,-0.8945 -179.5905,-2.5215 -212.9255,-3.6155 z"
       id="path3031"
       inkscape:connector-curvature="0"
       transform="scale(0.26458333)" />
    <path
       style="opacity:1;fill:#3b8dff;fill-opacity:0;stroke:#ffffff;stroke-width:0;stroke-miterlimit:4;stroke-dasharray:none;stroke-dashoffset:0;stroke-opacity:0.94117647"
       d="m 7367.416,4907.2363 c -72.6567,-2.0836 -1217.6179,-13.9844 -2610.2342,-27.1308 C 2212.8872,4856.0871 207.67419,4830.0061 55.931866,4818.9582 l -66.670068,-4.854 V 4475.5597 4137.0151 L 185.23139,3932.3195 c 107.78328,-112.5825 504.87864,-530.8218 882.43411,-929.4206 463.1675,-488.9823 688.5387,-721.4589 692.8409,-714.6844 3.507,5.5222 6.4321,168.9248 6.5002,363.1169 0.073,210.9116 3.1751,354.9624 7.7022,357.7603 10.9519,6.7686 30.6383,-24.6495 273.2419,-436.0753 223.0456,-378.2576 239.5696,-407.9414 220.5402,-396.1806 -7.0761,4.3732 -9.2282,2.8282 -6.5959,-4.7352 2.1489,-6.1746 9.1584,-10.3267 15.5766,-9.2271 7.4167,1.2706 39.5078,-45.2296 88.0551,-127.5926 l 76.3855,-129.5919 9.6404,91.2271 c 5.3022,50.1749 35.3454,391.2424 66.7626,757.9278 61.8264,721.6052 63.9866,743.4722 73.4451,743.4722 9.4495,0 25.9088,-30.9482 500.6988,-941.4621 472.9246,-906.9369 594.9165,-1139.1294 610.8326,-1162.6243 9.2404,-13.6405 11.3656,-11.3102 22.1108,24.2436 50.7668,167.9781 274.3713,896.639 285.5637,930.5676 9.6603,29.2841 17.9241,41.9659 26.2957,40.3537 8.376,-1.6131 45.2797,-103.0352 117.5665,-323.1071 57.9471,-176.4157 107.1766,-322.3301 109.399,-324.2541 4.0907,-3.5415 156.0902,169.5479 956.5382,1089.2574 473.265,543.7783 502.5738,576.3333 511.1464,567.7607 3.0461,-3.0461 -4.173,-124.6922 -16.0423,-270.3247 -20.6644,-253.5437 -28.889,-551.8603 -15.2054,-551.5183 3.3335,0.083 170.2316,120.9985 370.8847,268.7005 200.653,147.702 639.4345,470.3776 975.07,717.0569 364.2937,267.7419 612.0135,455.0218 614.6311,464.6702 2.4117,8.8893 19.1128,192.535 37.1134,408.1016 18.0008,215.5666 34.9612,411.0311 37.6898,434.3656 l 4.9611,42.4264 -152.4541,-1.6618 c -83.8496,-0.9139 -183.3646,-2.5482 -221.1443,-3.6316 z"
       id="path3033"
       inkscape:connector-curvature="0"
       transform="scale(0.26458333)" />
    <path
       style="opacity:1;fill:#3b8dff;fill-opacity:0;stroke:#ffffff;stroke-width:0;stroke-miterlimit:4;stroke-dasharray:none;stroke-dashoffset:0;stroke-opacity:0.94117647"
       d="M 7367.416,4907.2287 C 7296.4903,4905.187 6204.0872,4893.8446 4757.1818,4880.1268 2176.7952,4855.6625 208.27534,4830.0499 55.931866,4818.9582 l -66.670068,-4.854 V 4475.5597 4137.0151 L 185.23139,3932.283 c 107.78328,-112.6027 504.85486,-530.8694 882.38121,-929.4816 377.5265,-398.6123 689.3606,-724.7495 692.9647,-724.7495 3.6041,0 6.6087,160.9173 6.6767,357.594 0.065,196.6767 3.2561,362.5377 7.0845,368.58 9.8253,15.507 13.3406,9.8667 360.5002,-578.4341 168.433,-285.4285 307.0146,-518.1677 307.959,-517.1982 2.338,2.4001 34.7302,366.9333 88.1227,991.7122 48.7645,570.6221 51.5509,598.0103 60.8399,598.0103 9.4446,0 25.7967,-30.743 500.7599,-941.4621 597.5055,-1145.6884 615.5116,-1179.4337 622.4741,-1166.5774 3.2655,6.0296 61.0849,192.7903 128.4877,415.0239 154.3899,509.0381 179.5112,585.8884 191.5199,585.8884 12.7262,0 19.3124,-18.0797 130.5204,-358.2922 52.0654,-159.2811 97.5235,-289.4027 101.0178,-289.1591 5.5769,0.3887 297.6088,333.3997 1207.8061,1377.2904 134.4273,154.1724 248.0694,280.3135 252.5382,280.3135 11.2374,0 10.6798,-13.1322 -12.0098,-282.8427 -18.6578,-221.7847 -27.6866,-541.4418 -15.293,-541.4418 6.2857,0 -55.5866,-45.2237 912.2403,666.7751 453.3564,333.5197 873.9988,642.6789 934.7609,687.0204 77.9561,56.8892 111.857,86.5682 115.1666,100.8242 2.5795,11.1117 19.1458,192.9391 36.8137,404.061 17.668,211.1219 34.3854,404.7681 37.1498,430.325 l 5.0261,46.467 -152.3163,-1.6618 c -83.774,-0.9139 -183.227,-2.5516 -221.0067,-3.6392 z"
       id="path3035"
       inkscape:connector-curvature="0"
       transform="scale(0.26458333)" />
  </g>
  <g
     inkscape:groupmode="layer"
     id="layer3"
     inkscape:label="Layer 3">
    <path
       style="fill:none;stroke:#000000;stroke-width:0.26458332;stroke-linecap:butt;stroke-linejoin:miter;stroke-opacity:1;stroke-miterlimit:4;stroke-dasharray:0,2.91041649;stroke-dashoffset:0"
       d="M -0.70299315,1258.6271 496.05223,442.82942 l 32.07234,431.90754 162.49989,-269.40769 59.86835,436.18383 359.21029,-741.94016 254.4406,761.18366 -40.625,-660.69031 581.5785,669.24291 126.1512,145.3946 4.2763,128.2894 -2046.215481,-12.829 z"
       id="path3038"
       inkscape:connector-curvature="0" />
    <path
       style="opacity:1;fill:#26c281;fill-opacity:0;stroke:#ffffff;stroke-width:46.17840195;stroke-miterlimit:4;stroke-dasharray:0, 507.96243414999997867;stroke-dashoffset:0;stroke-opacity:0.94117647"
       d="m 2834.8749,4323.8235 c -1404.1124,-3.675 -2554.30173,-8.0519 -2555.97638,-9.7265 -1.67466,-1.6747 173.59351,-293.5351 389.48479,-648.5786 215.89129,-355.0436 573.31289,-942.7845 794.27029,-1306.0909 220.9575,-363.3064 403.6429,-660.5943 405.9677,-660.6397 2.3249,-0.045 30.8496,360.8448 63.3882,801.9784 32.5386,441.1336 60.8358,803.7741 62.8825,805.8677 4.6889,4.7963 -28.8349,59.2459 315.799,-512.9235 163.3062,-271.1249 297.8552,-487.4996 298.998,-480.8326 1.1427,6.667 51.4798,373.9326 111.8603,816.1457 60.3805,442.2131 111.3238,805.565 113.2073,807.4486 1.8837,1.8836 4.8375,1.9095 6.5643,0.057 1.7268,-1.851 222.0696,-456.1166 489.6506,-1009.4782 267.5812,-553.3615 570.5393,-1179.8385 673.2403,-1392.171 108.7145,-224.7651 189.0609,-381.7631 192.3102,-375.7767 3.0695,5.6553 218.8459,648.3145 479.5032,1428.1315 260.6572,779.8171 475.6197,1419.5467 477.6944,1421.6214 6.9387,6.9387 4.0875,-43.7086 -69.2398,-1229.9894 -40.1565,-649.6471 -71.9763,-1195.4012 -70.7107,-1212.787 l 2.3012,-31.6106 473.3498,544.7681 c 522.6963,601.5597 1110.7101,1279.1701 1598.2725,1841.8038 175.2489,202.2326 327.8985,377.6961 339.2213,389.9189 l 20.5869,22.2234 -1029.8472,-1.3388 c -566.416,-0.7362 -2178.6664,-4.3456 -3582.7787,-8.0206 z"
       id="path3040"
       inkscape:connector-curvature="0"
       transform="scale(0.26458333)" />
    <path
       style="opacity:0.078;fill:url(#linearGradient3066);fill-opacity:1;stroke:#ffffff;stroke-width:0;stroke-miterlimit:4;stroke-dasharray:0,0;stroke-dashoffset:0;stroke-opacity:0.94117647"
       d="m 912.79149,1335.7944 c -459.81048,-2.8008 -855.325697,-5.6469 -878.92269,-6.3245 l -42.9036281,-1.2321 4.9433866,-34.2117 4.94338688,-34.2117 L 148.66338,1016.8215 c 307.9511,-506.25277 344.99356,-566.9236 346.13405,-566.9236 0.6445,0 8.21806,95.4954 16.83009,212.212 8.61206,116.71659 16.04227,212.61289 16.51162,213.1029 0.46934,0.48998 1.22734,0.48998 1.68449,0 0.45715,-0.49001 36.76674,-60.54548 80.68802,-133.4566 l 79.85683,-132.56567 4.74176,34.21049 c 2.60795,18.81577 15.35105,111.6652 28.31798,206.33208 12.96694,94.66686 24.2061,176.6919 24.9759,182.2778 0.76983,5.5859 1.99052,10.1409 2.71267,10.1221 0.72215,-0.019 61.88919,-125.34154 135.92672,-278.49489 248.64839,-514.35157 159.36849,-406.03288 265.57719,-405.43717 69.9472,0.39232 18.0866,125.9609 86.6539,331.17043 80.737,241.63102 124.8785,370.84793 125.2655,366.69383 0.3287,-3.528 -7.588,-138.7129 -17.5928,-300.41097 -20.8269,-336.60804 -21.5055,-348.51948 -19.8539,-348.51948 0.6712,0 16.9023,18.04069 36.0691,40.09043 19.1668,22.04974 47.44,54.52298 62.8292,72.16278 36.8217,42.20638 142.4243,163.82185 281.1688,323.80324 61.7634,71.21724 159.7576,184.1491 217.7649,250.9597 l 105.4678,121.4739 1.8392,47.4405 c 1.0116,26.0922 1.8803,54.4162 1.9306,62.9421 l 0.091,15.5016 -78.981,-0.1721 -63.7409,-0.1389 c -78.4971,-0.1711 -518.9305,-2.6027 -978.74101,-5.4036 z"
       id="path3044"
       inkscape:connector-curvature="0"
       sodipodi:nodetypes="cscccsssccsccsccsssssssssscssccssc" />
    <path
       style="opacity:1;fill:#26c281;fill-opacity:0;stroke:#ffffff;stroke-width:46.17840195;stroke-miterlimit:4;stroke-dasharray:0, 507.96243415;stroke-dashoffset:0;stroke-opacity:0.94117647"
       d="m 2834.8749,4323.8235 c -1404.1124,-3.675 -2554.30173,-8.0519 -2555.97638,-9.7265 -1.67466,-1.6747 173.59351,-293.5351 389.48479,-648.5786 215.89129,-355.0436 573.31289,-942.7845 794.27029,-1306.0909 220.9575,-363.3064 403.6429,-660.5943 405.9677,-660.6397 2.3249,-0.045 30.8496,360.8448 63.3882,801.9784 32.5386,441.1336 60.8358,803.7741 62.8825,805.8677 4.6889,4.7963 -28.8349,59.2459 315.799,-512.9235 163.3062,-271.1249 297.8552,-487.4996 298.998,-480.8326 1.9236,2.9577 51.5436,373.6294 111.8603,816.1457 60.2773,442.2272 111.3238,805.565 113.2073,807.4486 1.8837,1.8836 4.8375,1.9095 6.5643,0.057 1.7268,-1.851 222.0696,-456.1166 489.6506,-1009.4782 267.5812,-553.3615 570.5393,-1179.8385 673.2403,-1392.171 108.7145,-224.7651 189.0609,-381.7631 192.3102,-375.7767 3.0695,5.6553 218.8459,648.3145 479.5032,1428.1315 260.6572,779.8171 475.6197,1419.5467 477.6944,1421.6214 6.9387,6.9387 4.0875,-43.7086 -69.2398,-1229.9894 -40.1565,-649.6471 -71.9763,-1195.4012 -70.7107,-1212.787 l 2.3012,-31.6106 473.3498,544.7681 c 522.6963,601.5597 1110.7101,1279.1701 1598.2725,1841.8038 175.2489,202.2326 327.8985,377.6961 339.2213,389.9189 l 20.5869,22.2234 -1029.8472,-1.3388 c -566.416,-0.7362 -2178.6664,-4.3456 -3582.7787,-8.0206 z"
       id="path3046"
       inkscape:connector-curvature="0"
       transform="scale(0.26458333)"
       sodipodi:nodetypes="ccsscscscsccsscsssccssccscc" />
    <path
       style="opacity:1;fill:#26c281;fill-opacity:0;stroke:#ffffff;stroke-width:12.2180357;stroke-miterlimit:4;stroke-dasharray:0, 134.39839234;stroke-dashoffset:0;stroke-opacity:0.94117647"
       d="m 1966.9201,1300.2127 c -55.0991,-1.5361 -275.6159,-4.4563 -631.8252,-8.367 -661.17007,-7.2589 -790.1817,-8.7245 -937.58144,-10.6513 C 205.0996,1278.6793 1.259082,1274.7946 0.08485256,1273.6203 -3.5459281,1269.9896 20.467503,1228.5464 141.88937,1028.8894 218.05589,903.64687 281.7482,798.99236 283.42782,796.32386 c 1.67963,-2.66856 6.28095,-7.9605 10.22517,-11.75986 3.94422,-3.79942 35.33606,-36.73525 69.75964,-73.19084 77.11549,-81.66748 100.79964,-106.13546 101.78325,-105.15184 0.41884,0.41881 1.71337,42.92629 2.87674,94.46106 1.16337,51.5348 2.68012,94.26453 3.37058,94.95496 1.72397,1.72397 4.72988,-2.65975 26.10437,-38.06957 18.38587,-30.45881 18.59471,-30.70352 20.07013,-23.51974 0.82,3.99264 3.59047,37.08662 6.15659,73.54218 2.56614,36.45556 5.03452,66.68373 5.48529,67.17374 1.16385,1.26516 -3.09904,8.1529 62.74734,-101.38426 33.22542,-55.27132 62.17671,-103.35704 64.33624,-106.85711 5.06153,-8.20364 5.36824,-7.10959 8.37763,29.8835 6.86332,84.36734 19.65447,220.87321 21.12886,225.485 1.52953,4.78417 2.64642,3.53928 12.46886,-13.89803 5.93386,-10.53409 14.46607,-26.36919 18.96044,-35.18908 l 8.17157,-16.03618 4.87855,35.27959 c 2.68319,19.40375 8.4247,61.01763 12.7589,92.47523 4.33416,31.45759 8.45367,57.16809 9.15442,57.13439 0.70075,-0.034 53.67343,-108.51837 117.71707,-241.07708 64.04366,-132.55871 124.25881,-257.08324 133.81144,-276.7212 l 17.3684,-35.70536 19.8721,63.87552 c 10.9297,35.13154 21.7483,68.03692 24.0415,73.12308 l 4.1693,9.24759 3.3681,-6.36937 c 1.8525,-3.50314 15.3234,-42.46515 29.9354,-86.58222 14.6121,-44.11708 26.8478,-80.4934 27.1907,-80.83624 0.3429,-0.34285 11.927,12.35726 25.7424,28.22249 13.8155,15.86524 25.8246,29.12915 26.6869,29.47538 0.8623,0.34623 42.3616,122.82516 92.2206,272.17536 58.6152,175.57869 90.8587,269.27885 91.2354,265.13135 0.3205,-3.5279 -4.1993,-83.35617 -10.0439,-177.39604 -5.8446,-94.03988 -10.4343,-171.16663 -10.1993,-171.39283 0.235,-0.22616 30.7356,34.25974 67.7792,76.63537 76.2751,87.25424 101.4887,114.5897 103.7126,112.44062 0.8476,-0.81915 -0.4997,-31.12752 -2.9941,-67.35194 -6.3974,-92.9047 -7.9671,-140.69433 -4.6877,-142.72111 3.4033,-2.10336 13.8926,4.97885 90.5574,61.14322 35.0043,25.64402 64.0076,46.40593 64.4518,46.13754 0.7548,-0.45614 41.3054,46.0589 266.1184,305.26127 48.9548,56.4434 91.7793,105.7829 95.1654,109.6433 l 6.1565,7.0188 1.4554,42.1658 c 0.8005,23.1912 1.3976,42.2682 1.327,42.3933 -0.9434,1.6711 -22.6124,1.8699 -67.4803,0.6191 z"
       id="path3058"
       inkscape:connector-curvature="0" />
    <path
       style="opacity:0.078;fill:#26c281;fill-opacity:0;stroke:#ffffff;stroke-width:0;stroke-miterlimit:4;stroke-dasharray:none;stroke-dashoffset:0;stroke-opacity:0.94117647"
       d="m 7662.4766,5076.1538 c -26.5037,-0.1738 -45.096,-0.2929 -76.1161,-0.4877 -11.4419,-0.072 -27.3928,-0.1722 -35.4464,-0.2228 -8.0536,-0.051 -23.9844,-0.1505 -35.4018,-0.2217 -11.4174,-0.071 -25.0078,-0.1569 -30.2009,-0.1904 l -9.442,-0.061 v -0.4555 -0.4555 l 3.6384,0.025 c 2.0011,0.014 32.6674,0.2036 68.1474,0.4225 35.4799,0.2188 70.6964,0.4388 78.2589,0.4889 7.5625,0.05 23.7946,0.1496 36.0714,0.2212 12.2768,0.072 24.24,0.1531 26.5848,0.1809 l 4.2634,0.051 v -0.2324 c 0,-0.1278 -0.9643,-29.1549 -2.1428,-64.5046 -1.1786,-35.3497 -2.1429,-64.5365 -2.1429,-64.8593 v -0.5871 h 0.4464 c 0.4202,0 0.4465,0.014 0.4465,0.2299 0,0.489 4.2772,128.8885 4.325,129.837 l 0.051,1.0045 -3.7281,-0.013 c -2.0504,-0.01 -14.4759,-0.083 -27.612,-0.1694 z"
       id="path3068"
       inkscape:connector-curvature="0"
       transform="scale(0.26458333)" />
  </g>
  <g
     inkscape:groupmode="layer"
     id="layer4"
     inkscape:label="Layer 4">
    <path
       style="opacity:0.09100001;fill:url(#linearGradient3114);fill-opacity:1;stroke:url(#linearGradient3116);stroke-width:0.26499999;stroke-linecap:butt;stroke-linejoin:miter;stroke-miterlimit:4;stroke-dasharray:none;stroke-opacity:0"
       d="M -71.963645,2575.1142 855.99619,1512.4506 845.30541,2378.4038 1097.6079,1630.0491 c 0,0 389.1444,744.0784 387.0062,720.5587 -2.1381,-23.5197 -55.592,-624.3416 -55.592,-624.3416 l 709.8678,983.5518 -2225.820645,-21.3815 z"
       id="path3072"
       inkscape:connector-curvature="0" />
  </g>
</svg>
