<?xml version="1.0" encoding="UTF-8" standalone="no"?>
<!-- Created with Inkscape (http://www.inkscape.org/) -->

<svg
   xmlns:dc="http://purl.org/dc/elements/1.1/"
   xmlns:cc="http://creativecommons.org/ns#"
   xmlns:rdf="http://www.w3.org/1999/02/22-rdf-syntax-ns#"
   xmlns:svg="http://www.w3.org/2000/svg"
   xmlns="http://www.w3.org/2000/svg"
   xmlns:sodipodi="http://sodipodi.sourceforge.net/DTD/sodipodi-0.dtd"
   xmlns:inkscape="http://www.inkscape.org/namespaces/inkscape"
   width="210mm"
   height="100mm"
   viewBox="0 0 210 100"
   version="1.1"
   id="svg3966"
   inkscape:version="0.91 r13725"
   sodipodi:docname="logo_6.svg">
  <defs
     id="defs3960">
    <clipPath
       id="clipPath3984"
       clipPathUnits="userSpaceOnUse">
      <path
         inkscape:connector-curvature="0"
         id="path3982"
         d="m 0,1080 1920,0 L 1920,0 0,0 Z" />
    </clipPath>
  </defs>
  <sodipodi:namedview
     id="base"
     pagecolor="#ffffff"
     bordercolor="#666666"
     borderopacity="1.0"
     inkscape:pageopacity="0.0"
     inkscape:pageshadow="2"
     inkscape:zoom="0.87327348"
     inkscape:cx="372.04724"
     inkscape:cy="526.1811"
     inkscape:document-units="mm"
     inkscape:current-layer="g3976"
     showgrid="false"
     inkscape:window-width="1855"
     inkscape:window-height="1056"
     inkscape:window-x="65"
     inkscape:window-y="24"
     inkscape:window-maximized="1" />
  <metadata
     id="metadata3963">
    <rdf:RDF>
      <cc:Work
         rdf:about="">
        <dc:format>image/svg+xml</dc:format>
        <dc:type
           rdf:resource="http://purl.org/dc/dcmitype/StillImage" />
        <dc:title></dc:title>
      </cc:Work>
    </rdf:RDF>
  </metadata>
  <g
     inkscape:label="Layer 1"
     inkscape:groupmode="layer"
     id="layer1"
     transform="translate(0,-197)">
    <g
       transform="matrix(0.35277777,0,0,-0.35277777,4.3911545,504.47091)"
       inkscape:label="logo_3"
       id="g3976">
      <g
         id="g3978"
         transform="translate(-446.13657,315.94039)">
        <g
           clip-path="url(#clipPath3984)"
           id="g3980">
          <g
             transform="translate(789.6812,592.896)"
             id="g3986">
            <path
               inkscape:connector-curvature="0"
               id="path3988"
               style="fill:#00aeee;fill-opacity:1;fill-rule:nonzero;stroke:none;stroke-width:1.58368254"
               d="m -292.40986,-111.64864 c 1.32131,-2.6038 2.844,-5.82074 4.57116,-9.6459 1.7241,-3.82843 3.52449,-7.97084 5.39659,-12.42721 1.87209,-4.45802 3.72741,-9.01631 5.56288,-13.66995 1.83548,-4.65691 3.55959,-9.03603 5.17689,-13.13734 1.61577,4.10131 3.33987,8.48043 5.17688,13.13734 1.83548,4.65364 3.68926,9.21193 5.56136,13.66995 1.8721,4.45637 3.67249,8.59878 5.39811,12.42721 1.72563,3.82516 3.24986,7.0421 4.57116,9.6459 l 15.59929,0 c 0.73236,-5.44431 1.4098,-11.53957 2.03231,-18.28577 0.62098,-6.74621 1.17025,-13.77021 1.64781,-21.06709 0.47603,-7.29853 0.91545,-14.61678 1.31825,-21.95475 0.40127,-7.33798 0.75067,-14.24364 1.04362,-20.71203 l -16.69784,0 c -0.21971,7.96919 -0.51265,16.64688 -0.87884,26.03797 -0.3677,9.38946 -0.91545,18.85782 -1.64781,28.40508 -1.32283,-3.31393 -2.79213,-6.98292 -4.4079,-11.00697 -1.61729,-4.02405 -3.21476,-8.0481 -4.79391,-12.07215 -1.57916,-4.02405 -3.10338,-7.87058 -4.57268,-11.53956 -1.4693,-3.66899 -2.71889,-6.80539 -3.74725,-9.40919 l -11.97411,0 c -1.02988,2.6038 -2.27795,5.7402 -3.74725,9.40919 -1.46777,3.66898 -2.99505,7.51551 -4.5742,11.53956 -1.57916,4.02405 -3.17662,8.0481 -4.79239,12.07215 -1.6173,4.02405 -3.0866,7.69304 -4.4079,11.00697 -0.73236,-9.54726 -1.28163,-19.01562 -1.64782,-28.40508 -0.3677,-9.39109 -0.65912,-18.06878 -0.87883,-26.03797 l -16.69783,0 c 0.29142,6.46839 0.64082,13.37405 1.04361,20.71203 0.40127,7.33797 0.84069,14.65622 1.31825,21.95475 0.47604,7.29688 1.02531,14.32088 1.64781,21.06709 0.62251,6.7462 1.29995,12.84146 2.03231,18.28577 z" />
          </g>
          <g
             transform="translate(864.8481,567.9839)"
             id="g3990">
            <path
               inkscape:connector-curvature="0"
               id="path3992"
               style="fill:#00aeee;fill-opacity:1;fill-rule:nonzero;stroke:none;stroke-width:1.58368254"
               d="m -264.63369,-127.68735 c 0,-4.02405 0.4562,-7.65359 1.37318,-10.88861 0.91545,-3.23667 2.2337,-6.018 3.95475,-8.34399 1.71953,-2.32764 3.82659,-4.12268 6.31662,-5.38513 2.4885,-1.26245 5.34471,-1.89367 8.56862,-1.89367 3.14916,0 5.98706,0.63122 8.51371,1.89367 2.52664,1.26245 4.64896,3.05749 6.37154,5.38513 1.71952,2.32599 3.03777,5.10732 3.95475,8.34399 0.91545,3.23502 1.37317,6.86456 1.37317,10.88861 0,4.02405 -0.45772,7.67331 -1.37317,10.94779 -0.91698,3.27282 -2.23523,6.07553 -3.95475,8.40316 -1.72258,2.32764 -3.8449,4.12268 -6.37154,5.38513 -2.52665,1.2608 -5.36455,1.89367 -8.51371,1.89367 -3.22391,0 -6.08012,-0.65095 -8.56862,-1.95285 -2.49003,-1.3019 -4.59709,-3.11831 -6.31662,-5.4443 -1.72105,-2.32764 -3.0393,-5.12869 -3.95475,-8.40317 -0.91698,-3.27447 -1.37318,-6.88428 -1.37318,-10.82943 m 58.11287,0 c 0,-7.02237 -0.9719,-13.19653 -2.91114,-18.52247 -1.94076,-5.32596 -4.59709,-9.78397 -7.96443,-13.37406 -3.36885,-3.59173 -7.37853,-6.29251 -12.02903,-8.10728 -4.65202,-1.81477 -9.65039,-2.72215 -14.9951,-2.72215 -5.20129,0 -10.10658,0.90738 -14.72045,2.72215 -4.61388,1.81477 -8.64187,4.51555 -12.08397,8.10728 -3.44362,3.59009 -6.15183,8.0481 -8.12921,13.37406 -1.97737,5.32594 -2.96606,11.5001 -2.96606,18.52247 0,7.02236 1.02531,13.19652 3.07591,18.52247 2.05062,5.32595 4.81529,9.803693 8.294,13.43323 3.47719,3.627893 7.5067,6.350045 12.08396,8.166457 4.57573,1.814769 9.39253,2.722153 14.44582,2.722153 5.19977,0 10.10659,-0.907384 14.72046,-2.722153 4.61388,-1.816412 8.64187,-4.538564 12.08397,-8.166457 3.44209,-3.629537 6.15183,-8.10728 8.12921,-13.43323 1.97737,-5.32595 2.96606,-11.50011 2.96606,-18.52247" />
          </g>
          <g
             transform="translate(937.9282,552.144)"
             id="g3994">
            <path
               inkscape:connector-curvature="0"
               id="path3996"
               style="fill:#00aeee;fill-opacity:1;fill-rule:nonzero;stroke:none;stroke-width:1.58368254"
               d="m -238.73919,-137.88527 c 0.80407,-0.0789 1.73936,-0.13808 2.80128,-0.17753 1.0604,-0.0411 2.32372,-0.0591 3.78997,-0.0591 8.56862,0 14.92186,2.32599 19.0597,6.98291 4.13631,4.65528 6.20676,11.08423 6.20676,19.29178 0,8.59878 -1.97737,15.108276 -5.93213,19.528487 -3.95475,4.418566 -10.21643,6.627849 -18.78506,6.627849 -1.17178,0 -2.38018,-0.01973 -3.62519,-0.05917 -1.24654,-0.0411 -2.41679,-0.139724 -3.51533,-0.295886 z m 49.54424,26.03798 c 0,-7.10127 -1.02836,-13.29679 -3.0744,-18.58165 -2.05366,-5.2865 -4.96327,-9.66561 -8.73493,-13.13734 -3.77319,-3.47338 -8.36723,-6.07717 -13.7867,-7.8114 -5.421,-1.73422 -11.49807,-2.6038 -18.23579,-2.6038 -3.07592,0 -6.66602,0.13808 -10.76571,0.4126 -4.10276,0.2778 -8.12922,0.84821 -12.08397,1.71779 l 0,79.889253 c 3.95475,0.787386 8.07429,1.319981 12.3586,1.597785 4.28431,0.276161 7.96443,0.414241 11.04035,0.414241 6.51649,0 12.43031,-0.78903 17.74145,-2.367089 5.30809,-1.579704 9.86704,-4.065147 13.67684,-7.456331 3.80676,-3.392828 6.7362,-7.734135 8.78986,-13.018992 2.04604,-5.2865 3.0744,-11.639837 3.0744,-19.055067" />
          </g>
          <g
             transform="translate(800.9687,470.125)"
             id="g3998">
            <path
               inkscape:connector-curvature="0"
               id="path4000"
               style="fill:#003056;fill-opacity:1;fill-rule:nonzero;stroke:none;stroke-width:0.75640607"
               d="m -306.45959,-126.91497 c 0.96971,-0.97047 2.64818,-1.45608 5.03388,-1.45608 l 5.07549,0 c 0.60966,0 1.13612,-0.22238 1.58089,-0.66564 0.44325,-0.44476 0.66563,-0.97122 0.66563,-1.58089 l 0,-5.49075 c 0,-0.61193 -0.22238,-1.13763 -0.66563,-1.58164 -0.44477,-0.44477 -0.97123,-0.66564 -1.58089,-0.66564 l -6.15715,0 c -5.27063,0 -9.29169,1.28967 -12.06467,3.86902 -2.7745,2.57934 -4.16024,6.41962 -4.16024,11.52384 l 0,17.88901 -5.4915,0 c -0.61118,0 -1.13764,0.22087 -1.58089,0.66563 -0.44477,0.44401 -0.66564,0.96972 -0.66564,1.58165 l 0,5.49075 c 0,0.609663 0.22087,1.136122 0.66564,1.580888 0.44325,0.443254 0.96971,0.665638 1.58089,0.665638 l 5.4915,0 0,13.56236 c 0,0.609663 0.22087,1.136878 0.66564,1.581645 0.44326,0.443254 0.96971,0.664881 1.58089,0.664881 l 6.32355,0 c 0.60967,0 1.13613,-0.221627 1.58089,-0.664881 0.44326,-0.444767 0.66564,-0.971982 0.66564,-1.581645 l 0,-13.56236 10.7334,0 c 0.60967,0 1.13612,-0.222384 1.58089,-0.665638 0.44325,-0.444766 0.66564,-0.971225 0.66564,-1.580888 l 0,-5.49075 c 0,-0.61193 -0.22239,-1.13764 -0.66564,-1.58165 -0.44477,-0.44476 -0.97122,-0.66563 -1.58089,-0.66563 l -10.7334,0 0,-17.63939 c 0,-1.83051 0.48486,-3.23213 1.45608,-4.20184" />
          </g>
          <g
             transform="translate(864.3833,489.9805)"
             id="g4002">
            <path
               inkscape:connector-curvature="0"
               id="path4004"
               style="fill:#003056;fill-opacity:1;fill-rule:nonzero;stroke:none;stroke-width:0.75640607"
               d="m -321.907,-131.75165 c -0.61118,5.10272 -3.68975,7.65407 -9.23572,7.65407 -2.88493,0 -5.14583,-0.77682 -6.78118,-2.32973 -1.63686,-1.5529 -2.56649,-3.32743 -2.78736,-5.32434 z m 1.49768,14.76807 c 3.10581,-1.9137 5.50437,-4.47943 7.19721,-7.69567 1.69132,-3.21775 2.53774,-6.74034 2.53774,-10.56775 l 0,-3.74345 c 0,-0.61194 -0.22239,-1.13764 -0.66564,-1.58089 -0.44477,-0.44477 -0.97122,-0.6664 -1.58089,-0.6664 l -27.79036,0 c 0,-2.38494 0.94249,-4.28428 2.82896,-5.69952 1.88497,-1.41372 4.13149,-2.12171 6.73958,-2.12171 3.04983,0 5.4083,0.63765 7.0724,1.9137 0.60966,0.44401 1.10889,0.7496 1.49768,0.91525 0.38728,0.16717 0.91525,0.24962 1.58089,0.24962 l 6.65637,0 c 0.60967,0 1.13612,-0.20801 1.58089,-0.62328 0.44326,-0.41678 0.66564,-0.90239 0.66564,-1.45684 0,-1.16486 -0.76322,-2.63532 -2.28813,-4.40985 -1.52643,-1.77528 -3.73135,-3.31457 -6.61477,-4.61786 -2.88493,-1.30253 -6.26909,-1.95455 -10.15097,-1.95455 -4.10577,0 -7.69643,0.94248 -10.775,2.82896 -3.07858,1.88496 -5.44991,4.52028 -7.114,7.90369 -1.6641,3.3834 -2.49614,7.29402 -2.49614,11.73185 0,4.16024 0.83204,7.94681 2.49614,11.3582 1.66409,3.41139 4.04828,6.11554 7.1556,8.1117 3.1058,1.99766 6.6836,2.99536 10.7334,2.99536 4.04829,0 7.62609,-0.95609 10.7334,-2.87056" />
          </g>
          <g
             transform="translate(907.1167,470.2344)"
             id="g4006">
            <path
               inkscape:connector-curvature="0"
               id="path4008"
               style="fill:#003056;fill-opacity:1;fill-rule:nonzero;stroke:none;stroke-width:0.75640607"
               d="m -332.3166,-126.94162 c 1.85773,-1.58089 4.06266,-2.37133 6.61477,-2.37133 2.49614,0 4.35387,0.36081 5.57471,1.08166 1.22009,0.72085 2.35696,1.85849 3.41139,3.41215 0.44326,0.7201 0.87365,1.2753 1.28968,1.66409 0.41602,0.38728 0.90088,0.58168 1.45608,0.58168 l 6.32355,0 c 0.60967,0 1.1505,-0.22163 1.62249,-0.66488 0.47049,-0.44477 0.6785,-0.97199 0.62404,-1.58089 -0.11119,-1.8305 -0.91525,-3.88339 -2.41294,-6.15715 -1.49768,-2.27527 -3.75858,-4.23133 -6.78118,-5.86668 -3.02411,-1.63535 -6.72672,-2.45378 -11.10782,-2.45378 -3.93936,0 -7.41959,0.85927 -10.44218,2.57934 -3.02412,1.71856 -5.42268,4.03467 -7.19721,6.94759 -1.77604,2.91216 -2.80173,6.0868 -3.07857,9.52618 -0.056,0.66639 -0.0832,1.77453 -0.0832,3.32894 0,1.60812 0.0272,2.74575 0.0832,3.41139 0.27684,3.43862 1.28967,6.61477 3.03697,9.52694 1.7473,2.91216 4.14586,5.24189 7.1972,6.989188 3.04983,1.746541 6.54443,2.62019 10.48379,2.62019 4.3811,0 8.08371,-0.819187 11.10782,-2.454537 3.0226,-1.636863 5.2835,-3.591421 6.78118,-5.865931 1.49769,-2.27451 2.30175,-4.32588 2.41294,-6.15639 0.0545,-0.61193 -0.15355,-1.13763 -0.62404,-1.58089 -0.47199,-0.44476 -1.01282,-0.66639 -1.62249,-0.66639 l -6.32355,0 c -0.5552,0 -1.04006,0.1944 -1.45608,0.58319 -0.41603,0.38728 -0.84642,0.94248 -1.28968,1.66409 -1.05443,1.5529 -2.1913,2.68978 -3.41139,3.41139 -1.22084,0.7201 -3.07857,1.08091 -5.57471,1.08091 -2.55211,0 -4.75704,-0.79045 -6.61477,-2.37133 -1.85925,-1.58014 -2.95377,-3.98021 -3.28658,-7.19645 -0.056,-0.5552 -0.0832,-1.52719 -0.0832,-2.91292 0,-1.38725 0.0272,-2.35772 0.0832,-2.91141 0.33281,-3.21775 1.42733,-5.61631 3.28658,-7.19796" />
          </g>
          <g
             transform="translate(1007.4922,455.8799)"
             id="g4010">
            <path
               inkscape:connector-curvature="0"
               id="path4012"
               style="fill:#003056;fill-opacity:1;fill-rule:nonzero;stroke:none;stroke-width:0.75640607"
               d="m -356.76747,-123.44495 c -0.44476,-0.44476 -0.97198,-0.66564 -1.58164,-0.66564 l -6.32356,0 c -0.61041,0 -1.13763,0.22088 -1.58088,0.66564 -0.44477,0.44401 -0.66488,0.96971 -0.66488,1.58165 l 0,21.13323 c 0,3.438617 -0.80482,6.128397 -2.4137,8.070848 -1.60887,1.941694 -3.96583,2.912163 -7.07239,2.912163 -2.88418,0 -5.18668,-0.999212 -6.90599,-2.994612 -1.72007,-1.997668 -2.57859,-4.659461 -2.57859,-7.988399 l 0,-21.13323 c 0,-0.61194 -0.22314,-1.13764 -0.66639,-1.58165 -0.44477,-0.44476 -0.97047,-0.66564 -1.58089,-0.66564 l -6.32355,0 c -0.61118,0 -1.13688,0.22088 -1.58014,0.66564 -0.44476,0.44401 -0.66639,0.96971 -0.66639,1.58165 l 0,54.581496 c 0,0.609664 0.22163,1.136879 0.66639,1.581646 0.44326,0.443253 0.96896,0.66488 1.58014,0.66488 l 6.32355,0 c 0.61042,0 1.13612,-0.221627 1.58089,-0.66488 0.44325,-0.444767 0.66639,-0.971982 0.66639,-1.581646 l 0,-17.722589 c 3.32743,3.328186 7.32201,4.99228 11.98147,4.99228 6.26683,0 10.80224,-1.803272 13.60321,-5.407547 2.80021,-3.606544 4.20184,-8.293992 4.20184,-14.061588 l 0,-22.382052 c 0,-0.61194 -0.22163,-1.13764 -0.66489,-1.58165" />
          </g>
          <g
             transform="translate(1075.8008,455.8799)"
             id="g4014">
            <path
               inkscape:connector-curvature="0"
               id="path4016"
               style="fill:#003056;fill-opacity:1;fill-rule:nonzero;stroke:none;stroke-width:0.75640607"
               d="m -373.40703,-123.44495 c -0.44476,-0.44476 -0.97198,-0.66564 -1.58164,-0.66564 l -6.32356,0 c -0.61042,0 -1.13763,0.22088 -1.58089,0.66564 -0.44476,0.44401 -0.66488,0.96971 -0.66488,1.58165 l 0,21.13323 c 0,3.438617 -0.80481,6.128397 -2.41369,8.070848 -1.60887,1.941694 -3.96584,2.912163 -7.0724,2.912163 -2.88417,0 -5.18667,-0.999212 -6.90598,-2.994612 -1.72007,-1.997668 -2.57859,-4.659461 -2.57859,-7.988399 l 0,-21.13323 c 0,-0.61194 -0.22314,-1.13764 -0.66639,-1.58165 -0.44477,-0.44476 -0.97047,-0.66564 -1.58089,-0.66564 l -6.3228,0 c -0.61193,0 -1.13764,0.22088 -1.58089,0.66564 -0.44477,0.44401 -0.66639,0.96971 -0.66639,1.58165 l 0,38.77337 c 0,0.608907 0.22162,1.136122 0.66639,1.580133 0.44325,0.443254 0.96896,0.665637 1.58089,0.665637 l 6.3228,0 c 0.61042,0 1.13612,-0.222383 1.58089,-0.665637 0.44325,-0.444011 0.66639,-0.971226 0.66639,-1.580133 l 0,-1.914463 c 3.32743,3.328186 7.32201,4.99228 11.98147,4.99228 6.26683,0 10.80224,-1.803272 13.60321,-5.407547 2.80021,-3.606544 4.20183,-8.293992 4.20183,-14.061588 l 0,-22.382052 c 0,-0.61194 -0.22162,-1.13764 -0.66488,-1.58165" />
          </g>
          <g
             transform="translate(1107.5332,497.46)"
             id="g4018">
            <path
               inkscape:connector-curvature="0"
               id="path4020"
               style="fill:#003056;fill-opacity:1;fill-rule:nonzero;stroke:none;stroke-width:0.75640607"
               d="m -381.13685,-133.57361 c -1.85849,-1.33127 -2.95301,-3.57704 -3.28583,-6.73958 -0.056,-0.5552 -0.084,-1.80327 -0.084,-3.74421 0,-1.94245 0.028,-3.18976 0.084,-3.74421 0.33282,-3.16102 1.42734,-5.4083 3.28583,-6.73957 1.85849,-1.33052 4.11863,-1.99692 6.78118,-1.99692 2.66255,0 4.92269,0.6664 6.78194,1.99692 1.85773,1.33127 2.95376,3.57855 3.28583,6.73957 0.11119,1.10889 0.16716,2.35696 0.16716,3.74421 0,1.38574 -0.056,2.63381 -0.16716,3.74421 -0.33207,3.16254 -1.4281,5.40831 -3.28583,6.73958 -1.85925,1.33203 -4.11939,1.99691 -6.78194,1.99691 -2.66255,0 -4.92269,-0.66488 -6.78118,-1.99691 m 27.83196,-10.56699 c 0,-1.44322 -0.0552,-2.82896 -0.16565,-4.16023 -0.27912,-3.38417 -1.30405,-6.46274 -3.07857,-9.23648 -1.77605,-2.77374 -4.20184,-4.96354 -7.28041,-6.57241 -3.07857,-1.60812 -6.58754,-2.41294 -10.52615,-2.41294 -3.93861,0 -7.44606,0.80482 -10.52463,2.41294 -3.07933,1.60887 -5.50664,3.79867 -7.28041,6.57241 -1.77604,2.77374 -2.80173,5.85231 -3.07933,9.23648 -0.056,0.66563 -0.0824,2.05137 -0.0824,4.16023 0,2.16332 0.0265,3.57856 0.0824,4.24344 0.2776,3.43937 1.30329,6.54442 3.07933,9.31892 1.77377,2.77298 4.20108,4.96353 7.28041,6.57241 3.07857,1.60888 6.58602,2.41369 10.52463,2.41369 3.93861,0 7.44758,-0.80481 10.52615,-2.41369 3.07857,-1.60888 5.50436,-3.79943 7.28041,-6.57241 1.77452,-2.7745 2.79945,-5.87955 3.07857,-9.31892 0.11043,-1.33128 0.16565,-2.745 0.16565,-4.24344" />
          </g>
          <g
             transform="translate(1170.1768,455.8799)"
             id="g4022">
            <path
               inkscape:connector-curvature="0"
               id="path4024"
               style="fill:#003056;fill-opacity:1;fill-rule:nonzero;stroke:none;stroke-width:0.75640607"
               d="m -396.39645,-123.44495 c -0.44401,-0.44476 -0.97123,-0.66564 -1.58089,-0.66564 l -6.32355,0 c -0.61118,0 -1.13764,0.22088 -1.58089,0.66564 -0.44477,0.44401 -0.66564,0.96971 -0.66564,1.58165 l 0,54.581496 c 0,0.609664 0.22087,1.136879 0.66564,1.581646 0.44325,0.443253 0.96971,0.66488 1.58089,0.66488 l 6.32355,0 c 0.60966,0 1.13688,-0.221627 1.58089,-0.66488 0.44401,-0.444767 0.66564,-0.971982 0.66564,-1.581646 l 0,-54.581496 c 0,-0.61194 -0.22163,-1.13764 -0.66564,-1.58165" />
          </g>
          <g
             transform="translate(1202.4609,497.46)"
             id="g4026">
            <path
               inkscape:connector-curvature="0"
               id="path4028"
               style="fill:#003056;fill-opacity:1;fill-rule:nonzero;stroke:none;stroke-width:0.75640607"
               d="m -404.26066,-133.57361 c -1.85849,-1.33127 -2.95301,-3.57704 -3.28659,-6.73958 -0.056,-0.5552 -0.0832,-1.80327 -0.0832,-3.74421 0,-1.94245 0.0272,-3.18976 0.0832,-3.74421 0.33358,-3.16102 1.4281,-5.4083 3.28659,-6.73957 1.85773,-1.33052 4.11863,-1.99692 6.78118,-1.99692 2.66179,0 4.92269,0.6664 6.78118,1.99692 1.85849,1.33127 2.95376,3.57855 3.28658,6.73957 0.11119,1.10889 0.16641,2.35696 0.16641,3.74421 0,1.38574 -0.0552,2.63381 -0.16641,3.74421 -0.33282,3.16254 -1.42809,5.40831 -3.28658,6.73958 -1.85849,1.33203 -4.11939,1.99691 -6.78118,1.99691 -2.66255,0 -4.92345,-0.66488 -6.78118,-1.99691 m 27.83196,-10.56699 c 0,-1.44322 -0.056,-2.82896 -0.16641,-4.16023 -0.27836,-3.38417 -1.30329,-6.46274 -3.07858,-9.23648 -1.77604,-2.77374 -4.20183,-4.96354 -7.2804,-6.57241 -3.07782,-1.60812 -6.58679,-2.41294 -10.52539,-2.41294 -3.93861,0 -7.44682,0.80482 -10.52464,2.41294 -3.07933,1.60887 -5.50663,3.79867 -7.2804,6.57241 -1.7768,2.77374 -2.80249,5.85231 -3.07933,9.23648 -0.056,0.66563 -0.0832,2.05137 -0.0832,4.16023 0,2.16332 0.0272,3.57856 0.0832,4.24344 0.27684,3.43937 1.30253,6.54442 3.07933,9.31892 1.77377,2.77298 4.20107,4.96353 7.2804,6.57241 3.07782,1.60888 6.58603,2.41369 10.52464,2.41369 3.9386,0 7.44757,-0.80481 10.52539,-2.41369 3.07857,-1.60888 5.50436,-3.79943 7.2804,-6.57241 1.77529,-2.7745 2.80022,-5.87955 3.07858,-9.31892 0.11043,-1.33128 0.16641,-2.745 0.16641,-4.24344" />
          </g>
          <g
             transform="translate(1267.0293,471.1699)"
             id="g4030">
            <path
               inkscape:connector-curvature="0"
               id="path4032"
               style="fill:#003056;fill-opacity:1;fill-rule:nonzero;stroke:none;stroke-width:0.75640607"
               d="m -419.98914,-127.1695 c 1.85849,-2.05289 4.36825,-3.07857 7.53003,-3.07857 2.77298,0 5.07624,0.81843 6.90674,2.45529 1.8305,1.63535 2.88266,3.92272 3.16178,6.86363 0.11043,1.10965 0.16565,2.16256 0.16565,3.16178 0,0.99845 -0.0552,2.05213 -0.16565,3.16102 -0.27912,2.82971 -1.34641,5.08985 -3.20414,6.78193 -1.85924,1.69133 -4.14662,2.53775 -6.86438,2.53775 -2.82896,0 -5.15869,-0.83205 -6.9892,-2.49614 -1.8305,-1.6641 -2.91216,-4.21545 -3.24422,-7.65483 -0.056,-0.5552 -0.084,-1.33128 -0.084,-2.32973 0,-4.21697 0.92886,-7.35 2.78735,-9.40213 m 17.59855,-8.07085 c -1.16487,-1.33128 -2.7745,-2.49614 -4.82663,-3.4946 -2.05213,-0.99845 -4.63147,-1.49768 -7.73803,-1.49768 -3.60579,0 -6.78118,0.90163 -9.52618,2.70415 -2.74576,1.80176 -4.89622,4.18822 -6.44912,7.15636 -1.55366,2.96662 -2.41218,6.19799 -2.57934,9.69258 l -0.0824,2.91217 0.0824,2.91216 c 0.16716,3.4946 1.02568,6.72596 2.57934,9.6941 1.5529,2.96662 3.70336,5.352329 6.44912,7.154845 2.745,1.802516 5.92039,2.704152 9.52618,2.704152 3.05058,0 5.6027,-0.498472 7.65483,-1.497684 2.05213,-0.998456 3.68823,-2.163322 4.90983,-3.494593 l 0,1.91446 c 0,0.608907 0.22087,1.136122 0.66563,1.580133 0.4425,0.443254 0.96972,0.665637 1.58014,0.665637 l 6.32431,0 c 0.6089,0 1.13612,-0.222383 1.58089,-0.665637 0.44249,-0.444011 0.66488,-0.971226 0.66488,-1.580133 l 0,-39.02299 c 0,-6.60115 -1.85925,-11.63503 -5.57472,-15.1024 -3.71697,-3.46585 -8.90214,-5.20029 -15.55927,-5.20029 -3.661,0 -6.98919,0.63841 -9.9838,1.91371 -2.99613,1.27681 -5.39545,2.92653 -7.19796,4.95067 -1.80327,2.02566 -2.7866,4.14738 -2.95301,6.36516 -0.056,0.61118 0.15204,1.13763 0.62328,1.58089 0.47124,0.44477 1.01207,0.66564 1.62325,0.66564 l 5.65716,0 c 0.66639,0 1.26168,-0.20802 1.7889,-0.62404 0.52721,-0.41602 1.06729,-0.95685 1.62249,-1.62249 0.88726,-1.05292 1.96817,-1.85773 3.24574,-2.41294 1.27454,-0.55368 3.13227,-0.83204 5.57395,-0.83204 2.66331,0 5.0475,0.81919 7.15636,2.45454 2.10659,1.63686 3.16178,3.95222 3.16178,6.94759 z" />
          </g>
          <g
             transform="translate(1333.1934,455.8799)"
             id="g4034">
            <path
               inkscape:connector-curvature="0"
               id="path4036"
               style="fill:#003056;fill-opacity:1;fill-rule:nonzero;stroke:none;stroke-width:0.75640607"
               d="m -436.10631,-123.44495 c -0.44477,-0.44476 -0.97123,-0.66564 -1.58089,-0.66564 l -6.32355,0 c -0.61118,0 -1.13764,0.22088 -1.58089,0.66564 -0.44477,0.44401 -0.66564,0.96971 -0.66564,1.58165 l 0,38.77337 c 0,0.608907 0.22087,1.136122 0.66564,1.580133 0.44325,0.443254 0.96971,0.665637 1.58089,0.665637 l 6.32355,0 c 0.60966,0 1.13612,-0.222383 1.58089,-0.665637 0.44325,-0.444011 0.66564,-0.971226 0.66564,-1.580133 l 0,-38.77337 c 0,-0.61194 -0.22239,-1.13764 -0.66564,-1.58165 m 0.41602,57.744792 c 0.44326,-0.444767 0.66564,-0.971982 0.66564,-1.581646 l 0,-6.48996 c 0,-0.611176 -0.22238,-1.137634 -0.66564,-1.580888 -0.44476,-0.444767 -0.97122,-0.665637 -1.58089,-0.665637 l -7.1556,0 c -0.61193,0 -1.13763,0.22087 -1.58089,0.665637 -0.44476,0.443254 -0.66639,0.969712 -0.66639,1.580888 l 0,6.48996 c 0,0.609664 0.22163,1.136879 0.66639,1.581646 0.44326,0.443253 0.96896,0.66488 1.58089,0.66488 l 7.1556,0 c 0.60967,0 1.13613,-0.221627 1.58089,-0.66488" />
          </g>
          <g
             transform="translate(1385.5527,489.9805)"
             id="g4038">
            <path
               inkscape:connector-curvature="0"
               id="path4040"
               style="fill:#003056;fill-opacity:1;fill-rule:nonzero;stroke:none;stroke-width:0.75640607"
               d="m -448.86072,-131.75165 c -0.61193,5.10272 -3.69051,7.65407 -9.23647,7.65407 -2.88418,0 -5.14583,-0.77682 -6.78118,-2.32973 -1.63687,-1.5529 -2.56573,-3.32743 -2.78736,-5.32434 z m 1.49693,14.76807 c 3.10656,-1.9137 5.50436,-4.47943 7.1972,-7.69567 1.69132,-3.21775 2.5385,-6.74034 2.5385,-10.56775 l 0,-3.74345 c 0,-0.61194 -0.22238,-1.13764 -0.66639,-1.58089 -0.44477,-0.44477 -0.97047,-0.6664 -1.58089,-0.6664 l -27.79036,0 c 0,-2.38494 0.94248,-4.28428 2.82896,-5.69952 1.88496,-1.41372 4.13224,-2.12171 6.73958,-2.12171 3.05058,0 5.4083,0.63765 7.07239,1.9137 0.60967,0.44401 1.10889,0.7496 1.49769,0.91525 0.38728,0.16717 0.916,0.24962 1.58088,0.24962 l 6.65713,0 c 0.60891,0 1.13613,-0.20801 1.58089,-0.62328 0.44326,-0.41678 0.66488,-0.90239 0.66488,-1.45684 0,-1.16486 -0.76245,-2.63532 -2.28737,-4.40985 -1.52643,-1.77528 -3.73211,-3.31457 -6.61553,-4.61786 -2.88417,-1.30253 -6.26833,-1.95455 -10.15096,-1.95455 -4.10578,0 -7.69644,0.94248 -10.77425,2.82896 -3.07857,1.88496 -5.44991,4.52028 -7.11476,7.90369 -1.66409,3.3834 -2.49538,7.29402 -2.49538,11.73185 0,4.16024 0.83129,7.94681 2.49538,11.3582 1.66485,3.41139 4.04904,6.11554 7.15636,8.1117 3.10505,1.99766 6.6836,2.99536 10.73265,2.99536 4.04904,0 7.62608,-0.95609 10.7334,-2.87056" />
          </g>
          <g
             transform="translate(1413.876,484.2598)"
             id="g4042">
            <path
               inkscape:connector-curvature="0"
               id="path4044"
               style="fill:#003056;fill-opacity:1;fill-rule:nonzero;stroke:none;stroke-width:0.75640607"
               d="m -455.7601,-130.35812 c -1.85925,2.16332 -2.78736,5.02027 -2.78736,8.57008 0,2.27376 0.69287,4.43708 2.08012,6.48996 1.38573,2.05213 3.38264,3.71547 5.99073,4.99228 2.60658,1.2753 5.62918,1.91371 9.06931,1.91371 3.43862,0 6.47559,-0.49847 9.11167,-1.49693 2.63305,-0.99921 4.68593,-2.33048 6.15563,-3.99458 1.47045,-1.66409 2.26014,-3.41139 2.37209,-5.24189 0.0545,-0.61042 -0.15355,-1.13764 -0.62404,-1.58089 -0.47199,-0.44477 -1.01282,-0.66488 -1.62249,-0.66488 l -6.40751,0 c -0.66488,0 -1.19361,0.0961 -1.58014,0.29122 -0.38879,0.19288 -0.80557,0.4841 -1.24882,0.87289 -0.66488,0.55369 -1.4281,0.99845 -2.28737,1.33127 -0.86079,0.33282 -2.15047,0.49923 -3.86902,0.49923 -1.8305,0 -3.34256,-0.2776 -4.53541,-0.83205 -1.19361,-0.5552 -1.7889,-1.41447 -1.7889,-2.57934 0,-0.83205 0.29197,-1.48483 0.87516,-1.95531 0.58168,-0.472 1.59299,-0.88802 3.03546,-1.24731 1.44171,-0.36232 4.0498,-0.95761 7.82199,-1.78966 4.7699,-0.99846 8.20928,-2.60809 10.31738,-4.82587 2.10735,-2.2193 3.16102,-5.04825 3.16102,-8.48612 0,-2.27527 -0.74884,-4.42498 -2.24577,-6.44912 -1.49768,-2.0249 -3.6489,-3.66025 -6.44836,-4.90907 -2.80173,-1.24807 -6.06108,-1.87135 -9.7773,-1.87135 -3.71698,0 -6.94684,0.56882 -9.69259,1.70494 -2.74651,1.13612 -4.85461,2.5922 -6.32355,4.36824 -1.47121,1.77453 -2.26166,3.60579 -2.37134,5.49151 -0.0552,0.60966 0.15204,1.13688 0.62404,1.58089 0.47048,0.44325 1.01131,0.66564 1.62249,0.66564 l 6.40676,0 c 0.60966,0 1.10889,-0.11195 1.49768,-0.33207 0.38728,-0.22314 0.80255,-0.5552 1.24731,-0.99845 0.77759,-0.77834 1.63535,-1.38725 2.57935,-1.8305 0.94248,-0.44477 2.41369,-0.6664 4.40985,-0.6664 1.99766,0 3.77219,0.26323 5.32585,0.79045 1.55215,0.52721 2.33049,1.34413 2.33049,2.45529 0,0.71934 -0.27987,1.28967 -0.8328,1.70494 -0.55445,0.41678 -1.41448,0.79044 -2.57935,1.12326 -1.16486,0.33358 -3.16253,0.80406 -5.99073,1.41448 l -3.24499,0.66564 c -4.65946,1.05292 -7.91881,2.6633 -9.77654,4.82587" />
          </g>
          <g
             transform="translate(647.8213,646.4619)"
             id="g4046">
            <path
               inkscape:connector-curvature="0"
               id="path4048"
               style="fill:#00aeee;fill-opacity:1;fill-rule:nonzero;stroke:none;stroke-width:0.63152945"
               d="m 240.29625,-134.52064 c 16.54796,-2.18194 28.89942,-10.69495 38.40835,-25.43295 -16.0579,3.83023 -29.81955,0.99023 -41.38918,-9.54494 -11.63844,-10.59833 -15.58614,-24.09222 -13.36,-40.14569 -7.30238,5.64398 -15.24575,8.53069 -24.07389,7.58593 -8.73975,-0.93592 -16.25432,-4.643 -21.84461,-11.68266 -5.45136,-6.86472 -7.89474,-14.71969 -6.99861,-23.41144 0.87909,-8.51174 4.77689,-15.64993 11.07891,-21.26927 -0.6031,-1.38305 -19.56098,-1.71965 -28.11189,-0.28671 -15.2268,2.55138 -27.99823,15.88927 -29.96103,31.17418 -0.32839,1.69629 -0.9094,5.57957 0.0916,11.92517 2.58865,14.241 10.73726,24.29494 23.53331,30.78137 0,2.13964 -0.0588,4.0759 0.009,6.00711 0.42123,11.85697 9.27527,22.02143 20.44449,23.50616 12.49608,1.66155 23.71646,-5.53093 27.04842,-17.46558 0.6132,-2.19646 0.79825,-4.52175 1.06917,-6.80094 0.24125,-2.03289 1.44116,-3.16458 3.32058,-3.17406 2.11247,-0.0104 3.37237,1.30727 3.32122,3.48857 -0.0448,1.92805 -0.16231,3.8738 -0.48186,5.77217 -1.21064,7.18301 -5.05034,12.95898 -10.37666,18.13753 9.55947,11.69087 21.32992,18.78611 36.11085,20.68891 6.98219,0.41112 8.52945,0.54754 12.16136,0.14713" />
          </g>
          <g
             transform="translate(746.4673,540.7271)"
             id="g4050">
            <path
               inkscape:connector-curvature="0"
               id="path4052"
               style="fill:#00aeee;fill-opacity:1;fill-rule:nonzero;stroke:none;stroke-width:0.63152945"
               d="m 203.9481,-95.560474 c -0.0492,-20.123696 -16.49997,-36.358416 -36.73164,-36.249156 -19.93424,0.108 -36.11718,16.50754 -36.06729,36.550395 0.0499,20.118635 16.50754,36.359047 36.73228,36.247897 19.93549,-0.10988 36.11591,-16.507547 36.06665,-36.549136" />
          </g>
          <g
             transform="translate(548.2007,489.3613)"
             id="g4054">
            <path
               inkscape:connector-curvature="0"
               id="path4056"
               style="fill:#003056;fill-opacity:1;fill-rule:nonzero;stroke:none;stroke-width:0.63152945"
               d="m 277.00351,-76.633687 c 0.0619,13.964379 11.56835,25.35717 25.55104,25.298438 14.18163,-0.06 25.52579,-11.599301 25.3957,-25.83208 -0.1269,-13.9688 -11.5772,-25.135501 -25.7424,-25.105821 -13.88545,0.029 -25.26687,11.60751 -25.20434,25.639463" />
          </g>
          <g
             transform="translate(631.1934,460.0518)"
             id="g4058">
            <path
               inkscape:connector-curvature="0"
               id="path4060"
               style="fill:#003056;fill-opacity:1;fill-rule:nonzero;stroke:none;stroke-width:0.63152945"
               d="m 246.42314,-65.833999 c 0.036,8.114521 6.722,14.733582 14.846,14.698848 8.24019,-0.0341 14.83147,-6.739051 14.75631,-15.008298 -0.0745,-8.117047 -6.72768,-14.604749 -14.95778,-14.587699 -8.06779,0.01705 -14.68053,6.744104 -14.64453,14.897149" />
          </g>
          <g
             transform="translate(691.5239,460.0156)"
             id="g4062">
            <path
               inkscape:connector-curvature="0"
               id="path4064"
               style="fill:#003056;fill-opacity:1;fill-rule:nonzero;stroke:none;stroke-width:0.63152945"
               d="m 224.19312,-65.82066 c 0.0284,6.384762 5.2897,11.594249 11.6833,11.567093 6.48391,-0.02779 11.67066,-5.302953 11.6113,-11.810864 -0.0582,-6.38729 -5.29347,-11.493204 -11.77045,-11.478679 -6.34877,0.01265 -11.55256,5.306742 -11.52415,11.72245" />
          </g>
          <g
             transform="translate(734.5625,480.5254)"
             id="g4066">
            <path
               inkscape:connector-curvature="0"
               id="path4068"
               style="fill:#003056;fill-opacity:1;fill-rule:nonzero;stroke:none;stroke-width:0.63152945"
               d="m 208.33467,-73.377919 c 0.0183,4.056946 3.361,7.366791 7.42299,7.34974 4.1201,-0.01769 7.41605,-3.369841 7.37816,-7.504464 -0.0372,-4.05884 -3.36352,-7.303007 -7.47856,-7.294165 -4.03422,0.0088 -7.34028,3.372368 -7.32259,7.448889" />
          </g>
        </g>
      </g>
    </g>
  </g>
</svg>
